<svg width="357" height="131" viewBox="0 0 357 131" fill="none" xmlns="http://www.w3.org/2000/svg">
<rect x="309.259" y="50" width="2.96296" height="40" rx="1.48148" fill="white"/>
<rect x="330" y="69.2593" width="2.96296" height="40" rx="1.48148" transform="rotate(90 330 69.2593)" fill="white"/>
<g filter="url(#filter0_d_452_379)">
<rect x="4" width="349" height="122.985" rx="15" fill="white"/>
</g>
<rect x="139" y="76" width="80" height="24" rx="12" fill="#07A7F3"/>
<path d="M48.8617 95.0516C47.6777 95.0516 46.5257 94.8676 45.4057 94.4996C44.3017 94.1316 43.3977 93.6356 42.6937 93.0116L43.7977 91.1156C44.3577 91.6436 45.0857 92.0756 45.9817 92.4116C46.8777 92.7476 47.8377 92.9156 48.8617 92.9156C50.1097 92.9156 51.0777 92.6516 51.7657 92.1236C52.4697 91.5796 52.8217 90.8516 52.8217 89.9396C52.8217 89.0596 52.4857 88.3556 51.8137 87.8276C51.1577 87.2836 50.1097 87.0116 48.6697 87.0116H47.3257V85.3316L52.3177 79.1876L52.6537 80.1476H43.4617V78.0596H54.5497V79.6916L49.5817 85.8116L48.3337 85.0676H49.1257C51.1577 85.0676 52.6777 85.5236 53.6857 86.4356C54.7097 87.3476 55.2217 88.5076 55.2217 89.9156C55.2217 90.8596 54.9897 91.7236 54.5257 92.5076C54.0617 93.2916 53.3577 93.9156 52.4137 94.3796C51.4857 94.8276 50.3017 95.0516 48.8617 95.0516ZM57.0789 94.8596V93.2276L63.9189 86.6276C64.5269 86.0516 64.9749 85.5476 65.2629 85.1156C65.5669 84.6676 65.7669 84.2596 65.8629 83.8916C65.9749 83.5076 66.0309 83.1396 66.0309 82.7876C66.0309 81.9236 65.7269 81.2436 65.1189 80.7476C64.5109 80.2516 63.6229 80.0036 62.4549 80.0036C61.5589 80.0036 60.7509 80.1556 60.0309 80.4596C59.3109 80.7476 58.6869 81.2036 58.1589 81.8276L56.5269 80.4116C57.1669 79.5956 58.0229 78.9716 59.0949 78.5396C60.1829 78.0916 61.3749 77.8676 62.6709 77.8676C63.8389 77.8676 64.8549 78.0596 65.7189 78.4436C66.5829 78.8116 67.2469 79.3476 67.7109 80.0516C68.1909 80.7556 68.4309 81.5876 68.4309 82.5476C68.4309 83.0916 68.3589 83.6276 68.2149 84.1556C68.0709 84.6836 67.7989 85.2436 67.3989 85.8356C66.9989 86.4276 66.4229 87.0916 65.6709 87.8276L59.5749 93.7076L58.9989 92.7716H69.1509V94.8596H57.0789ZM73.6625 94.8596L85.1345 78.0596H86.9825L75.5105 94.8596H73.6625ZM75.0065 87.0836C74.2385 87.0836 73.5585 86.8916 72.9665 86.5076C72.3745 86.1236 71.9105 85.5876 71.5745 84.8996C71.2545 84.2116 71.0945 83.4116 71.0945 82.4996C71.0945 81.5876 71.2545 80.7876 71.5745 80.0996C71.9105 79.4116 72.3745 78.8756 72.9665 78.4916C73.5585 78.1076 74.2385 77.9156 75.0065 77.9156C75.7905 77.9156 76.4705 78.1076 77.0465 78.4916C77.6385 78.8756 78.0945 79.4116 78.4145 80.0996C78.7345 80.7876 78.8945 81.5876 78.8945 82.4996C78.8945 83.4116 78.7345 84.2116 78.4145 84.8996C78.0945 85.5876 77.6385 86.1236 77.0465 86.5076C76.4705 86.8916 75.7905 87.0836 75.0065 87.0836ZM75.0065 85.7156C75.7425 85.7156 76.3185 85.4356 76.7345 84.8756C77.1505 84.2996 77.3585 83.5076 77.3585 82.4996C77.3585 81.4916 77.1505 80.7076 76.7345 80.1476C76.3185 79.5716 75.7425 79.2836 75.0065 79.2836C74.2865 79.2836 73.7105 79.5716 73.2785 80.1476C72.8625 80.7076 72.6545 81.4916 72.6545 82.4996C72.6545 83.4916 72.8625 84.2756 73.2785 84.8516C73.7105 85.4276 74.2865 85.7156 75.0065 85.7156ZM85.6385 95.0036C84.8705 95.0036 84.1905 94.8116 83.5985 94.4276C83.0065 94.0436 82.5505 93.5076 82.2305 92.8196C81.9105 92.1316 81.7505 91.3316 81.7505 90.4196C81.7505 89.5076 81.9105 88.7076 82.2305 88.0196C82.5505 87.3316 83.0065 86.7956 83.5985 86.4116C84.1905 86.0276 84.8705 85.8356 85.6385 85.8356C86.4225 85.8356 87.1025 86.0276 87.6785 86.4116C88.2705 86.7956 88.7265 87.3316 89.0465 88.0196C89.3825 88.7076 89.5505 89.5076 89.5505 90.4196C89.5505 91.3316 89.3825 92.1316 89.0465 92.8196C88.7265 93.5076 88.2705 94.0436 87.6785 94.4276C87.1025 94.8116 86.4225 95.0036 85.6385 95.0036ZM85.6385 93.6356C86.3585 93.6356 86.9265 93.3556 87.3425 92.7956C87.7745 92.2196 87.9905 91.4276 87.9905 90.4196C87.9905 89.4276 87.7745 88.6436 87.3425 88.0676C86.9265 87.4916 86.3585 87.2036 85.6385 87.2036C84.9185 87.2036 84.3425 87.4916 83.9105 88.0676C83.4945 88.6276 83.2865 89.4116 83.2865 90.4196C83.2865 91.4276 83.4945 92.2196 83.9105 92.7956C84.3425 93.3556 84.9185 93.6356 85.6385 93.6356Z" fill="black"/>
<path d="M46.304 39V30.74H43.056V29.2H51.372V30.74H48.124V39H46.304ZM55.1643 39.098C54.3989 39.098 53.7176 38.9347 53.1203 38.608C52.5229 38.272 52.0516 37.8147 51.7063 37.236C51.3609 36.6573 51.1883 35.9993 51.1883 35.262C51.1883 34.5153 51.3609 33.8573 51.7063 33.288C52.0516 32.7093 52.5229 32.2567 53.1203 31.93C53.7176 31.6033 54.3989 31.44 55.1643 31.44C55.9389 31.44 56.6249 31.6033 57.2223 31.93C57.8289 32.2567 58.3003 32.7047 58.6363 33.274C58.9816 33.8433 59.1543 34.506 59.1543 35.262C59.1543 35.9993 58.9816 36.6573 58.6363 37.236C58.3003 37.8147 57.8289 38.272 57.2223 38.608C56.6249 38.9347 55.9389 39.098 55.1643 39.098ZM55.1643 37.6C55.5936 37.6 55.9763 37.5067 56.3123 37.32C56.6483 37.1333 56.9096 36.8627 57.0963 36.508C57.2923 36.1533 57.3903 35.738 57.3903 35.262C57.3903 34.7767 57.2923 34.3613 57.0963 34.016C56.9096 33.6613 56.6483 33.3907 56.3123 33.204C55.9763 33.0173 55.5983 32.924 55.1783 32.924C54.7489 32.924 54.3663 33.0173 54.0303 33.204C53.7036 33.3907 53.4423 33.6613 53.2463 34.016C53.0503 34.3613 52.9523 34.7767 52.9523 35.262C52.9523 35.738 53.0503 36.1533 53.2463 36.508C53.4423 36.8627 53.7036 37.1333 54.0303 37.32C54.3663 37.5067 54.7443 37.6 55.1643 37.6ZM60.8277 39V31.524H62.4937V33.582L62.2977 32.98C62.5217 32.476 62.8717 32.0933 63.3477 31.832C63.833 31.5707 64.435 31.44 65.1537 31.44V33.106C65.079 33.0873 65.009 33.078 64.9437 33.078C64.8784 33.0687 64.813 33.064 64.7477 33.064C64.085 33.064 63.5577 33.26 63.1657 33.652C62.7737 34.0347 62.5777 34.6087 62.5777 35.374V39H60.8277ZM70.7822 39.098C70.1756 39.098 69.6202 38.958 69.1162 38.678C68.6216 38.398 68.2249 37.978 67.9262 37.418C67.6369 36.8487 67.4922 36.13 67.4922 35.262C67.4922 34.3847 67.6322 33.666 67.9122 33.106C68.2016 32.546 68.5936 32.1307 69.0882 31.86C69.5829 31.58 70.1476 31.44 70.7822 31.44C71.5196 31.44 72.1682 31.5987 72.7282 31.916C73.2976 32.2333 73.7456 32.6767 74.0722 33.246C74.4082 33.8153 74.5762 34.4873 74.5762 35.262C74.5762 36.0367 74.4082 36.7133 74.0722 37.292C73.7456 37.8613 73.2976 38.3047 72.7282 38.622C72.1682 38.9393 71.5196 39.098 70.7822 39.098ZM66.6382 41.716V31.524H68.3042V33.288L68.2482 35.276L68.3882 37.264V41.716H66.6382ZM70.5862 37.6C71.0062 37.6 71.3796 37.5067 71.7062 37.32C72.0422 37.1333 72.3082 36.8627 72.5042 36.508C72.7002 36.1533 72.7982 35.738 72.7982 35.262C72.7982 34.7767 72.7002 34.3613 72.5042 34.016C72.3082 33.6613 72.0422 33.3907 71.7062 33.204C71.3796 33.0173 71.0062 32.924 70.5862 32.924C70.1662 32.924 69.7882 33.0173 69.4522 33.204C69.1162 33.3907 68.8502 33.6613 68.6542 34.016C68.4582 34.3613 68.3602 34.7767 68.3602 35.262C68.3602 35.738 68.4582 36.1533 68.6542 36.508C68.8502 36.8627 69.1162 37.1333 69.4522 37.32C69.7882 37.5067 70.1662 37.6 70.5862 37.6ZM80.7462 39V37.488L80.6482 37.166V34.52C80.6482 34.0067 80.4942 33.61 80.1862 33.33C79.8782 33.0407 79.4115 32.896 78.7862 32.896C78.3662 32.896 77.9509 32.9613 77.5402 33.092C77.1389 33.2227 76.7982 33.4047 76.5182 33.638L75.8322 32.364C76.2335 32.056 76.7095 31.8273 77.2602 31.678C77.8202 31.5193 78.3989 31.44 78.9962 31.44C80.0789 31.44 80.9142 31.7013 81.5022 32.224C82.0995 32.7373 82.3982 33.5353 82.3982 34.618V39H80.7462ZM78.3942 39.098C77.8342 39.098 77.3442 39.0047 76.9242 38.818C76.5042 38.622 76.1775 38.356 75.9442 38.02C75.7202 37.6747 75.6082 37.2873 75.6082 36.858C75.6082 36.438 75.7062 36.06 75.9022 35.724C76.1075 35.388 76.4389 35.122 76.8962 34.926C77.3535 34.73 77.9602 34.632 78.7162 34.632H80.8862V35.794H78.8422C78.2449 35.794 77.8435 35.892 77.6382 36.088C77.4329 36.2747 77.3302 36.508 77.3302 36.788C77.3302 37.1053 77.4562 37.3573 77.7082 37.544C77.9602 37.7307 78.3102 37.824 78.7582 37.824C79.1875 37.824 79.5702 37.726 79.9062 37.53C80.2515 37.334 80.4989 37.0447 80.6482 36.662L80.9422 37.712C80.7742 38.1507 80.4709 38.4913 80.0322 38.734C79.6029 38.9767 79.0569 39.098 78.3942 39.098ZM87.8218 39.098C87.1031 39.098 86.4544 38.9393 85.8758 38.622C85.3064 38.3047 84.8584 37.8613 84.5318 37.292C84.2051 36.7133 84.0418 36.0367 84.0418 35.262C84.0418 34.4873 84.2051 33.8153 84.5318 33.246C84.8584 32.6767 85.3064 32.2333 85.8758 31.916C86.4544 31.5987 87.1031 31.44 87.8218 31.44C88.4658 31.44 89.0304 31.58 89.5158 31.86C90.0104 32.1307 90.3978 32.546 90.6778 33.106C90.9671 33.666 91.1118 34.3847 91.1118 35.262C91.1118 36.13 90.9624 36.8487 90.6638 37.418C90.3744 37.978 89.9824 38.398 89.4878 38.678C88.9931 38.958 88.4378 39.098 87.8218 39.098ZM88.0178 37.6C88.4378 37.6 88.8158 37.5067 89.1518 37.32C89.4878 37.1333 89.7538 36.8627 89.9498 36.508C90.1458 36.1533 90.2438 35.738 90.2438 35.262C90.2438 34.7767 90.1458 34.3613 89.9498 34.016C89.7538 33.6613 89.4878 33.3907 89.1518 33.204C88.8158 33.0173 88.4378 32.924 88.0178 32.924C87.5978 32.924 87.2198 33.0173 86.8838 33.204C86.5571 33.3907 86.2958 33.6613 86.0998 34.016C85.9038 34.3613 85.8058 34.7767 85.8058 35.262C85.8058 35.738 85.9038 36.1533 86.0998 36.508C86.2958 36.8627 86.5571 37.1333 86.8838 37.32C87.2198 37.5067 87.5978 37.6 88.0178 37.6ZM90.2158 41.716V37.264L90.3558 35.276L90.2998 33.288V31.524H91.9658V41.716H90.2158ZM97.4194 39.098C96.7008 39.098 96.0521 38.9393 95.4734 38.622C94.9041 38.2953 94.4561 37.8473 94.1294 37.278C93.8028 36.7087 93.6394 36.0367 93.6394 35.262C93.6394 34.4873 93.8028 33.8153 94.1294 33.246C94.4561 32.6767 94.9041 32.2333 95.4734 31.916C96.0521 31.5987 96.7008 31.44 97.4194 31.44C98.0448 31.44 98.6048 31.58 99.0994 31.86C99.5941 32.1307 99.9861 32.546 100.275 33.106C100.565 33.666 100.709 34.3847 100.709 35.262C100.709 36.13 100.569 36.8487 100.289 37.418C100.009 37.978 99.6221 38.398 99.1274 38.678C98.6328 38.958 98.0634 39.098 97.4194 39.098ZM97.6294 37.6C98.0494 37.6 98.4228 37.5067 98.7494 37.32C99.0854 37.1333 99.3514 36.8627 99.5474 36.508C99.7528 36.1533 99.8554 35.738 99.8554 35.262C99.8554 34.7767 99.7528 34.3613 99.5474 34.016C99.3514 33.6613 99.0854 33.3907 98.7494 33.204C98.4228 33.0173 98.0494 32.924 97.6294 32.924C97.2094 32.924 96.8314 33.0173 96.4954 33.204C96.1688 33.3907 95.9028 33.6613 95.6974 34.016C95.5014 34.3613 95.4034 34.7767 95.4034 35.262C95.4034 35.738 95.5014 36.1533 95.6974 36.508C95.9028 36.8627 96.1688 37.1333 96.4954 37.32C96.8314 37.5067 97.2094 37.6 97.6294 37.6ZM99.8974 39V37.236L99.9674 35.248L99.8274 33.26V28.612H101.563V39H99.8974ZM108.473 39V37.488L108.375 37.166V34.52C108.375 34.0067 108.221 33.61 107.913 33.33C107.605 33.0407 107.138 32.896 106.513 32.896C106.093 32.896 105.677 32.9613 105.267 33.092C104.865 33.2227 104.525 33.4047 104.245 33.638L103.559 32.364C103.96 32.056 104.436 31.8273 104.987 31.678C105.547 31.5193 106.125 31.44 106.723 31.44C107.805 31.44 108.641 31.7013 109.229 32.224C109.826 32.7373 110.125 33.5353 110.125 34.618V39H108.473ZM106.121 39.098C105.561 39.098 105.071 39.0047 104.651 38.818C104.231 38.622 103.904 38.356 103.671 38.02C103.447 37.6747 103.335 37.2873 103.335 36.858C103.335 36.438 103.433 36.06 103.629 35.724C103.834 35.388 104.165 35.122 104.623 34.926C105.08 34.73 105.687 34.632 106.443 34.632H108.613V35.794H106.569C105.971 35.794 105.57 35.892 105.365 36.088C105.159 36.2747 105.057 36.508 105.057 36.788C105.057 37.1053 105.183 37.3573 105.435 37.544C105.687 37.7307 106.037 37.824 106.485 37.824C106.914 37.824 107.297 37.726 107.633 37.53C107.978 37.334 108.225 37.0447 108.375 36.662L108.669 37.712C108.501 38.1507 108.197 38.4913 107.759 38.734C107.329 38.9767 106.783 39.098 106.121 39.098ZM116.24 39V31.524H117.906V33.582L117.71 32.98C117.934 32.476 118.284 32.0933 118.76 31.832C119.245 31.5707 119.847 31.44 120.566 31.44V33.106C120.491 33.0873 120.421 33.078 120.356 33.078C120.29 33.0687 120.225 33.064 120.16 33.064C119.497 33.064 118.97 33.26 118.578 33.652C118.186 34.0347 117.99 34.6087 117.99 35.374V39H116.24ZM125.283 39.098C124.648 39.098 124.088 38.9813 123.603 38.748C123.117 38.5053 122.739 38.1413 122.469 37.656C122.198 37.1613 122.063 36.5407 122.063 35.794V31.524H123.813V35.556C123.813 36.228 123.962 36.732 124.261 37.068C124.569 37.3947 125.003 37.558 125.563 37.558C125.973 37.558 126.328 37.474 126.627 37.306C126.935 37.138 127.173 36.886 127.341 36.55C127.518 36.214 127.607 35.7987 127.607 35.304V31.524H129.357V39H127.691V36.984L127.985 37.6C127.733 38.0853 127.364 38.4587 126.879 38.72C126.393 38.972 125.861 39.098 125.283 39.098ZM127.061 30.348C126.827 30.348 126.627 30.2733 126.459 30.124C126.3 29.9653 126.221 29.76 126.221 29.508C126.221 29.256 126.3 29.0507 126.459 28.892C126.627 28.7333 126.827 28.654 127.061 28.654C127.294 28.654 127.49 28.7333 127.649 28.892C127.817 29.0507 127.901 29.256 127.901 29.508C127.901 29.76 127.817 29.9653 127.649 30.124C127.49 30.2733 127.294 30.348 127.061 30.348ZM124.345 30.348C124.111 30.348 123.911 30.2733 123.743 30.124C123.584 29.9653 123.505 29.76 123.505 29.508C123.505 29.256 123.584 29.0507 123.743 28.892C123.911 28.7333 124.111 28.654 124.345 28.654C124.578 28.654 124.774 28.7333 124.933 28.892C125.101 29.0507 125.185 29.256 125.185 29.508C125.185 29.76 125.101 29.9653 124.933 30.124C124.774 30.2733 124.578 30.348 124.345 30.348ZM134.462 39.098C133.641 39.098 133.006 38.888 132.558 38.468C132.11 38.0387 131.886 37.4087 131.886 36.578V29.872H133.636V36.536C133.636 36.8907 133.725 37.166 133.902 37.362C134.089 37.558 134.345 37.656 134.672 37.656C135.064 37.656 135.391 37.5533 135.652 37.348L136.142 38.594C135.937 38.762 135.685 38.888 135.386 38.972C135.087 39.056 134.779 39.098 134.462 39.098ZM130.654 32.98V31.58H135.638V32.98H130.654ZM140.746 39.098C140.111 39.098 139.551 38.9813 139.066 38.748C138.58 38.5053 138.202 38.1413 137.932 37.656C137.661 37.1613 137.526 36.5407 137.526 35.794V31.524H139.276V35.556C139.276 36.228 139.425 36.732 139.724 37.068C140.032 37.3947 140.466 37.558 141.026 37.558C141.436 37.558 141.791 37.474 142.09 37.306C142.398 37.138 142.636 36.886 142.804 36.55C142.981 36.214 143.07 35.7987 143.07 35.304V31.524H144.82V39H143.154V36.984L143.448 37.6C143.196 38.0853 142.827 38.4587 142.342 38.72C141.856 38.972 141.324 39.098 140.746 39.098ZM151.255 39.098C150.62 39.098 150.056 38.958 149.561 38.678C149.066 38.398 148.674 37.978 148.385 37.418C148.105 36.8487 147.965 36.13 147.965 35.262C147.965 34.3847 148.11 33.666 148.399 33.106C148.698 32.546 149.094 32.1307 149.589 31.86C150.093 31.58 150.648 31.44 151.255 31.44C151.992 31.44 152.641 31.5987 153.201 31.916C153.77 32.2333 154.218 32.6767 154.545 33.246C154.881 33.8153 155.049 34.4873 155.049 35.262C155.049 36.0367 154.881 36.7087 154.545 37.278C154.218 37.8473 153.77 38.2953 153.201 38.622C152.641 38.9393 151.992 39.098 151.255 39.098ZM147.111 39V28.612H148.861V33.26L148.721 35.248L148.777 37.236V39H147.111ZM151.059 37.6C151.479 37.6 151.852 37.5067 152.179 37.32C152.515 37.1333 152.781 36.8627 152.977 36.508C153.173 36.1533 153.271 35.738 153.271 35.262C153.271 34.7767 153.173 34.3613 152.977 34.016C152.781 33.6613 152.515 33.3907 152.179 33.204C151.852 33.0173 151.479 32.924 151.059 32.924C150.639 32.924 150.261 33.0173 149.925 33.204C149.589 33.3907 149.323 33.6613 149.127 34.016C148.931 34.3613 148.833 34.7767 148.833 35.262C148.833 35.738 148.931 36.1533 149.127 36.508C149.323 36.8627 149.589 37.1333 149.925 37.32C150.261 37.5067 150.639 37.6 151.059 37.6ZM159.607 31.44C160.437 31.44 161.161 31.6033 161.777 31.93C162.402 32.2567 162.883 32.7093 163.219 33.288C163.564 33.8573 163.737 34.5153 163.737 35.262C163.737 36.0087 163.569 36.6713 163.233 37.25C162.906 37.8193 162.449 38.272 161.861 38.608C161.273 38.9347 160.61 39.098 159.873 39.098C159.145 39.098 158.491 38.9393 157.913 38.622C157.343 38.2953 156.895 37.8427 156.569 37.264C156.251 36.676 156.093 35.9947 156.093 35.22C156.093 35.1453 156.093 35.0613 156.093 34.968C156.102 34.8747 156.111 34.786 156.121 34.702H162.337V35.864H157.045L157.731 35.5C157.731 35.92 157.819 36.298 157.997 36.634C158.183 36.9607 158.435 37.2173 158.753 37.404C159.079 37.5907 159.453 37.684 159.873 37.684C160.293 37.684 160.666 37.5907 160.993 37.404C161.319 37.2173 161.571 36.956 161.749 36.62C161.935 36.284 162.029 35.8967 162.029 35.458V35.178C162.029 34.7207 161.926 34.324 161.721 33.988C161.515 33.6427 161.226 33.3767 160.853 33.19C160.489 33.0033 160.055 32.91 159.551 32.91C159.131 32.91 158.757 32.9753 158.431 33.106C158.104 33.2367 157.805 33.442 157.535 33.722L156.583 32.644C156.928 32.252 157.357 31.9533 157.871 31.748C158.384 31.5427 158.963 31.44 159.607 31.44ZM168.232 39.098C167.41 39.098 166.776 38.888 166.328 38.468C165.88 38.0387 165.656 37.4087 165.656 36.578V29.872H167.406V36.536C167.406 36.8907 167.494 37.166 167.672 37.362C167.858 37.558 168.115 37.656 168.442 37.656C168.834 37.656 169.16 37.5533 169.422 37.348L169.912 38.594C169.706 38.762 169.454 38.888 169.156 38.972C168.857 39.056 168.549 39.098 168.232 39.098ZM164.424 32.98V31.58H169.408V32.98H164.424Z" fill="black"/>
<g filter="url(#filter1_b_452_379)">
<circle cx="280" cy="86" r="9" fill="#2EA7E0"/>
<circle cx="280" cy="86" r="11.5" stroke="#0180BC" stroke-width="5"/>
</g>
<rect x="279.906" y="80.0437" width="0.901843" height="12.1749" rx="0.450921" fill="white"/>
<rect x="286.219" y="85.9058" width="0.901843" height="12.1749" rx="0.450921" transform="rotate(90 286.219 85.9058)" fill="white"/>
<g filter="url(#filter2_b_452_379)">
<circle cx="313" cy="86" r="9" fill="#2EA7E0"/>
<circle cx="313" cy="86" r="11.5" stroke="#0180BC" stroke-width="5"/>
</g>
<rect x="319.219" y="85.9058" width="0.901843" height="12.1749" rx="0.450921" transform="rotate(90 319.219 85.9058)" fill="white"/>
<rect x="272" y="21" width="50" height="29" rx="14.5" fill="#0180BC"/>
<path d="M282.24 43.16C281.253 43.16 280.293 43.0067 279.36 42.7C278.44 42.3933 277.687 41.98 277.1 41.46L278.02 39.88C278.487 40.32 279.093 40.68 279.84 40.96C280.587 41.24 281.387 41.38 282.24 41.38C283.28 41.38 284.087 41.16 284.66 40.72C285.247 40.2667 285.54 39.66 285.54 38.9C285.54 38.1667 285.26 37.58 284.7 37.14C284.153 36.6867 283.28 36.46 282.08 36.46H280.96V35.06L285.12 29.94L285.4 30.74H277.74V29H286.98V30.36L282.84 35.46L281.8 34.84H282.46C284.153 34.84 285.42 35.22 286.26 35.98C287.113 36.74 287.54 37.7067 287.54 38.88C287.54 39.6667 287.347 40.3867 286.96 41.04C286.573 41.6933 285.987 42.2133 285.2 42.6C284.427 42.9733 283.44 43.16 282.24 43.16ZM289.088 43V41.64L294.788 36.14C295.294 35.66 295.668 35.24 295.908 34.88C296.161 34.5067 296.328 34.1667 296.408 33.86C296.501 33.54 296.548 33.2333 296.548 32.94C296.548 32.22 296.294 31.6533 295.788 31.24C295.281 30.8267 294.541 30.62 293.568 30.62C292.821 30.62 292.148 30.7467 291.548 31C290.948 31.24 290.428 31.62 289.988 32.14L288.628 30.96C289.161 30.28 289.874 29.76 290.768 29.4C291.674 29.0267 292.668 28.84 293.748 28.84C294.721 28.84 295.568 29 296.288 29.32C297.008 29.6267 297.561 30.0733 297.948 30.66C298.348 31.2467 298.548 31.94 298.548 32.74C298.548 33.1933 298.488 33.64 298.368 34.08C298.248 34.52 298.021 34.9867 297.688 35.48C297.354 35.9733 296.874 36.5267 296.248 37.14L291.168 42.04L290.688 41.26H299.148V43H289.088ZM302.907 43L312.467 29H314.007L304.447 43H302.907ZM304.027 36.52C303.387 36.52 302.821 36.36 302.327 36.04C301.834 35.72 301.447 35.2733 301.167 34.7C300.901 34.1267 300.767 33.46 300.767 32.7C300.767 31.94 300.901 31.2733 301.167 30.7C301.447 30.1267 301.834 29.68 302.327 29.36C302.821 29.04 303.387 28.88 304.027 28.88C304.681 28.88 305.247 29.04 305.727 29.36C306.221 29.68 306.601 30.1267 306.867 30.7C307.134 31.2733 307.267 31.94 307.267 32.7C307.267 33.46 307.134 34.1267 306.867 34.7C306.601 35.2733 306.221 35.72 305.727 36.04C305.247 36.36 304.681 36.52 304.027 36.52ZM304.027 35.38C304.641 35.38 305.121 35.1467 305.467 34.68C305.814 34.2 305.987 33.54 305.987 32.7C305.987 31.86 305.814 31.2067 305.467 30.74C305.121 30.26 304.641 30.02 304.027 30.02C303.427 30.02 302.947 30.26 302.587 30.74C302.241 31.2067 302.067 31.86 302.067 32.7C302.067 33.5267 302.241 34.18 302.587 34.66C302.947 35.14 303.427 35.38 304.027 35.38ZM312.887 43.12C312.247 43.12 311.681 42.96 311.187 42.64C310.694 42.32 310.314 41.8733 310.047 41.3C309.781 40.7267 309.647 40.06 309.647 39.3C309.647 38.54 309.781 37.8733 310.047 37.3C310.314 36.7267 310.694 36.28 311.187 35.96C311.681 35.64 312.247 35.48 312.887 35.48C313.541 35.48 314.107 35.64 314.587 35.96C315.081 36.28 315.461 36.7267 315.727 37.3C316.007 37.8733 316.147 38.54 316.147 39.3C316.147 40.06 316.007 40.7267 315.727 41.3C315.461 41.8733 315.081 42.32 314.587 42.64C314.107 42.96 313.541 43.12 312.887 43.12ZM312.887 41.98C313.487 41.98 313.961 41.7467 314.307 41.28C314.667 40.8 314.847 40.14 314.847 39.3C314.847 38.4733 314.667 37.82 314.307 37.34C313.961 36.86 313.487 36.62 312.887 36.62C312.287 36.62 311.807 36.86 311.447 37.34C311.101 37.8067 310.927 38.46 310.927 39.3C310.927 40.14 311.101 40.8 311.447 41.28C311.807 41.7467 312.287 41.98 312.887 41.98Z" fill="white"/>
<path d="M165.298 92.084C164.57 92.084 163.87 91.9673 163.198 91.734C162.535 91.4913 162.022 91.1833 161.658 90.81L162.064 90.012C162.409 90.348 162.871 90.6327 163.45 90.866C164.038 91.09 164.654 91.202 165.298 91.202C165.914 91.202 166.413 91.1273 166.796 90.978C167.188 90.8193 167.473 90.6093 167.65 90.348C167.837 90.0867 167.93 89.7973 167.93 89.48C167.93 89.0973 167.818 88.7893 167.594 88.556C167.379 88.3227 167.095 88.1407 166.74 88.01C166.385 87.87 165.993 87.7487 165.564 87.646C165.135 87.5433 164.705 87.436 164.276 87.324C163.847 87.2027 163.45 87.044 163.086 86.848C162.731 86.652 162.442 86.3953 162.218 86.078C162.003 85.7513 161.896 85.3267 161.896 84.804C161.896 84.3187 162.022 83.8753 162.274 83.474C162.535 83.0633 162.932 82.7367 163.464 82.494C163.996 82.242 164.677 82.116 165.508 82.116C166.059 82.116 166.605 82.1953 167.146 82.354C167.687 82.5033 168.154 82.7133 168.546 82.984L168.196 83.81C167.776 83.53 167.328 83.3247 166.852 83.194C166.385 83.0633 165.933 82.998 165.494 82.998C164.906 82.998 164.421 83.0773 164.038 83.236C163.655 83.3947 163.371 83.6093 163.184 83.88C163.007 84.1413 162.918 84.44 162.918 84.776C162.918 85.1587 163.025 85.4667 163.24 85.7C163.464 85.9333 163.753 86.1153 164.108 86.246C164.472 86.3767 164.869 86.4933 165.298 86.596C165.727 86.6987 166.152 86.8107 166.572 86.932C167.001 87.0533 167.393 87.212 167.748 87.408C168.112 87.5947 168.401 87.8467 168.616 88.164C168.84 88.4813 168.952 88.8967 168.952 89.41C168.952 89.886 168.821 90.3293 168.56 90.74C168.299 91.1413 167.897 91.468 167.356 91.72C166.824 91.9627 166.138 92.084 165.298 92.084ZM173.323 92.07C172.633 92.07 172.101 91.8833 171.727 91.51C171.354 91.1367 171.167 90.6093 171.167 89.928V83.026H172.161V89.872C172.161 90.3013 172.269 90.6327 172.483 90.866C172.707 91.0993 173.025 91.216 173.435 91.216C173.874 91.216 174.238 91.09 174.527 90.838L174.877 91.552C174.681 91.7293 174.443 91.86 174.163 91.944C173.893 92.028 173.613 92.07 173.323 92.07ZM169.851 85.476V84.65H174.401V85.476H169.851ZM181.293 92V90.376L181.251 90.11V87.394C181.251 86.7687 181.073 86.288 180.719 85.952C180.373 85.616 179.855 85.448 179.165 85.448C178.689 85.448 178.236 85.5273 177.807 85.686C177.377 85.8447 177.013 86.0547 176.715 86.316L176.267 85.574C176.64 85.2567 177.088 85.014 177.611 84.846C178.133 84.6687 178.684 84.58 179.263 84.58C180.215 84.58 180.947 84.818 181.461 85.294C181.983 85.7607 182.245 86.4747 182.245 87.436V92H181.293ZM178.759 92.07C178.208 92.07 177.727 91.9813 177.317 91.804C176.915 91.6173 176.607 91.3653 176.393 91.048C176.178 90.7213 176.071 90.348 176.071 89.928C176.071 89.5453 176.159 89.2 176.337 88.892C176.523 88.5747 176.822 88.3227 177.233 88.136C177.653 87.94 178.213 87.842 178.913 87.842H181.447V88.584H178.941C178.231 88.584 177.737 88.71 177.457 88.962C177.186 89.214 177.051 89.5267 177.051 89.9C177.051 90.32 177.214 90.656 177.541 90.908C177.867 91.16 178.325 91.286 178.913 91.286C179.473 91.286 179.953 91.16 180.355 90.908C180.765 90.6467 181.064 90.2733 181.251 89.788L181.475 90.474C181.288 90.9593 180.961 91.3467 180.495 91.636C180.037 91.9253 179.459 92.07 178.759 92.07ZM184.945 92V84.65H185.897V86.652L185.799 86.302C186.004 85.742 186.349 85.3173 186.835 85.028C187.32 84.7293 187.922 84.58 188.641 84.58V85.546C188.603 85.546 188.566 85.546 188.529 85.546C188.491 85.5367 188.454 85.532 188.417 85.532C187.642 85.532 187.035 85.77 186.597 86.246C186.158 86.7127 185.939 87.38 185.939 88.248V92H184.945ZM193.093 92.07C192.402 92.07 191.87 91.8833 191.497 91.51C191.123 91.1367 190.937 90.6093 190.937 89.928V83.026H191.931V89.872C191.931 90.3013 192.038 90.6327 192.253 90.866C192.477 91.0993 192.794 91.216 193.205 91.216C193.643 91.216 194.007 91.09 194.297 90.838L194.647 91.552C194.451 91.7293 194.213 91.86 193.933 91.944C193.662 92.028 193.382 92.07 193.093 92.07ZM189.621 85.476V84.65H194.171V85.476H189.621Z" fill="white"/>
<defs>
<filter id="filter0_d_452_379" x="0" y="0" width="357" height="130.985" filterUnits="userSpaceOnUse" color-interpolation-filters="sRGB">
<feFlood flood-opacity="0" result="BackgroundImageFix"/>
<feColorMatrix in="SourceAlpha" type="matrix" values="0 0 0 0 0 0 0 0 0 0 0 0 0 0 0 0 0 0 127 0" result="hardAlpha"/>
<feOffset dy="4"/>
<feGaussianBlur stdDeviation="2"/>
<feComposite in2="hardAlpha" operator="out"/>
<feColorMatrix type="matrix" values="0 0 0 0 0 0 0 0 0 0 0 0 0 0 0 0 0 0 0.25 0"/>
<feBlend mode="normal" in2="BackgroundImageFix" result="effect1_dropShadow_452_379"/>
<feBlend mode="normal" in="SourceGraphic" in2="effect1_dropShadow_452_379" result="shape"/>
</filter>
<filter id="filter1_b_452_379" x="219" y="25" width="122" height="122" filterUnits="userSpaceOnUse" color-interpolation-filters="sRGB">
<feFlood flood-opacity="0" result="BackgroundImageFix"/>
<feGaussianBlur in="BackgroundImageFix" stdDeviation="23.5"/>
<feComposite in2="SourceAlpha" operator="in" result="effect1_backgroundBlur_452_379"/>
<feBlend mode="normal" in="SourceGraphic" in2="effect1_backgroundBlur_452_379" result="shape"/>
</filter>
<filter id="filter2_b_452_379" x="252" y="25" width="122" height="122" filterUnits="userSpaceOnUse" color-interpolation-filters="sRGB">
<feFlood flood-opacity="0" result="BackgroundImageFix"/>
<feGaussianBlur in="BackgroundImageFix" stdDeviation="23.5"/>
<feComposite in2="SourceAlpha" operator="in" result="effect1_backgroundBlur_452_379"/>
<feBlend mode="normal" in="SourceGraphic" in2="effect1_backgroundBlur_452_379" result="shape"/>
</filter>
</defs>
</svg>
