<svg width="429" height="109" viewBox="0 0 429 109" fill="none" xmlns="http://www.w3.org/2000/svg">
<rect width="430" height="109" rx="8" fill="white"/>
<path d="M65.008 34.192C64.112 34.192 63.2533 34.0747 62.432 33.84C61.6107 33.5947 60.9493 33.28 60.448 32.896L61.328 30.944C61.808 31.2853 62.3733 31.568 63.024 31.792C63.6853 32.0053 64.352 32.112 65.024 32.112C65.536 32.112 65.9467 32.064 66.256 31.968C66.576 31.8613 66.8107 31.7173 66.96 31.536C67.1093 31.3547 67.184 31.1467 67.184 30.912C67.184 30.6133 67.0667 30.3787 66.832 30.208C66.5973 30.0267 66.288 29.8827 65.904 29.776C65.52 29.6587 65.0933 29.552 64.624 29.456C64.1653 29.3493 63.7013 29.2213 63.232 29.072C62.7733 28.9227 62.352 28.7307 61.968 28.496C61.584 28.2613 61.2693 27.952 61.024 27.568C60.7893 27.184 60.672 26.6933 60.672 26.096C60.672 25.456 60.8427 24.8747 61.184 24.352C61.536 23.8187 62.0587 23.3973 62.752 23.088C63.456 22.768 64.336 22.608 65.392 22.608C66.096 22.608 66.7893 22.6933 67.472 22.864C68.1547 23.024 68.7573 23.2693 69.28 23.6L68.48 25.568C67.9573 25.2693 67.4347 25.0507 66.912 24.912C66.3893 24.7627 65.8773 24.688 65.376 24.688C64.8747 24.688 64.464 24.7467 64.144 24.864C63.824 24.9813 63.5947 25.136 63.456 25.328C63.3173 25.5093 63.248 25.7227 63.248 25.968C63.248 26.256 63.3653 26.4907 63.6 26.672C63.8347 26.8427 64.144 26.9813 64.528 27.088C64.912 27.1947 65.3333 27.3013 65.792 27.408C66.2613 27.5147 66.7253 27.6373 67.184 27.776C67.6533 27.9147 68.08 28.1013 68.464 28.336C68.848 28.5707 69.1573 28.88 69.392 29.264C69.6373 29.648 69.76 30.1333 69.76 30.72C69.76 31.3493 69.584 31.9253 69.232 32.448C68.88 32.9707 68.352 33.392 67.648 33.712C66.9547 34.032 66.0747 34.192 65.008 34.192ZM74.9871 34.128C74.2725 34.128 73.6325 33.9893 73.0671 33.712C72.5125 33.4347 72.0805 33.0133 71.7711 32.448C71.4618 31.872 71.3071 31.1413 71.3071 30.256V25.392H73.8031V29.888C73.8031 30.6027 73.9525 31.1307 74.2511 31.472C74.5605 31.8027 74.9925 31.968 75.5471 31.968C75.9311 31.968 76.2725 31.888 76.5711 31.728C76.8698 31.5573 77.1045 31.3013 77.2751 30.96C77.4458 30.608 77.5311 30.1707 77.5311 29.648V25.392H80.0271V34H77.6591V31.632L78.0911 32.32C77.8031 32.9173 77.3765 33.3707 76.8111 33.68C76.2565 33.9787 75.6485 34.128 74.9871 34.128ZM83.4275 37.232C82.9795 37.232 82.5368 37.1627 82.0995 37.024C81.6622 36.8853 81.3048 36.6933 81.0275 36.448L81.9395 34.672C82.1315 34.8427 82.3502 34.976 82.5955 35.072C82.8515 35.168 83.1022 35.216 83.3475 35.216C83.6995 35.216 83.9768 35.1307 84.1795 34.96C84.3928 34.8 84.5848 34.528 84.7555 34.144L85.2035 33.088L85.3955 32.816L88.4835 25.392H90.8835L86.9955 34.528C86.7182 35.2213 86.3982 35.7653 86.0355 36.16C85.6835 36.5547 85.2888 36.832 84.8515 36.992C84.4248 37.152 83.9502 37.232 83.4275 37.232ZM84.8995 34.336L81.0595 25.392H83.6355L86.6115 32.592L84.8995 34.336ZM96.9008 34V32.32L96.7408 31.952V28.944C96.7408 28.4107 96.5754 27.9947 96.2448 27.696C95.9248 27.3973 95.4288 27.248 94.7568 27.248C94.2981 27.248 93.8448 27.3227 93.3968 27.472C92.9594 27.6107 92.5861 27.8027 92.2768 28.048L91.3808 26.304C91.8501 25.9733 92.4154 25.7173 93.0768 25.536C93.7381 25.3547 94.4101 25.264 95.0928 25.264C96.4048 25.264 97.4234 25.5733 98.1488 26.192C98.8741 26.8107 99.2368 27.776 99.2368 29.088V34H96.9008ZM94.2768 34.128C93.6048 34.128 93.0288 34.016 92.5488 33.792C92.0688 33.5573 91.7008 33.2427 91.4448 32.848C91.1888 32.4533 91.0608 32.0107 91.0608 31.52C91.0608 31.008 91.1834 30.56 91.4288 30.176C91.6848 29.792 92.0848 29.4933 92.6288 29.28C93.1728 29.056 93.8821 28.944 94.7568 28.944H97.0448V30.4H95.0288C94.4421 30.4 94.0368 30.496 93.8128 30.688C93.5994 30.88 93.4928 31.12 93.4928 31.408C93.4928 31.728 93.6154 31.984 93.8608 32.176C94.1168 32.3573 94.4634 32.448 94.9008 32.448C95.3168 32.448 95.6901 32.352 96.0208 32.16C96.3514 31.9573 96.5914 31.664 96.7408 31.28L97.1248 32.432C96.9434 32.9867 96.6128 33.408 96.1328 33.696C95.6528 33.984 95.0341 34.128 94.2768 34.128ZM109.691 34.128C108.88 34.128 108.15 33.9467 107.499 33.584C106.848 33.2213 106.331 32.7093 105.947 32.048C105.574 31.3867 105.387 30.6027 105.387 29.696C105.387 28.8 105.574 28.0213 105.947 27.36C106.331 26.6987 106.848 26.1867 107.499 25.824C108.15 25.4507 108.88 25.264 109.691 25.264C110.448 25.264 111.094 25.424 111.627 25.744C112.171 26.064 112.587 26.5493 112.875 27.2C113.163 27.8507 113.307 28.6827 113.307 29.696C113.307 30.6987 113.158 31.5307 112.859 32.192C112.56 32.8427 112.139 33.328 111.595 33.648C111.051 33.968 110.416 34.128 109.691 34.128ZM110.123 32.08C110.528 32.08 110.896 31.984 111.227 31.792C111.558 31.6 111.819 31.328 112.011 30.976C112.214 30.6133 112.315 30.1867 112.315 29.696C112.315 29.1947 112.214 28.768 112.011 28.416C111.819 28.064 111.558 27.792 111.227 27.6C110.896 27.408 110.528 27.312 110.123 27.312C109.707 27.312 109.334 27.408 109.003 27.6C108.672 27.792 108.406 28.064 108.203 28.416C108.011 28.768 107.915 29.1947 107.915 29.696C107.915 30.1867 108.011 30.6133 108.203 30.976C108.406 31.328 108.672 31.6 109.003 31.792C109.334 31.984 109.707 32.08 110.123 32.08ZM112.267 37.104V32.256L112.427 29.712L112.379 27.152V25.392H114.763V37.104H112.267ZM120.61 25.264C121.602 25.264 122.461 25.456 123.186 25.84C123.922 26.224 124.493 26.7467 124.898 27.408C125.303 28.0693 125.506 28.832 125.506 29.696C125.506 30.56 125.303 31.328 124.898 32C124.503 32.6613 123.959 33.184 123.266 33.568C122.583 33.9413 121.799 34.128 120.914 34.128C120.071 34.128 119.309 33.952 118.626 33.6C117.954 33.2373 117.421 32.72 117.026 32.048C116.631 31.376 116.434 30.5813 116.434 29.664C116.434 29.568 116.439 29.4613 116.45 29.344C116.461 29.216 116.471 29.0987 116.482 28.992H123.474V30.448H117.794L118.77 30.016C118.77 30.4533 118.861 30.8427 119.042 31.184C119.223 31.5147 119.474 31.776 119.794 31.968C120.114 32.1493 120.487 32.24 120.914 32.24C121.341 32.24 121.714 32.1493 122.034 31.968C122.365 31.776 122.615 31.5093 122.786 31.168C122.967 30.8267 123.058 30.432 123.058 29.984V29.6C123.058 29.12 122.951 28.704 122.738 28.352C122.535 28 122.242 27.7333 121.858 27.552C121.485 27.36 121.042 27.264 120.53 27.264C120.082 27.264 119.682 27.3333 119.33 27.472C118.989 27.6107 118.669 27.8187 118.37 28.096L117.042 26.656C117.437 26.1973 117.933 25.8507 118.53 25.616C119.138 25.3813 119.831 25.264 120.61 25.264ZM132.4 25.264C133.082 25.264 133.69 25.4027 134.224 25.68C134.768 25.9467 135.194 26.3627 135.504 26.928C135.813 27.4827 135.968 28.1973 135.968 29.072V34H133.472V29.456C133.472 28.7627 133.317 28.2507 133.008 27.92C132.709 27.5893 132.282 27.424 131.728 27.424C131.333 27.424 130.976 27.5093 130.656 27.68C130.346 27.84 130.101 28.0907 129.92 28.432C129.749 28.7733 129.664 29.2107 129.664 29.744V34H127.168V25.392H129.552V27.776L129.104 27.056C129.413 26.48 129.856 26.0373 130.432 25.728C131.008 25.4187 131.664 25.264 132.4 25.264ZM143.51 34V32.32L143.35 31.952V28.944C143.35 28.4107 143.185 27.9947 142.854 27.696C142.534 27.3973 142.038 27.248 141.366 27.248C140.907 27.248 140.454 27.3227 140.006 27.472C139.569 27.6107 139.195 27.8027 138.886 28.048L137.99 26.304C138.459 25.9733 139.025 25.7173 139.686 25.536C140.347 25.3547 141.019 25.264 141.702 25.264C143.014 25.264 144.033 25.5733 144.758 26.192C145.483 26.8107 145.846 27.776 145.846 29.088V34H143.51ZM140.886 34.128C140.214 34.128 139.638 34.016 139.158 33.792C138.678 33.5573 138.31 33.2427 138.054 32.848C137.798 32.4533 137.67 32.0107 137.67 31.52C137.67 31.008 137.793 30.56 138.038 30.176C138.294 29.792 138.694 29.4933 139.238 29.28C139.782 29.056 140.491 28.944 141.366 28.944H143.654V30.4H141.638C141.051 30.4 140.646 30.496 140.422 30.688C140.209 30.88 140.102 31.12 140.102 31.408C140.102 31.728 140.225 31.984 140.47 32.176C140.726 32.3573 141.073 32.448 141.51 32.448C141.926 32.448 142.299 32.352 142.63 32.16C142.961 31.9573 143.201 31.664 143.35 31.28L143.734 32.432C143.553 32.9867 143.222 33.408 142.742 33.696C142.262 33.984 141.643 34.128 140.886 34.128ZM151.704 25.264C152.696 25.264 153.554 25.456 154.28 25.84C155.016 26.224 155.586 26.7467 155.992 27.408C156.397 28.0693 156.6 28.832 156.6 29.696C156.6 30.56 156.397 31.328 155.992 32C155.597 32.6613 155.053 33.184 154.36 33.568C153.677 33.9413 152.893 34.128 152.008 34.128C151.165 34.128 150.402 33.952 149.72 33.6C149.048 33.2373 148.514 32.72 148.12 32.048C147.725 31.376 147.528 30.5813 147.528 29.664C147.528 29.568 147.533 29.4613 147.544 29.344C147.554 29.216 147.565 29.0987 147.576 28.992H154.568V30.448H148.888L149.864 30.016C149.864 30.4533 149.954 30.8427 150.136 31.184C150.317 31.5147 150.568 31.776 150.888 31.968C151.208 32.1493 151.581 32.24 152.008 32.24C152.434 32.24 152.808 32.1493 153.128 31.968C153.458 31.776 153.709 31.5093 153.88 31.168C154.061 30.8267 154.152 30.432 154.152 29.984V29.6C154.152 29.12 154.045 28.704 153.832 28.352C153.629 28 153.336 27.7333 152.952 27.552C152.578 27.36 152.136 27.264 151.624 27.264C151.176 27.264 150.776 27.3333 150.424 27.472C150.082 27.6107 149.762 27.8187 149.464 28.096L148.136 26.656C148.53 26.1973 149.026 25.8507 149.624 25.616C150.232 25.3813 150.925 25.264 151.704 25.264ZM161.781 34.128C160.768 34.128 159.979 33.872 159.413 33.36C158.848 32.8373 158.565 32.064 158.565 31.04V23.488H161.061V31.008C161.061 31.3707 161.157 31.6533 161.349 31.856C161.541 32.048 161.803 32.144 162.133 32.144C162.528 32.144 162.864 32.0373 163.141 31.824L163.813 33.584C163.557 33.7653 163.248 33.904 162.885 34C162.533 34.0853 162.165 34.128 161.781 34.128ZM157.237 27.504V25.584H163.205V27.504H157.237Z" fill="#1D2939"/>
<path d="M62.4065 55V45.2H63.2605L67.7405 52.844H67.2925L71.7305 45.2H72.5845V55H71.5905V46.754H71.8285L67.7405 53.754H67.2505L63.1345 46.754H63.4005V55H62.4065ZM78.1296 47.58C78.895 47.58 79.567 47.7433 80.1456 48.07C80.7243 48.3873 81.177 48.826 81.5036 49.386C81.8303 49.946 81.9936 50.59 81.9936 51.318C81.9936 52.046 81.835 52.6947 81.5176 53.264C81.2096 53.824 80.785 54.2673 80.2436 54.594C79.7023 54.9113 79.0863 55.07 78.3956 55.07C77.705 55.07 77.089 54.9113 76.5476 54.594C76.0156 54.2767 75.5956 53.838 75.2876 53.278C74.9796 52.7087 74.8256 52.0553 74.8256 51.318C74.8256 51.2807 74.8256 51.234 74.8256 51.178C74.835 51.122 74.8396 51.0707 74.8396 51.024H81.2376V51.766H75.3716L75.7636 51.472C75.7636 51.9947 75.8756 52.466 76.0996 52.886C76.333 53.2967 76.6456 53.6233 77.0376 53.866C77.4296 54.0993 77.8823 54.216 78.3956 54.216C78.909 54.216 79.3616 54.0993 79.7536 53.866C80.155 53.6233 80.4676 53.292 80.6916 52.872C80.9156 52.452 81.0276 51.976 81.0276 51.444V51.276C81.0276 50.716 80.9016 50.226 80.6496 49.806C80.407 49.386 80.0663 49.0547 79.6276 48.812C79.189 48.5693 78.6803 48.448 78.1016 48.448C77.6443 48.448 77.2243 48.5273 76.8416 48.686C76.459 48.8447 76.1276 49.092 75.8476 49.428L75.2876 48.77C75.6236 48.378 76.0343 48.084 76.5196 47.888C77.0143 47.6827 77.551 47.58 78.1296 47.58ZM84.0169 55V47.65H84.9689V49.652L84.8709 49.302C85.0762 48.742 85.4215 48.3173 85.9069 48.028C86.3922 47.7293 86.9942 47.58 87.7129 47.58V48.546C87.6755 48.546 87.6382 48.546 87.6009 48.546C87.5635 48.5367 87.5262 48.532 87.4889 48.532C86.7142 48.532 86.1075 48.77 85.6689 49.246C85.2302 49.7127 85.0109 50.38 85.0109 51.248V55H84.0169ZM92.3843 55.07C91.6843 55.07 91.0543 54.9113 90.4943 54.594C89.9436 54.2767 89.5096 53.838 89.1923 53.278C88.8749 52.7087 88.7163 52.0553 88.7163 51.318C88.7163 50.5713 88.8749 49.918 89.1923 49.358C89.5096 48.798 89.9436 48.364 90.4943 48.056C91.0543 47.7387 91.6843 47.58 92.3843 47.58C93.0283 47.58 93.6023 47.7247 94.1063 48.014C94.6196 48.3033 95.0256 48.728 95.3243 49.288C95.6323 49.8387 95.7863 50.5153 95.7863 51.318C95.7863 52.1113 95.6369 52.788 95.3383 53.348C95.0396 53.908 94.6336 54.3373 94.1203 54.636C93.6163 54.9253 93.0376 55.07 92.3843 55.07ZM92.4543 54.188C92.9769 54.188 93.4436 54.0713 93.8543 53.838C94.2743 53.5953 94.6009 53.2593 94.8343 52.83C95.0769 52.3913 95.1983 51.8873 95.1983 51.318C95.1983 50.7393 95.0769 50.2353 94.8343 49.806C94.6009 49.3767 94.2743 49.0453 93.8543 48.812C93.4436 48.5693 92.9769 48.448 92.4543 48.448C91.9409 48.448 91.4789 48.5693 91.0683 48.812C90.6576 49.0453 90.3309 49.3767 90.0883 49.806C89.8456 50.2353 89.7243 50.7393 89.7243 51.318C89.7243 51.8873 89.8456 52.3913 90.0883 52.83C90.3309 53.2593 90.6576 53.5953 91.0683 53.838C91.4789 54.0713 91.9409 54.188 92.4543 54.188ZM95.2263 55V52.788L95.3243 51.304L95.1843 49.82V44.612H96.1783V55H95.2263ZM101.509 47.58C102.274 47.58 102.946 47.7433 103.525 48.07C104.103 48.3873 104.556 48.826 104.883 49.386C105.209 49.946 105.373 50.59 105.373 51.318C105.373 52.046 105.214 52.6947 104.897 53.264C104.589 53.824 104.164 54.2673 103.623 54.594C103.081 54.9113 102.465 55.07 101.775 55.07C101.084 55.07 100.468 54.9113 99.9265 54.594C99.3945 54.2767 98.9745 53.838 98.6665 53.278C98.3585 52.7087 98.2045 52.0553 98.2045 51.318C98.2045 51.2807 98.2045 51.234 98.2045 51.178C98.2139 51.122 98.2185 51.0707 98.2185 51.024H104.617V51.766H98.7505L99.1425 51.472C99.1425 51.9947 99.2545 52.466 99.4785 52.886C99.7119 53.2967 100.025 53.6233 100.417 53.866C100.809 54.0993 101.261 54.216 101.775 54.216C102.288 54.216 102.741 54.0993 103.133 53.866C103.534 53.6233 103.847 53.292 104.071 52.872C104.295 52.452 104.407 51.976 104.407 51.444V51.276C104.407 50.716 104.281 50.226 104.029 49.806C103.786 49.386 103.445 49.0547 103.007 48.812C102.568 48.5693 102.059 48.448 101.481 48.448C101.023 48.448 100.603 48.5273 100.221 48.686C99.8379 48.8447 99.5065 49.092 99.2265 49.428L98.6665 48.77C99.0025 48.378 99.4132 48.084 99.8985 47.888C100.393 47.6827 100.93 47.58 101.509 47.58ZM108.18 53.096L108.208 51.822L112.786 47.65H114.004L110.77 50.744L110.21 51.22L108.18 53.096ZM107.396 55V44.612H108.39V55H107.396ZM113.094 55L110.028 51.178L110.672 50.408L114.312 55H113.094ZM120.273 55V53.376L120.231 53.11V50.394C120.231 49.7687 120.054 49.288 119.699 48.952C119.354 48.616 118.836 48.448 118.145 48.448C117.669 48.448 117.217 48.5273 116.787 48.686C116.358 48.8447 115.994 49.0547 115.695 49.316L115.247 48.574C115.621 48.2567 116.069 48.014 116.591 47.846C117.114 47.6687 117.665 47.58 118.243 47.58C119.195 47.58 119.928 47.818 120.441 48.294C120.964 48.7607 121.225 49.4747 121.225 50.436V55H120.273ZM117.739 55.07C117.189 55.07 116.708 54.9813 116.297 54.804C115.896 54.6173 115.588 54.3653 115.373 54.048C115.159 53.7213 115.051 53.348 115.051 52.928C115.051 52.5453 115.14 52.2 115.317 51.892C115.504 51.5747 115.803 51.3227 116.213 51.136C116.633 50.94 117.193 50.842 117.893 50.842H120.427V51.584H117.921C117.212 51.584 116.717 51.71 116.437 51.962C116.167 52.214 116.031 52.5267 116.031 52.9C116.031 53.32 116.195 53.656 116.521 53.908C116.848 54.16 117.305 54.286 117.893 54.286C118.453 54.286 118.934 54.16 119.335 53.908C119.746 53.6467 120.045 53.2733 120.231 52.788L120.455 53.474C120.269 53.9593 119.942 54.3467 119.475 54.636C119.018 54.9253 118.439 55.07 117.739 55.07ZM127.677 47.58C128.274 47.58 128.797 47.6967 129.245 47.93C129.702 48.154 130.057 48.4993 130.309 48.966C130.57 49.4327 130.701 50.0207 130.701 50.73V55H129.707V50.828C129.707 50.0533 129.511 49.47 129.119 49.078C128.736 48.6767 128.195 48.476 127.495 48.476C126.972 48.476 126.515 48.5833 126.123 48.798C125.74 49.0033 125.442 49.3067 125.227 49.708C125.022 50.1 124.919 50.576 124.919 51.136V55H123.925V47.65H124.877V49.666L124.723 49.288C124.956 48.756 125.33 48.3407 125.843 48.042C126.356 47.734 126.968 47.58 127.677 47.58Z" fill="#1D2939"/>
<path d="M63.1909 79.084C62.6403 79.084 62.1223 78.9627 61.6369 78.72C61.1609 78.4773 60.7783 78.132 60.4889 77.684L61.0909 76.984C61.3616 77.376 61.6743 77.6747 62.0289 77.88C62.3836 78.0853 62.7756 78.188 63.2049 78.188C64.4183 78.188 65.0249 77.4693 65.0249 76.032V70.096H61.4409V69.2H66.0469V75.99C66.0469 77.026 65.8043 77.8007 65.3189 78.314C64.8429 78.8273 64.1336 79.084 63.1909 79.084ZM73.5506 79V77.376L73.5086 77.11V74.394C73.5086 73.7687 73.3313 73.288 72.9766 72.952C72.6313 72.616 72.1133 72.448 71.4226 72.448C70.9466 72.448 70.4939 72.5273 70.0646 72.686C69.6353 72.8447 69.2713 73.0547 68.9726 73.316L68.5246 72.574C68.8979 72.2567 69.3459 72.014 69.8686 71.846C70.3913 71.6687 70.9419 71.58 71.5206 71.58C72.4726 71.58 73.2053 71.818 73.7186 72.294C74.2413 72.7607 74.5026 73.4747 74.5026 74.436V79H73.5506ZM71.0166 79.07C70.4659 79.07 69.9853 78.9813 69.5746 78.804C69.1733 78.6173 68.8653 78.3653 68.6506 78.048C68.4359 77.7213 68.3286 77.348 68.3286 76.928C68.3286 76.5453 68.4173 76.2 68.5946 75.892C68.7813 75.5747 69.0799 75.3227 69.4906 75.136C69.9106 74.94 70.4706 74.842 71.1706 74.842H73.7046V75.584H71.1986C70.4893 75.584 69.9946 75.71 69.7146 75.962C69.4439 76.214 69.3086 76.5267 69.3086 76.9C69.3086 77.32 69.4719 77.656 69.7986 77.908C70.1253 78.16 70.5826 78.286 71.1706 78.286C71.7306 78.286 72.2113 78.16 72.6126 77.908C73.0233 77.6467 73.3219 77.2733 73.5086 76.788L73.7326 77.474C73.5459 77.9593 73.2193 78.3467 72.7526 78.636C72.2953 78.9253 71.7166 79.07 71.0166 79.07ZM80.9544 71.58C81.5517 71.58 82.0744 71.6967 82.5224 71.93C82.9797 72.154 83.3344 72.4993 83.5864 72.966C83.8477 73.4327 83.9784 74.0207 83.9784 74.73V79H82.9844V74.828C82.9844 74.0533 82.7884 73.47 82.3964 73.078C82.0137 72.6767 81.4724 72.476 80.7724 72.476C80.2497 72.476 79.7924 72.5833 79.4004 72.798C79.0177 73.0033 78.7191 73.3067 78.5044 73.708C78.2991 74.1 78.1964 74.576 78.1964 75.136V79H77.2024V71.65H78.1544V73.666L78.0004 73.288C78.2337 72.756 78.6071 72.3407 79.1204 72.042C79.6337 71.734 80.2451 71.58 80.9544 71.58ZM89.4874 79V78.286L93.5614 74.296C93.9347 73.932 94.2147 73.6147 94.4014 73.344C94.5881 73.064 94.7141 72.8027 94.7794 72.56C94.8447 72.3173 94.8774 72.0887 94.8774 71.874C94.8774 71.3047 94.6814 70.8567 94.2894 70.53C93.9067 70.2033 93.3374 70.04 92.5814 70.04C92.0027 70.04 91.4894 70.1287 91.0414 70.306C90.6027 70.4833 90.2247 70.7587 89.9074 71.132L89.1934 70.516C89.5761 70.068 90.0661 69.7227 90.6634 69.48C91.2607 69.2373 91.9281 69.116 92.6654 69.116C93.3281 69.116 93.9021 69.2233 94.3874 69.438C94.8727 69.6433 95.2461 69.9467 95.5074 70.348C95.7781 70.7493 95.9134 71.2207 95.9134 71.762C95.9134 72.0793 95.8667 72.392 95.7734 72.7C95.6894 73.008 95.5307 73.3347 95.2974 73.68C95.0734 74.016 94.7421 74.3987 94.3034 74.828L90.5654 78.496L90.2854 78.104H96.3614V79H89.4874ZM101.505 79.084C100.749 79.084 100.077 78.888 99.4891 78.496C98.9011 78.0947 98.4391 77.5253 98.1031 76.788C97.7671 76.0413 97.5991 75.1453 97.5991 74.1C97.5991 73.0547 97.7671 72.1633 98.1031 71.426C98.4391 70.6793 98.9011 70.11 99.4891 69.718C100.077 69.3167 100.749 69.116 101.505 69.116C102.261 69.116 102.933 69.3167 103.521 69.718C104.109 70.11 104.571 70.6793 104.907 71.426C105.252 72.1633 105.425 73.0547 105.425 74.1C105.425 75.1453 105.252 76.0413 104.907 76.788C104.571 77.5253 104.109 78.0947 103.521 78.496C102.933 78.888 102.261 79.084 101.505 79.084ZM101.505 78.16C102.084 78.16 102.588 78.006 103.017 77.698C103.446 77.3807 103.782 76.9233 104.025 76.326C104.268 75.7193 104.389 74.9773 104.389 74.1C104.389 73.2227 104.268 72.4853 104.025 71.888C103.782 71.2813 103.446 70.824 103.017 70.516C102.588 70.1987 102.084 70.04 101.505 70.04C100.945 70.04 100.446 70.1987 100.007 70.516C99.5684 70.824 99.2278 71.2813 98.9851 71.888C98.7424 72.4853 98.6211 73.2227 98.6211 74.1C98.6211 74.9773 98.7424 75.7193 98.9851 76.326C99.2278 76.9233 99.5684 77.3807 100.007 77.698C100.446 78.006 100.945 78.16 101.505 78.16ZM106.687 79V78.286L110.761 74.296C111.134 73.932 111.414 73.6147 111.601 73.344C111.787 73.064 111.913 72.8027 111.979 72.56C112.044 72.3173 112.077 72.0887 112.077 71.874C112.077 71.3047 111.881 70.8567 111.489 70.53C111.106 70.2033 110.537 70.04 109.781 70.04C109.202 70.04 108.689 70.1287 108.241 70.306C107.802 70.4833 107.424 70.7587 107.107 71.132L106.393 70.516C106.775 70.068 107.265 69.7227 107.863 69.48C108.46 69.2373 109.127 69.116 109.865 69.116C110.527 69.116 111.101 69.2233 111.587 69.438C112.072 69.6433 112.445 69.9467 112.707 70.348C112.977 70.7493 113.113 71.2207 113.113 71.762C113.113 72.0793 113.066 72.392 112.973 72.7C112.889 73.008 112.73 73.3347 112.497 73.68C112.273 74.016 111.941 74.3987 111.503 74.828L107.765 78.496L107.485 78.104H113.561V79H106.687ZM117.752 79.084C117.042 79.084 116.37 78.972 115.736 78.748C115.11 78.5147 114.606 78.2067 114.224 77.824L114.714 77.026C115.031 77.3527 115.456 77.6233 115.988 77.838C116.529 78.0527 117.117 78.16 117.752 78.16C118.564 78.16 119.184 77.9827 119.614 77.628C120.052 77.2733 120.272 76.7973 120.272 76.2C120.272 75.6027 120.057 75.1267 119.628 74.772C119.208 74.4173 118.54 74.24 117.626 74.24H116.926V73.498L119.95 69.704L120.09 70.096H114.63V69.2H120.93V69.914L117.906 73.708L117.416 73.386H117.794C118.97 73.386 119.847 73.6473 120.426 74.17C121.014 74.6927 121.308 75.3647 121.308 76.186C121.308 76.7367 121.177 77.2313 120.916 77.67C120.654 78.1087 120.258 78.454 119.726 78.706C119.203 78.958 118.545 79.084 117.752 79.084Z" fill="#667085"/>
<path d="M323.766 30.76C325.06 30.76 326.173 31.0267 327.106 31.56C328.04 32.0933 328.76 32.8733 329.266 33.9C329.773 34.9133 330.026 36.18 330.026 37.7C330.026 39.3133 329.72 40.68 329.106 41.8C328.506 42.92 327.673 43.7733 326.606 44.36C325.54 44.9467 324.3 45.24 322.886 45.24C322.153 45.24 321.446 45.16 320.766 45C320.086 44.84 319.5 44.6 319.006 44.28L320.206 41.9C320.593 42.1667 321.006 42.3533 321.446 42.46C321.886 42.5533 322.346 42.6 322.826 42.6C324.026 42.6 324.98 42.2333 325.686 41.5C326.406 40.7667 326.766 39.68 326.766 38.24C326.766 38 326.76 37.7333 326.746 37.44C326.733 37.1467 326.7 36.8533 326.646 36.56L327.526 37.4C327.3 37.92 326.98 38.36 326.566 38.72C326.153 39.0667 325.673 39.3333 325.126 39.52C324.58 39.6933 323.966 39.78 323.286 39.78C322.393 39.78 321.58 39.6 320.846 39.24C320.126 38.88 319.546 38.3733 319.106 37.72C318.68 37.0667 318.466 36.3 318.466 35.42C318.466 34.46 318.7 33.6333 319.166 32.94C319.646 32.2467 320.286 31.7133 321.086 31.34C321.9 30.9533 322.793 30.76 323.766 30.76ZM323.966 33.18C323.5 33.18 323.093 33.2667 322.746 33.44C322.4 33.6 322.126 33.84 321.926 34.16C321.726 34.4667 321.626 34.8333 321.626 35.26C321.626 35.9 321.84 36.4133 322.266 36.8C322.706 37.1733 323.286 37.36 324.006 37.36C324.473 37.36 324.886 37.2733 325.246 37.1C325.62 36.9133 325.906 36.66 326.106 36.34C326.306 36.02 326.406 35.66 326.406 35.26C326.406 34.86 326.306 34.5067 326.106 34.2C325.92 33.88 325.646 33.6333 325.286 33.46C324.926 33.2733 324.486 33.18 323.966 33.18ZM335.925 45.24C334.952 45.24 333.985 45.1133 333.025 44.86C332.065 44.5933 331.252 44.22 330.585 43.74L331.845 41.26C332.379 41.6467 332.999 41.9533 333.705 42.18C334.412 42.4067 335.125 42.52 335.845 42.52C336.659 42.52 337.299 42.36 337.765 42.04C338.232 41.72 338.465 41.28 338.465 40.72C338.465 40.1867 338.259 39.7667 337.845 39.46C337.432 39.1533 336.765 39 335.845 39H334.365V36.86L338.265 32.44L338.625 33.6H331.285V31H341.085V33.1L337.205 37.52L335.565 36.58H336.505C338.225 36.58 339.525 36.9667 340.405 37.74C341.285 38.5133 341.725 39.5067 341.725 40.72C341.725 41.5067 341.519 42.2467 341.105 42.94C340.692 43.62 340.059 44.1733 339.205 44.6C338.352 45.0267 337.259 45.24 335.925 45.24ZM346.461 42.8L346.541 39L351.561 34.24H355.281L350.461 39.14L348.841 40.46L346.461 42.8ZM343.881 45V30.16H347.001V45H343.881ZM351.901 45L348.261 40.48L350.221 38.06L355.681 45H351.901ZM367.149 45.16C365.882 45.16 364.895 44.84 364.189 44.2C363.482 43.5467 363.129 42.58 363.129 41.3V31.86H366.249V41.26C366.249 41.7133 366.369 42.0667 366.609 42.32C366.849 42.56 367.175 42.68 367.589 42.68C368.082 42.68 368.502 42.5467 368.849 42.28L369.689 44.48C369.369 44.7067 368.982 44.88 368.529 45C368.089 45.1067 367.629 45.16 367.149 45.16ZM361.469 36.88V34.48H368.929V36.88H361.469Z" fill="#1D2939"/>
<path d="M302.187 77.166V71.034H303.363V77.166H302.187ZM299.639 74.66V73.554H305.911V74.66H299.639ZM307.19 79V78.048L311.18 74.198C311.535 73.862 311.796 73.568 311.964 73.316C312.141 73.0547 312.258 72.8167 312.314 72.602C312.379 72.378 312.412 72.1633 312.412 71.958C312.412 71.454 312.235 71.0573 311.88 70.768C311.525 70.4787 311.007 70.334 310.326 70.334C309.803 70.334 309.332 70.4227 308.912 70.6C308.492 70.768 308.128 71.034 307.82 71.398L306.868 70.572C307.241 70.096 307.741 69.732 308.366 69.48C309.001 69.2187 309.696 69.088 310.452 69.088C311.133 69.088 311.726 69.2 312.23 69.424C312.734 69.6387 313.121 69.9513 313.392 70.362C313.672 70.7727 313.812 71.258 313.812 71.818C313.812 72.1353 313.77 72.448 313.686 72.756C313.602 73.064 313.443 73.3907 313.21 73.736C312.977 74.0813 312.641 74.4687 312.202 74.898L308.646 78.328L308.31 77.782H314.232V79H307.19ZM317.035 79V69.76L317.637 70.418H314.823V69.2H318.421V79H317.035ZM324.387 79.112C323.593 79.112 322.907 78.9953 322.329 78.762C321.75 78.5287 321.302 78.1973 320.985 77.768C320.667 77.3293 320.509 76.816 320.509 76.228C320.509 75.6493 320.658 75.1593 320.957 74.758C321.265 74.3473 321.708 74.0393 322.287 73.834C322.865 73.6193 323.565 73.512 324.387 73.512C325.208 73.512 325.908 73.6193 326.487 73.834C327.075 74.0393 327.523 74.3473 327.831 74.758C328.139 75.1687 328.293 75.6587 328.293 76.228C328.293 76.816 328.134 77.3293 327.817 77.768C327.499 78.1973 327.047 78.5287 326.459 78.762C325.871 78.9953 325.18 79.112 324.387 79.112ZM324.387 77.978C325.171 77.978 325.782 77.8193 326.221 77.502C326.669 77.1753 326.893 76.7367 326.893 76.186C326.893 75.6447 326.669 75.22 326.221 74.912C325.782 74.5947 325.171 74.436 324.387 74.436C323.612 74.436 323.005 74.5947 322.567 74.912C322.128 75.22 321.909 75.6447 321.909 76.186C321.909 76.7367 322.128 77.1753 322.567 77.502C323.005 77.8193 323.612 77.978 324.387 77.978ZM324.387 74.268C323.64 74.268 323.005 74.17 322.483 73.974C321.96 73.7687 321.559 73.4793 321.279 73.106C320.999 72.7233 320.859 72.2707 320.859 71.748C320.859 71.1973 321.003 70.726 321.293 70.334C321.591 69.9327 322.007 69.6247 322.539 69.41C323.071 69.1953 323.687 69.088 324.387 69.088C325.096 69.088 325.717 69.1953 326.249 69.41C326.781 69.6247 327.196 69.9327 327.495 70.334C327.793 70.726 327.943 71.1973 327.943 71.748C327.943 72.2707 327.803 72.7233 327.523 73.106C327.243 73.4793 326.837 73.7687 326.305 73.974C325.773 74.17 325.133 74.268 324.387 74.268ZM324.387 73.372C325.068 73.372 325.6 73.232 325.983 72.952C326.375 72.672 326.571 72.2893 326.571 71.804C326.571 71.3093 326.37 70.922 325.969 70.642C325.567 70.362 325.04 70.222 324.387 70.222C323.733 70.222 323.211 70.362 322.819 70.642C322.436 70.922 322.245 71.3093 322.245 71.804C322.245 72.2893 322.431 72.672 322.805 72.952C323.187 73.232 323.715 73.372 324.387 73.372ZM330.782 79L337.474 69.2H338.552L331.86 79H330.782ZM331.566 74.464C331.118 74.464 330.721 74.352 330.376 74.128C330.03 73.904 329.76 73.5913 329.564 73.19C329.377 72.7887 329.284 72.322 329.284 71.79C329.284 71.258 329.377 70.7913 329.564 70.39C329.76 69.9887 330.03 69.676 330.376 69.452C330.721 69.228 331.118 69.116 331.566 69.116C332.023 69.116 332.42 69.228 332.756 69.452C333.101 69.676 333.367 69.9887 333.554 70.39C333.74 70.7913 333.834 71.258 333.834 71.79C333.834 72.322 333.74 72.7887 333.554 73.19C333.367 73.5913 333.101 73.904 332.756 74.128C332.42 74.352 332.023 74.464 331.566 74.464ZM331.566 73.666C331.995 73.666 332.331 73.5027 332.574 73.176C332.816 72.84 332.938 72.378 332.938 71.79C332.938 71.202 332.816 70.7447 332.574 70.418C332.331 70.082 331.995 69.914 331.566 69.914C331.146 69.914 330.81 70.082 330.558 70.418C330.315 70.7447 330.194 71.202 330.194 71.79C330.194 72.3687 330.315 72.826 330.558 73.162C330.81 73.498 331.146 73.666 331.566 73.666ZM337.768 79.084C337.32 79.084 336.923 78.972 336.578 78.748C336.232 78.524 335.966 78.2113 335.78 77.81C335.593 77.4087 335.5 76.942 335.5 76.41C335.5 75.878 335.593 75.4113 335.78 75.01C335.966 74.6087 336.232 74.296 336.578 74.072C336.923 73.848 337.32 73.736 337.768 73.736C338.225 73.736 338.622 73.848 338.958 74.072C339.303 74.296 339.569 74.6087 339.756 75.01C339.952 75.4113 340.05 75.878 340.05 76.41C340.05 76.942 339.952 77.4087 339.756 77.81C339.569 78.2113 339.303 78.524 338.958 78.748C338.622 78.972 338.225 79.084 337.768 79.084ZM337.768 78.286C338.188 78.286 338.519 78.1227 338.762 77.796C339.014 77.46 339.14 76.998 339.14 76.41C339.14 75.8313 339.014 75.374 338.762 75.038C338.519 74.702 338.188 74.534 337.768 74.534C337.348 74.534 337.012 74.702 336.76 75.038C336.517 75.3647 336.396 75.822 336.396 76.41C336.396 76.998 336.517 77.46 336.76 77.796C337.012 78.1227 337.348 78.286 337.768 78.286ZM348.16 79V75.248L348.482 76.116L344.268 69.2H345.766L349.308 75.038H348.496L352.052 69.2H353.438L349.238 76.116L349.546 75.248V79H348.16ZM357.007 79.084C356.26 79.084 355.597 78.9207 355.019 78.594C354.44 78.2673 353.983 77.8193 353.647 77.25C353.311 76.6713 353.143 76.018 353.143 75.29C353.143 74.5527 353.311 73.8993 353.647 73.33C353.983 72.7607 354.44 72.3173 355.019 72C355.597 71.6733 356.26 71.51 357.007 71.51C357.744 71.51 358.402 71.6733 358.981 72C359.569 72.3173 360.026 72.7607 360.353 73.33C360.689 73.89 360.857 74.5433 360.857 75.29C360.857 76.0273 360.689 76.6807 360.353 77.25C360.026 77.8193 359.569 78.2673 358.981 78.594C358.402 78.9207 357.744 79.084 357.007 79.084ZM357.007 77.908C357.483 77.908 357.907 77.8007 358.281 77.586C358.663 77.3713 358.962 77.068 359.177 76.676C359.391 76.2747 359.499 75.8127 359.499 75.29C359.499 74.758 359.391 74.3007 359.177 73.918C358.962 73.526 358.663 73.2227 358.281 73.008C357.907 72.7933 357.483 72.686 357.007 72.686C356.531 72.686 356.106 72.7933 355.733 73.008C355.359 73.2227 355.061 73.526 354.837 73.918C354.613 74.3007 354.501 74.758 354.501 75.29C354.501 75.8127 354.613 76.2747 354.837 76.676C355.061 77.068 355.359 77.3713 355.733 77.586C356.106 77.8007 356.531 77.908 357.007 77.908ZM364.772 79V75.248L365.094 76.116L360.88 69.2H362.378L365.92 75.038H365.108L368.664 69.2H370.05L365.85 76.116L366.158 75.248V79H364.772Z" fill="#61B458"/>
<rect x="60" y="92" width="310" height="1" fill="#EAECF0"/>
</svg>
