<svg width="405" height="279" viewBox="0 0 405 279" fill="none" xmlns="http://www.w3.org/2000/svg">
<g clip-path="url(#clip0_436_5747)">
<g filter="url(#filter0_d_436_5747)">
<rect width="405" height="279" rx="5" fill="white"/>
</g>
<path d="M55.4463 226H380.893" stroke="#E1E3E8" stroke-dasharray="2"/>
<path d="M55.4463 195H380.893" stroke="#E1E3E8" stroke-dasharray="2"/>
<path d="M55.4463 163H380.893" stroke="#E1E3E8" stroke-dasharray="2"/>
<path d="M55.4463 131H380.893" stroke="#E1E3E8" stroke-dasharray="2"/>
<path d="M55.4463 99H380.893" stroke="#E1E3E8" stroke-dasharray="2"/>
<path d="M55.4463 68H380.893" stroke="#E1E3E8" stroke-dasharray="2"/>
<path d="M26.4059 230.108C25.8459 230.108 25.3139 230.024 24.8099 229.856C24.3059 229.68 23.8819 229.428 23.5379 229.1L23.8979 228.32C24.2899 228.64 24.6859 228.872 25.0859 229.016C25.4859 229.16 25.9179 229.232 26.3819 229.232C26.9899 229.232 27.4539 229.1 27.7739 228.836C28.1019 228.564 28.2659 228.168 28.2659 227.648C28.2659 227.152 28.1019 226.776 27.7739 226.52C27.4459 226.264 26.9699 226.136 26.3459 226.136H25.0979V225.284H26.2619C26.8059 225.284 27.2339 225.144 27.5459 224.864C27.8659 224.576 28.0259 224.184 28.0259 223.688C28.0259 223.248 27.8779 222.908 27.5819 222.668C27.2939 222.428 26.8819 222.308 26.3459 222.308C25.4659 222.308 24.6979 222.628 24.0419 223.268L23.6819 222.5C23.9939 222.164 24.3899 221.904 24.8699 221.72C25.3579 221.528 25.8699 221.432 26.4059 221.432C27.2219 221.432 27.8579 221.624 28.3139 222.008C28.7779 222.392 29.0099 222.924 29.0099 223.604C29.0099 224.076 28.8899 224.492 28.6499 224.852C28.4099 225.204 28.0779 225.46 27.6539 225.62C28.1579 225.756 28.5499 226.008 28.8299 226.376C29.1099 226.736 29.2499 227.184 29.2499 227.72C29.2499 228.448 28.9939 229.028 28.4819 229.46C27.9779 229.892 27.2859 230.108 26.4059 230.108ZM33.8815 230.108C32.9135 230.108 32.1775 229.736 31.6735 228.992C31.1695 228.248 30.9175 227.172 30.9175 225.764C30.9175 224.348 31.1695 223.272 31.6735 222.536C32.1775 221.8 32.9135 221.432 33.8815 221.432C34.8575 221.432 35.5935 221.8 36.0895 222.536C36.5935 223.264 36.8455 224.336 36.8455 225.752C36.8455 227.168 36.5895 228.248 36.0775 228.992C35.5735 229.736 34.8415 230.108 33.8815 230.108ZM33.8815 229.256C34.5535 229.256 35.0495 228.972 35.3695 228.404C35.6975 227.836 35.8615 226.952 35.8615 225.752C35.8615 224.552 35.7015 223.676 35.3815 223.124C35.0615 222.564 34.5615 222.284 33.8815 222.284C33.2095 222.284 32.7095 222.564 32.3815 223.124C32.0615 223.684 31.9015 224.56 31.9015 225.752C31.9015 226.952 32.0615 227.836 32.3815 228.404C32.7095 228.972 33.2095 229.256 33.8815 229.256Z" fill="#848A9C"/>
<path d="M28.6314 198V196.188H24.7314V195.444L28.7994 189.54H29.6274V195.348H30.8874V196.188H29.6274V198H28.6314ZM28.6314 195.348V191.16L25.7514 195.348H28.6314ZM35.0871 198.108C34.1191 198.108 33.3831 197.736 32.8791 196.992C32.3751 196.248 32.1231 195.172 32.1231 193.764C32.1231 192.348 32.3751 191.272 32.8791 190.536C33.3831 189.8 34.1191 189.432 35.0871 189.432C36.0631 189.432 36.7991 189.8 37.2951 190.536C37.7991 191.264 38.0511 192.336 38.0511 193.752C38.0511 195.168 37.7951 196.248 37.2831 196.992C36.7791 197.736 36.0471 198.108 35.0871 198.108ZM35.0871 197.256C35.7591 197.256 36.2551 196.972 36.5751 196.404C36.9031 195.836 37.0671 194.952 37.0671 193.752C37.0671 192.552 36.9071 191.676 36.5871 191.124C36.2671 190.564 35.7671 190.284 35.0871 190.284C34.4151 190.284 33.9151 190.564 33.5871 191.124C33.2671 191.684 33.1071 192.56 33.1071 193.752C33.1071 194.952 33.2671 195.836 33.5871 196.404C33.9151 196.972 34.4151 197.256 35.0871 197.256Z" fill="#848A9C"/>
<path d="M26.7899 166.108C25.7899 166.108 25.0179 165.748 24.4739 165.028C23.9379 164.3 23.6699 163.284 23.6699 161.98C23.6699 160.516 23.9699 159.392 24.5699 158.608C25.1699 157.824 26.0099 157.432 27.0899 157.432C27.5219 157.432 27.9539 157.524 28.3859 157.708C28.8259 157.892 29.1859 158.14 29.4659 158.452L29.1059 159.22C28.8099 158.916 28.4859 158.688 28.1339 158.536C27.7899 158.384 27.4339 158.308 27.0659 158.308C26.2819 158.308 25.6779 158.6 25.2539 159.184C24.8379 159.768 24.6299 160.636 24.6299 161.788V162.376C24.7819 161.848 25.0619 161.436 25.4699 161.14C25.8859 160.844 26.3739 160.696 26.9339 160.696C27.4299 160.696 27.8699 160.812 28.2539 161.044C28.6379 161.268 28.9379 161.58 29.1539 161.98C29.3699 162.38 29.4779 162.84 29.4779 163.36C29.4779 163.896 29.3619 164.372 29.1299 164.788C28.9059 165.196 28.5899 165.52 28.1819 165.76C27.7819 165.992 27.3179 166.108 26.7899 166.108ZM26.7299 165.268C27.2659 165.268 27.6979 165.096 28.0259 164.752C28.3619 164.408 28.5299 163.956 28.5299 163.396C28.5299 162.844 28.3619 162.396 28.0259 162.052C27.6979 161.7 27.2659 161.524 26.7299 161.524C26.1939 161.524 25.7579 161.7 25.4219 162.052C25.0939 162.396 24.9299 162.844 24.9299 163.396C24.9299 163.956 25.0939 164.408 25.4219 164.752C25.7579 165.096 26.1939 165.268 26.7299 165.268ZM33.8815 166.108C32.9135 166.108 32.1775 165.736 31.6735 164.992C31.1695 164.248 30.9175 163.172 30.9175 161.764C30.9175 160.348 31.1695 159.272 31.6735 158.536C32.1775 157.8 32.9135 157.432 33.8815 157.432C34.8575 157.432 35.5935 157.8 36.0895 158.536C36.5935 159.264 36.8455 160.336 36.8455 161.752C36.8455 163.168 36.5895 164.248 36.0775 164.992C35.5735 165.736 34.8415 166.108 33.8815 166.108ZM33.8815 165.256C34.5535 165.256 35.0495 164.972 35.3695 164.404C35.6975 163.836 35.8615 162.952 35.8615 161.752C35.8615 160.552 35.7015 159.676 35.3815 159.124C35.0615 158.564 34.5615 158.284 33.8815 158.284C33.2095 158.284 32.7095 158.564 32.3815 159.124C32.0615 159.684 31.9015 160.56 31.9015 161.752C31.9015 162.952 32.0615 163.836 32.3815 164.404C32.7095 164.972 33.2095 165.256 33.8815 165.256Z" fill="#848A9C"/>
<path d="M26.5019 135.108C25.5499 135.108 24.8099 134.904 24.2819 134.496C23.7539 134.08 23.4899 133.5 23.4899 132.756C23.4899 132.236 23.6299 131.792 23.9099 131.424C24.1979 131.056 24.5779 130.804 25.0499 130.668C24.6259 130.508 24.2939 130.252 24.0539 129.9C23.8139 129.548 23.6939 129.144 23.6939 128.688C23.6939 127.976 23.9459 127.424 24.4499 127.032C24.9619 126.632 25.6459 126.432 26.5019 126.432C27.3579 126.432 28.0419 126.632 28.5539 127.032C29.0659 127.424 29.3219 127.976 29.3219 128.688C29.3219 129.144 29.1979 129.552 28.9499 129.912C28.7099 130.264 28.3819 130.516 27.9659 130.668C28.4379 130.804 28.8139 131.056 29.0939 131.424C29.3739 131.792 29.5139 132.236 29.5139 132.756C29.5139 133.5 29.2499 134.08 28.7219 134.496C28.1939 134.904 27.4539 135.108 26.5019 135.108ZM26.5019 130.308C27.0859 130.308 27.5419 130.172 27.8699 129.9C28.2059 129.62 28.3739 129.244 28.3739 128.772C28.3739 128.292 28.2059 127.92 27.8699 127.656C27.5419 127.384 27.0859 127.248 26.5019 127.248C25.9179 127.248 25.4619 127.384 25.1339 127.656C24.8059 127.92 24.6419 128.292 24.6419 128.772C24.6419 129.244 24.8059 129.62 25.1339 129.9C25.4619 130.172 25.9179 130.308 26.5019 130.308ZM26.5019 134.292C27.8779 134.292 28.5659 133.76 28.5659 132.696C28.5659 131.648 27.8779 131.124 26.5019 131.124C25.1259 131.124 24.4379 131.648 24.4379 132.696C24.4379 133.76 25.1259 134.292 26.5019 134.292ZM33.8815 135.108C32.9135 135.108 32.1775 134.736 31.6735 133.992C31.1695 133.248 30.9175 132.172 30.9175 130.764C30.9175 129.348 31.1695 128.272 31.6735 127.536C32.1775 126.8 32.9135 126.432 33.8815 126.432C34.8575 126.432 35.5935 126.8 36.0895 127.536C36.5935 128.264 36.8455 129.336 36.8455 130.752C36.8455 132.168 36.5895 133.248 36.0775 133.992C35.5735 134.736 34.8415 135.108 33.8815 135.108ZM33.8815 134.256C34.5535 134.256 35.0495 133.972 35.3695 133.404C35.6975 132.836 35.8615 131.952 35.8615 130.752C35.8615 129.552 35.7015 128.676 35.3815 128.124C35.0615 127.564 34.5615 127.284 33.8815 127.284C33.2095 127.284 32.7095 127.564 32.3815 128.124C32.0615 128.684 31.9015 129.56 31.9015 130.752C31.9015 131.952 32.0615 132.836 32.3815 133.404C32.7095 133.972 33.2095 134.256 33.8815 134.256Z" fill="#848A9C"/>
<path d="M25.9259 103.108C25.4939 103.108 25.0579 103.016 24.6179 102.832C24.1779 102.648 23.8179 102.4 23.5379 102.088L23.9099 101.308C24.1979 101.62 24.5139 101.852 24.8579 102.004C25.2099 102.156 25.5699 102.232 25.9379 102.232C26.7219 102.232 27.3259 101.94 27.7499 101.356C28.1739 100.772 28.3859 99.904 28.3859 98.752V98.152C28.2259 98.68 27.9379 99.096 27.5219 99.4C27.1139 99.696 26.6299 99.844 26.0699 99.844C25.5739 99.844 25.1339 99.732 24.7499 99.508C24.3659 99.276 24.0659 98.96 23.8499 98.56C23.6339 98.16 23.5259 97.7 23.5259 97.18C23.5259 96.644 23.6379 96.172 23.8619 95.764C24.0939 95.348 24.4099 95.024 24.8099 94.792C25.2179 94.552 25.6859 94.432 26.2139 94.432C27.2139 94.432 27.9819 94.796 28.5179 95.524C29.0619 96.244 29.3339 97.256 29.3339 98.56C29.3339 100.016 29.0339 101.14 28.4339 101.932C27.8339 102.716 26.9979 103.108 25.9259 103.108ZM26.2739 99.016C26.8099 99.016 27.2459 98.844 27.5819 98.5C27.9179 98.148 28.0859 97.696 28.0859 97.144C28.0859 96.584 27.9179 96.132 27.5819 95.788C27.2459 95.436 26.8099 95.26 26.2739 95.26C25.7459 95.26 25.3139 95.436 24.9779 95.788C24.6419 96.132 24.4739 96.584 24.4739 97.144C24.4739 97.696 24.6419 98.148 24.9779 98.5C25.3139 98.844 25.7459 99.016 26.2739 99.016ZM33.8815 103.108C32.9135 103.108 32.1775 102.736 31.6735 101.992C31.1695 101.248 30.9175 100.172 30.9175 98.764C30.9175 97.348 31.1695 96.272 31.6735 95.536C32.1775 94.8 32.9135 94.432 33.8815 94.432C34.8575 94.432 35.5935 94.8 36.0895 95.536C36.5935 96.264 36.8455 97.336 36.8455 98.752C36.8455 100.168 36.5895 101.248 36.0775 101.992C35.5735 102.736 34.8415 103.108 33.8815 103.108ZM33.8815 102.256C34.5535 102.256 35.0495 101.972 35.3695 101.404C35.6975 100.836 35.8615 99.952 35.8615 98.752C35.8615 97.552 35.7015 96.676 35.3815 96.124C35.0615 95.564 34.5615 95.284 33.8815 95.284C33.2095 95.284 32.7095 95.564 32.3815 96.124C32.0615 96.684 31.9015 97.56 31.9015 98.752C31.9015 99.952 32.0615 100.836 32.3815 101.404C32.7095 101.972 33.2095 102.256 33.8815 102.256Z" fill="#848A9C"/>
<path d="M24.3899 71V70.16H26.3219V63.728L24.7979 64.688L24.3779 63.956L26.5979 62.54H27.3059V70.16H29.1179V71H24.3899ZM33.8815 71.108C32.9135 71.108 32.1775 70.736 31.6735 69.992C31.1695 69.248 30.9175 68.172 30.9175 66.764C30.9175 65.348 31.1695 64.272 31.6735 63.536C32.1775 62.8 32.9135 62.432 33.8815 62.432C34.8575 62.432 35.5935 62.8 36.0895 63.536C36.5935 64.264 36.8455 65.336 36.8455 66.752C36.8455 68.168 36.5895 69.248 36.0775 69.992C35.5735 70.736 34.8415 71.108 33.8815 71.108ZM33.8815 70.256C34.5535 70.256 35.0495 69.972 35.3695 69.404C35.6975 68.836 35.8615 67.952 35.8615 66.752C35.8615 65.552 35.7015 64.676 35.3815 64.124C35.0615 63.564 34.5615 63.284 33.8815 63.284C33.2095 63.284 32.7095 63.564 32.3815 64.124C32.0615 64.684 31.9015 65.56 31.9015 66.752C31.9015 67.952 32.0615 68.836 32.3815 69.404C32.7095 69.972 33.2095 70.256 33.8815 70.256ZM41.2612 71.108C40.2932 71.108 39.5572 70.736 39.0532 69.992C38.5492 69.248 38.2972 68.172 38.2972 66.764C38.2972 65.348 38.5492 64.272 39.0532 63.536C39.5572 62.8 40.2932 62.432 41.2612 62.432C42.2372 62.432 42.9732 62.8 43.4692 63.536C43.9732 64.264 44.2252 65.336 44.2252 66.752C44.2252 68.168 43.9692 69.248 43.4572 69.992C42.9532 70.736 42.2212 71.108 41.2612 71.108ZM41.2612 70.256C41.9332 70.256 42.4292 69.972 42.7492 69.404C43.0772 68.836 43.2412 67.952 43.2412 66.752C43.2412 65.552 43.0812 64.676 42.7612 64.124C42.4412 63.564 41.9412 63.284 41.2612 63.284C40.5892 63.284 40.0892 63.564 39.7612 64.124C39.4412 64.684 39.2812 65.56 39.2812 66.752C39.2812 67.952 39.4412 68.836 39.7612 69.404C40.0892 69.972 40.5892 70.256 41.2612 70.256Z" fill="#848A9C"/>
<path d="M28.3105 33.162C27.3145 33.162 26.4025 33.036 25.5745 32.784C24.7465 32.52 24.0445 32.154 23.4685 31.686L24.0625 30.21C24.6625 30.666 25.3045 31.008 25.9885 31.236C26.6725 31.464 27.4465 31.578 28.3105 31.578C29.3305 31.578 30.0805 31.398 30.5605 31.038C31.0525 30.666 31.2985 30.186 31.2985 29.598C31.2985 29.118 31.1245 28.74 30.7765 28.464C30.4285 28.176 29.8465 27.948 29.0305 27.78L27.1045 27.384C25.9645 27.144 25.1125 26.748 24.5485 26.196C23.9965 25.644 23.7205 24.9 23.7205 23.964C23.7205 23.208 23.9185 22.542 24.3145 21.966C24.7225 21.39 25.2865 20.946 26.0065 20.634C26.7265 20.31 27.5545 20.148 28.4905 20.148C29.3545 20.148 30.1525 20.28 30.8845 20.544C31.6285 20.796 32.2585 21.168 32.7745 21.66L32.1625 23.082C31.1425 22.182 29.9125 21.732 28.4725 21.732C27.5845 21.732 26.8765 21.93 26.3485 22.326C25.8325 22.722 25.5745 23.25 25.5745 23.91C25.5745 24.414 25.7365 24.816 26.0605 25.116C26.3845 25.416 26.9245 25.644 27.6805 25.8L29.5885 26.196C30.7885 26.448 31.6825 26.838 32.2705 27.366C32.8585 27.882 33.1525 28.584 33.1525 29.472C33.1525 30.216 32.9545 30.864 32.5585 31.416C32.1625 31.968 31.6045 32.4 30.8845 32.712C30.1645 33.012 29.3065 33.162 28.3105 33.162ZM38.4883 33.162C36.3643 33.162 35.3023 31.98 35.3023 29.616V24.216H37.1203V29.634C37.1203 30.342 37.2643 30.864 37.5523 31.2C37.8403 31.536 38.2963 31.704 38.9203 31.704C39.6043 31.704 40.1563 31.476 40.5763 31.02C41.0083 30.564 41.2243 29.952 41.2243 29.184V24.216H43.0423V33H41.2783V31.596C40.9903 32.112 40.6063 32.502 40.1263 32.766C39.6463 33.03 39.1003 33.162 38.4883 33.162ZM57.15 36.24V31.56C56.898 32.052 56.514 32.442 55.998 32.73C55.482 33.018 54.894 33.162 54.234 33.162C53.454 33.162 52.776 32.982 52.2 32.622C51.624 32.25 51.174 31.722 50.85 31.038C50.526 30.354 50.364 29.544 50.364 28.608C50.364 27.672 50.526 26.868 50.85 26.196C51.174 25.512 51.624 24.984 52.2 24.612C52.788 24.24 53.466 24.054 54.234 24.054C54.906 24.054 55.5 24.21 56.016 24.522C56.544 24.822 56.934 25.23 57.186 25.746V24.216H58.968V36.24H57.15ZM54.702 31.758C55.446 31.758 56.046 31.488 56.502 30.948C56.958 30.408 57.186 29.628 57.186 28.608C57.186 27.588 56.958 26.814 56.502 26.286C56.046 25.746 55.446 25.476 54.702 25.476C53.946 25.476 53.34 25.746 52.884 26.286C52.428 26.814 52.2 27.588 52.2 28.608C52.2 29.628 52.428 30.408 52.884 30.948C53.34 31.488 53.946 31.758 54.702 31.758ZM65.2174 33.162C63.9574 33.162 62.9734 32.784 62.2654 32.028C61.5574 31.26 61.2034 30.174 61.2034 28.77V28.212H67.6834C67.6114 27.3 67.3294 26.616 66.8374 26.16C66.3454 25.704 65.6674 25.476 64.8034 25.476C63.7834 25.476 62.8174 25.806 61.9054 26.466L61.3474 25.206C61.7914 24.834 62.3254 24.552 62.9494 24.36C63.5734 24.156 64.2034 24.054 64.8394 24.054C65.7754 24.054 66.5854 24.24 67.2694 24.612C67.9654 24.972 68.4994 25.494 68.8714 26.178C69.2434 26.85 69.4294 27.648 69.4294 28.572C69.4294 29.496 69.2494 30.306 68.8894 31.002C68.5294 31.686 68.0314 32.22 67.3954 32.604C66.7594 32.976 66.0334 33.162 65.2174 33.162ZM65.1814 31.884C65.8654 31.884 66.4294 31.668 66.8734 31.236C67.3174 30.792 67.5814 30.156 67.6654 29.328H62.8234C62.8954 31.032 63.6814 31.884 65.1814 31.884ZM71.7419 33V24.216H73.5059V25.674C73.8059 25.146 74.2139 24.744 74.7299 24.468C75.2579 24.192 75.8459 24.054 76.4939 24.054C78.5699 24.054 79.6079 25.23 79.6079 27.582V33H77.7899V27.69C77.7899 26.934 77.6399 26.382 77.3399 26.034C77.0519 25.686 76.5959 25.512 75.9719 25.512C75.2399 25.512 74.6519 25.746 74.2079 26.214C73.7759 26.67 73.5599 27.276 73.5599 28.032V33H71.7419ZM85.1976 33.162C84.5856 33.162 84.0396 33.042 83.5596 32.802C83.0796 32.562 82.6956 32.238 82.4076 31.83C82.1316 31.422 81.9936 30.96 81.9936 30.444C81.9936 29.796 82.1556 29.286 82.4796 28.914C82.8156 28.542 83.3616 28.272 84.1176 28.104C84.8856 27.936 85.9176 27.852 87.2136 27.852H87.8256V27.384C87.8256 26.7 87.6816 26.208 87.3936 25.908C87.1056 25.608 86.6316 25.458 85.9716 25.458C85.4676 25.458 84.9636 25.536 84.4596 25.692C83.9556 25.836 83.4396 26.07 82.9116 26.394L82.3536 25.116C82.8096 24.792 83.3796 24.534 84.0636 24.342C84.7476 24.15 85.4016 24.054 86.0256 24.054C87.2256 24.054 88.1136 24.342 88.6896 24.918C89.2656 25.482 89.5536 26.37 89.5536 27.582V33H87.8436V31.542C87.6276 32.046 87.2916 32.442 86.8356 32.73C86.3796 33.018 85.8336 33.162 85.1976 33.162ZM85.5576 31.866C86.2056 31.866 86.7456 31.638 87.1776 31.182C87.6096 30.726 87.8256 30.15 87.8256 29.454V28.968H87.2316C86.3556 28.968 85.6656 29.01 85.1616 29.094C84.6696 29.178 84.3156 29.322 84.0996 29.526C83.8956 29.718 83.7936 29.988 83.7936 30.336C83.7936 30.792 83.9496 31.164 84.2616 31.452C84.5736 31.728 85.0056 31.866 85.5576 31.866ZM95.7541 33.162C94.4941 33.162 93.5101 32.784 92.8021 32.028C92.0941 31.26 91.7401 30.174 91.7401 28.77V28.212H98.2201C98.1481 27.3 97.8661 26.616 97.3741 26.16C96.8821 25.704 96.2041 25.476 95.3401 25.476C94.3201 25.476 93.3541 25.806 92.4421 26.466L91.8841 25.206C92.3281 24.834 92.8621 24.552 93.4861 24.36C94.1101 24.156 94.7401 24.054 95.3761 24.054C96.3121 24.054 97.1221 24.24 97.8061 24.612C98.5021 24.972 99.0361 25.494 99.4081 26.178C99.7801 26.85 99.9661 27.648 99.9661 28.572C99.9661 29.496 99.7861 30.306 99.4261 31.002C99.0661 31.686 98.5681 32.22 97.9321 32.604C97.2961 32.976 96.5701 33.162 95.7541 33.162ZM95.7181 31.884C96.4021 31.884 96.9661 31.668 97.4101 31.236C97.8541 30.792 98.1181 30.156 98.2021 29.328H93.3601C93.4321 31.032 94.2181 31.884 95.7181 31.884ZM105.935 33.162C104.831 33.162 104.009 32.88 103.469 32.316C102.929 31.752 102.659 30.936 102.659 29.868V25.62H100.949V24.216H102.659V21.57H104.477V24.216H107.195V25.62H104.477V29.724C104.477 30.36 104.609 30.84 104.873 31.164C105.149 31.488 105.593 31.65 106.205 31.65C106.397 31.65 106.583 31.632 106.763 31.596C106.943 31.548 107.123 31.494 107.303 31.434L107.591 32.802C107.411 32.91 107.159 32.994 106.835 33.054C106.523 33.126 106.223 33.162 105.935 33.162ZM115.529 35.328C114.985 34.44 114.589 33.544 114.341 32.64C114.101 31.728 113.981 30.796 113.981 29.844C113.981 28.892 114.101 27.964 114.341 27.06C114.589 26.148 114.985 25.248 115.529 24.36L116.381 24.696C115.997 25.6 115.717 26.464 115.541 27.288C115.365 28.112 115.277 28.964 115.277 29.844C115.277 30.716 115.365 31.568 115.541 32.4C115.717 33.224 115.997 34.088 116.381 34.992L115.529 35.328ZM118.48 33V31.956H120.4V25.98L118.9 26.916L118.396 25.992L120.76 24.54H121.636V31.956H123.436V33H118.48ZM128.148 33.108C127.164 33.108 126.412 32.736 125.892 31.992C125.38 31.24 125.124 30.164 125.124 28.764C125.124 27.34 125.38 26.264 125.892 25.536C126.412 24.8 127.164 24.432 128.148 24.432C129.14 24.432 129.892 24.8 130.404 25.536C130.916 26.264 131.172 27.336 131.172 28.752C131.172 30.16 130.912 31.24 130.392 31.992C129.88 32.736 129.132 33.108 128.148 33.108ZM128.148 32.076C128.756 32.076 129.208 31.808 129.504 31.272C129.8 30.736 129.948 29.896 129.948 28.752C129.948 27.608 129.8 26.776 129.504 26.256C129.216 25.728 128.764 25.464 128.148 25.464C127.54 25.464 127.088 25.728 126.792 26.256C126.496 26.784 126.348 27.616 126.348 28.752C126.348 29.896 126.496 30.736 126.792 31.272C127.088 31.808 127.54 32.076 128.148 32.076ZM135.62 33.108C134.636 33.108 133.884 32.736 133.364 31.992C132.852 31.24 132.596 30.164 132.596 28.764C132.596 27.34 132.852 26.264 133.364 25.536C133.884 24.8 134.636 24.432 135.62 24.432C136.612 24.432 137.364 24.8 137.876 25.536C138.388 26.264 138.644 27.336 138.644 28.752C138.644 30.16 138.384 31.24 137.864 31.992C137.352 32.736 136.604 33.108 135.62 33.108ZM135.62 32.076C136.228 32.076 136.68 31.808 136.976 31.272C137.272 30.736 137.42 29.896 137.42 28.752C137.42 27.608 137.272 26.776 136.976 26.256C136.688 25.728 136.236 25.464 135.62 25.464C135.012 25.464 134.56 25.728 134.264 26.256C133.968 26.784 133.82 27.616 133.82 28.752C133.82 29.896 133.968 30.736 134.264 31.272C134.56 31.808 135.012 32.076 135.62 32.076ZM143.092 33.108C142.108 33.108 141.356 32.736 140.836 31.992C140.324 31.24 140.068 30.164 140.068 28.764C140.068 27.34 140.324 26.264 140.836 25.536C141.356 24.8 142.108 24.432 143.092 24.432C144.084 24.432 144.836 24.8 145.348 25.536C145.86 26.264 146.116 27.336 146.116 28.752C146.116 30.16 145.856 31.24 145.336 31.992C144.824 32.736 144.076 33.108 143.092 33.108ZM143.092 32.076C143.7 32.076 144.152 31.808 144.448 31.272C144.744 30.736 144.892 29.896 144.892 28.752C144.892 27.608 144.744 26.776 144.448 26.256C144.16 25.728 143.708 25.464 143.092 25.464C142.484 25.464 142.032 25.728 141.736 26.256C141.44 26.784 141.292 27.616 141.292 28.752C141.292 29.896 141.44 30.736 141.736 31.272C142.032 31.808 142.484 32.076 143.092 32.076ZM150.312 33.108C149.576 33.108 149.028 32.92 148.668 32.544C148.308 32.168 148.128 31.624 148.128 30.912V28.08H146.988V27.144H148.128V25.38H149.34V27.144H151.152V28.08H149.34V30.816C149.34 31.24 149.428 31.56 149.604 31.776C149.788 31.992 150.084 32.1 150.492 32.1C150.62 32.1 150.744 32.088 150.864 32.064C150.984 32.032 151.104 31.996 151.224 31.956L151.416 32.868C151.296 32.94 151.128 32.996 150.912 33.036C150.704 33.084 150.504 33.108 150.312 33.108ZM153.856 35.328L153.004 34.992C153.38 34.072 153.656 33.2 153.832 32.376C154.008 31.552 154.096 30.708 154.096 29.844C154.096 28.98 154.008 28.136 153.832 27.312C153.656 26.488 153.38 25.616 153.004 24.696L153.856 24.36C154.4 25.256 154.792 26.16 155.032 27.072C155.28 27.976 155.404 28.9 155.404 29.844C155.404 30.796 155.28 31.728 155.032 32.64C154.792 33.544 154.4 34.44 153.856 35.328Z" fill="#243465"/>
<g clip-path="url(#clip1_436_5747)">
<path d="M98.2119 256V251.992L94.9719 247.54H96.1239L98.7279 251.128L101.32 247.54H102.436L99.1959 252.016V256H98.2119ZM104.295 256.108C103.895 256.108 103.535 256.032 103.215 255.88C102.903 255.72 102.655 255.504 102.471 255.232C102.287 254.96 102.195 254.656 102.195 254.32C102.195 253.896 102.303 253.56 102.519 253.312C102.743 253.064 103.107 252.888 103.611 252.784C104.123 252.672 104.819 252.616 105.699 252.616H106.083V252.244C106.083 251.748 105.979 251.392 105.771 251.176C105.571 250.952 105.247 250.84 104.799 250.84C104.447 250.84 104.107 250.892 103.779 250.996C103.451 251.092 103.115 251.252 102.771 251.476L102.435 250.768C102.739 250.552 103.107 250.38 103.539 250.252C103.979 250.124 104.399 250.06 104.799 250.06C105.551 250.06 106.107 250.244 106.467 250.612C106.835 250.98 107.019 251.552 107.019 252.328V256H106.107V254.992C105.955 255.336 105.719 255.608 105.399 255.808C105.087 256.008 104.719 256.108 104.295 256.108ZM104.451 255.376C104.931 255.376 105.323 255.212 105.627 254.884C105.931 254.548 106.083 254.124 106.083 253.612V253.252H105.711C105.063 253.252 104.551 253.284 104.175 253.348C103.807 253.404 103.547 253.508 103.395 253.66C103.251 253.804 103.179 254.004 103.179 254.26C103.179 254.588 103.291 254.856 103.515 255.064C103.747 255.272 104.059 255.376 104.451 255.376ZM109.006 256V250.168H109.954V251.164C110.146 250.796 110.418 250.52 110.77 250.336C111.122 250.152 111.518 250.06 111.958 250.06C113.342 250.06 114.034 250.828 114.034 252.364V256H113.062V252.424C113.062 251.88 112.954 251.484 112.738 251.236C112.53 250.98 112.194 250.852 111.73 250.852C111.194 250.852 110.766 251.02 110.446 251.356C110.134 251.684 109.978 252.124 109.978 252.676V256H109.006ZM117.668 256L115.16 250.168H116.216L118.148 254.896L120.104 250.168H121.1L118.58 256H117.668ZM124.031 256.108C123.631 256.108 123.271 256.032 122.951 255.88C122.639 255.72 122.391 255.504 122.207 255.232C122.023 254.96 121.931 254.656 121.931 254.32C121.931 253.896 122.039 253.56 122.255 253.312C122.479 253.064 122.843 252.888 123.347 252.784C123.859 252.672 124.555 252.616 125.435 252.616H125.819V252.244C125.819 251.748 125.715 251.392 125.507 251.176C125.307 250.952 124.983 250.84 124.535 250.84C124.183 250.84 123.843 250.892 123.515 250.996C123.187 251.092 122.851 251.252 122.507 251.476L122.171 250.768C122.475 250.552 122.843 250.38 123.275 250.252C123.715 250.124 124.135 250.06 124.535 250.06C125.287 250.06 125.843 250.244 126.203 250.612C126.571 250.98 126.755 251.552 126.755 252.328V256H125.843V254.992C125.691 255.336 125.455 255.608 125.135 255.808C124.823 256.008 124.455 256.108 124.031 256.108ZM124.187 255.376C124.667 255.376 125.059 255.212 125.363 254.884C125.667 254.548 125.819 254.124 125.819 253.612V253.252H125.447C124.799 253.252 124.287 253.284 123.911 253.348C123.543 253.404 123.283 253.508 123.131 253.66C122.987 253.804 122.915 254.004 122.915 254.26C122.915 254.588 123.027 254.856 123.251 255.064C123.483 255.272 123.795 255.376 124.187 255.376ZM128.743 256V250.168H129.691V251.212C130.003 250.508 130.643 250.12 131.611 250.048L131.959 250.012L132.031 250.852L131.419 250.924C130.867 250.972 130.447 251.148 130.159 251.452C129.871 251.748 129.727 252.156 129.727 252.676V256H128.743Z" fill="#848A9C"/>
<path d="M51.9044 256V247.54H54.7604C56.1284 247.54 57.1844 247.904 57.9284 248.632C58.6724 249.352 59.0444 250.396 59.0444 251.764C59.0444 253.132 58.6724 254.18 57.9284 254.908C57.1844 255.636 56.1284 256 54.7604 256H51.9044ZM52.8884 255.16H54.6884C56.8964 255.16 58.0004 254.028 58.0004 251.764C58.0004 249.508 56.8964 248.38 54.6884 248.38H52.8884V255.16ZM63.491 256.108C62.571 256.108 61.843 255.84 61.307 255.304C60.771 254.76 60.503 254.024 60.503 253.096C60.503 252.496 60.623 251.968 60.863 251.512C61.103 251.048 61.431 250.692 61.847 250.444C62.271 250.188 62.759 250.06 63.311 250.06C64.103 250.06 64.723 250.316 65.171 250.828C65.619 251.332 65.843 252.028 65.843 252.916V253.288H61.451C61.483 253.952 61.675 254.46 62.027 254.812C62.379 255.156 62.867 255.328 63.491 255.328C63.843 255.328 64.179 255.276 64.499 255.172C64.819 255.06 65.123 254.88 65.411 254.632L65.747 255.316C65.483 255.564 65.147 255.76 64.739 255.904C64.331 256.04 63.915 256.108 63.491 256.108ZM63.335 250.78C62.783 250.78 62.347 250.952 62.027 251.296C61.707 251.64 61.519 252.092 61.463 252.652H65.003C64.979 252.06 64.823 251.6 64.535 251.272C64.255 250.944 63.855 250.78 63.335 250.78ZM67.4341 256V247.54H68.4061V252.76H68.4301L71.1301 250.168H72.3661L69.4381 252.976L72.6181 256H71.3821L68.4301 253.264H68.4061V256H67.4341ZM53.6084 272.108C53.2084 272.108 52.8484 272.032 52.5284 271.88C52.2164 271.72 51.9684 271.504 51.7844 271.232C51.6004 270.96 51.5084 270.656 51.5084 270.32C51.5084 269.896 51.6164 269.56 51.8324 269.312C52.0564 269.064 52.4204 268.888 52.9244 268.784C53.4364 268.672 54.1324 268.616 55.0124 268.616H55.3964V268.244C55.3964 267.748 55.2924 267.392 55.0844 267.176C54.8844 266.952 54.5604 266.84 54.1124 266.84C53.7604 266.84 53.4204 266.892 53.0924 266.996C52.7644 267.092 52.4284 267.252 52.0844 267.476L51.7484 266.768C52.0524 266.552 52.4204 266.38 52.8524 266.252C53.2924 266.124 53.7124 266.06 54.1124 266.06C54.8644 266.06 55.4204 266.244 55.7804 266.612C56.1484 266.98 56.3324 267.552 56.3324 268.328V272H55.4204V270.992C55.2684 271.336 55.0324 271.608 54.7124 271.808C54.4004 272.008 54.0324 272.108 53.6084 272.108ZM53.7644 271.376C54.2444 271.376 54.6364 271.212 54.9404 270.884C55.2444 270.548 55.3964 270.124 55.3964 269.612V269.252H55.0244C54.3764 269.252 53.8644 269.284 53.4884 269.348C53.1204 269.404 52.8604 269.508 52.7084 269.66C52.5644 269.804 52.4924 270.004 52.4924 270.26C52.4924 270.588 52.6044 270.856 52.8284 271.064C53.0604 271.272 53.3724 271.376 53.7644 271.376ZM61.272 272.108C60.808 272.108 60.4 272.004 60.048 271.796C59.704 271.588 59.444 271.304 59.268 270.944V272H58.32V263.54H59.292V267.176C59.46 266.832 59.72 266.56 60.072 266.36C60.424 266.16 60.824 266.06 61.272 266.06C61.792 266.06 62.244 266.184 62.628 266.432C63.02 266.672 63.32 267.02 63.528 267.476C63.744 267.924 63.852 268.46 63.852 269.084C63.852 269.7 63.744 270.236 63.528 270.692C63.32 271.14 63.02 271.488 62.628 271.736C62.244 271.984 61.792 272.108 61.272 272.108ZM61.068 271.328C61.612 271.328 62.048 271.136 62.376 270.752C62.704 270.36 62.868 269.804 62.868 269.084C62.868 268.356 62.704 267.8 62.376 267.416C62.048 267.032 61.612 266.84 61.068 266.84C60.524 266.84 60.088 267.032 59.76 267.416C59.432 267.8 59.268 268.356 59.268 269.084C59.268 269.804 59.432 270.36 59.76 270.752C60.088 271.136 60.524 271.328 61.068 271.328ZM65.5005 272V266.168H66.4485V267.212C66.7605 266.508 67.4005 266.12 68.3685 266.048L68.7165 266.012L68.7885 266.852L68.1765 266.924C67.6245 266.972 67.2045 267.148 66.9165 267.452C66.6285 267.748 66.4845 268.156 66.4845 268.676V272H65.5005Z" fill="#848A9C"/>
<path d="M145.907 256V247.54H146.735L149.987 253.648L153.215 247.54H154.043V256H153.131V249.388L150.311 254.692H149.663L146.807 249.4V256H145.907ZM158.037 256.108C157.637 256.108 157.277 256.032 156.957 255.88C156.645 255.72 156.397 255.504 156.213 255.232C156.029 254.96 155.937 254.656 155.937 254.32C155.937 253.896 156.045 253.56 156.261 253.312C156.485 253.064 156.849 252.888 157.353 252.784C157.865 252.672 158.561 252.616 159.441 252.616H159.825V252.244C159.825 251.748 159.721 251.392 159.513 251.176C159.313 250.952 158.989 250.84 158.541 250.84C158.189 250.84 157.849 250.892 157.521 250.996C157.193 251.092 156.857 251.252 156.513 251.476L156.177 250.768C156.481 250.552 156.849 250.38 157.281 250.252C157.721 250.124 158.141 250.06 158.541 250.06C159.293 250.06 159.849 250.244 160.209 250.612C160.577 250.98 160.761 251.552 160.761 252.328V256H159.849V254.992C159.697 255.336 159.461 255.608 159.141 255.808C158.829 256.008 158.461 256.108 158.037 256.108ZM158.193 255.376C158.673 255.376 159.065 255.212 159.369 254.884C159.673 254.548 159.825 254.124 159.825 253.612V253.252H159.453C158.805 253.252 158.293 253.284 157.917 253.348C157.549 253.404 157.289 253.508 157.137 253.66C156.993 253.804 156.921 254.004 156.921 254.26C156.921 254.588 157.033 254.856 157.257 255.064C157.489 255.272 157.801 255.376 158.193 255.376ZM162.749 256V250.168H163.697V251.212C164.009 250.508 164.649 250.12 165.617 250.048L165.965 250.012L166.037 250.852L165.425 250.924C164.873 250.972 164.453 251.148 164.165 251.452C163.877 251.748 163.733 252.156 163.733 252.676V256H162.749ZM169.89 256.108C169.202 256.108 168.686 255.928 168.342 255.568C167.998 255.2 167.826 254.672 167.826 253.984V250.924H166.686V250.168H167.826V248.38H168.798V250.168H170.646V250.924H168.798V253.888C168.798 254.344 168.894 254.692 169.086 254.932C169.278 255.164 169.59 255.28 170.022 255.28C170.15 255.28 170.278 255.264 170.406 255.232C170.534 255.2 170.65 255.168 170.754 255.136L170.922 255.88C170.818 255.936 170.666 255.988 170.466 256.036C170.266 256.084 170.074 256.108 169.89 256.108Z" fill="#848A9C"/>
<path d="M187.904 256V247.54H188.732L191.984 253.648L195.212 247.54H196.04V256H195.128V249.388L192.308 254.692H191.66L188.804 249.4V256H187.904ZM200.034 256.108C199.634 256.108 199.274 256.032 198.954 255.88C198.642 255.72 198.394 255.504 198.21 255.232C198.026 254.96 197.934 254.656 197.934 254.32C197.934 253.896 198.042 253.56 198.258 253.312C198.482 253.064 198.846 252.888 199.35 252.784C199.862 252.672 200.558 252.616 201.438 252.616H201.822V252.244C201.822 251.748 201.718 251.392 201.51 251.176C201.31 250.952 200.986 250.84 200.538 250.84C200.186 250.84 199.846 250.892 199.518 250.996C199.19 251.092 198.854 251.252 198.51 251.476L198.174 250.768C198.478 250.552 198.846 250.38 199.278 250.252C199.718 250.124 200.138 250.06 200.538 250.06C201.29 250.06 201.846 250.244 202.206 250.612C202.574 250.98 202.758 251.552 202.758 252.328V256H201.846V254.992C201.694 255.336 201.458 255.608 201.138 255.808C200.826 256.008 200.458 256.108 200.034 256.108ZM200.19 255.376C200.67 255.376 201.062 255.212 201.366 254.884C201.67 254.548 201.822 254.124 201.822 253.612V253.252H201.45C200.802 253.252 200.29 253.284 199.914 253.348C199.546 253.404 199.286 253.508 199.134 253.66C198.99 253.804 198.918 254.004 198.918 254.26C198.918 254.588 199.03 254.856 199.254 255.064C199.486 255.272 199.798 255.376 200.19 255.376ZM205.359 258.16L206.355 255.904L203.895 250.168H204.951L206.883 254.896L208.827 250.168H209.847L206.379 258.16H205.359Z" fill="#848A9C"/>
<path d="M228.158 256L231.89 247.54H232.73L236.462 256H235.442L234.506 253.84H230.102L229.178 256H228.158ZM232.298 248.692L230.462 253.012H234.158L232.322 248.692H232.298ZM239.168 256L236.66 250.168H237.716L239.648 254.896L241.604 250.168H242.6L240.08 256H239.168ZM247.93 258.16V254.98C247.762 255.324 247.502 255.6 247.15 255.808C246.806 256.008 246.406 256.108 245.95 256.108C245.43 256.108 244.974 255.984 244.582 255.736C244.198 255.488 243.898 255.14 243.682 254.692C243.474 254.236 243.37 253.7 243.37 253.084C243.37 252.46 243.474 251.924 243.682 251.476C243.898 251.02 244.198 250.672 244.582 250.432C244.974 250.184 245.43 250.06 245.95 250.06C246.414 250.06 246.822 250.164 247.174 250.372C247.526 250.58 247.786 250.864 247.954 251.224V250.168H248.902V258.16H247.93ZM246.154 255.328C246.698 255.328 247.134 255.136 247.462 254.752C247.79 254.36 247.954 253.804 247.954 253.084C247.954 252.356 247.79 251.8 247.462 251.416C247.134 251.032 246.698 250.84 246.154 250.84C245.602 250.84 245.162 251.032 244.834 251.416C244.514 251.8 244.354 252.356 244.354 253.084C244.354 253.804 244.514 254.36 244.834 254.752C245.162 255.136 245.602 255.328 246.154 255.328ZM252.975 256.108C251.575 256.108 250.875 255.336 250.875 253.792V250.168H251.847V253.78C251.847 254.3 251.951 254.684 252.159 254.932C252.375 255.18 252.711 255.304 253.167 255.304C253.663 255.304 254.067 255.14 254.379 254.812C254.691 254.476 254.847 254.032 254.847 253.48V250.168H255.819V256H254.871V255.016C254.687 255.368 254.427 255.64 254.091 255.832C253.763 256.016 253.391 256.108 252.975 256.108ZM259.79 256.108C259.334 256.108 258.902 256.044 258.494 255.916C258.086 255.788 257.75 255.608 257.486 255.376L257.798 254.692C258.086 254.924 258.402 255.096 258.746 255.208C259.098 255.312 259.454 255.364 259.814 255.364C260.27 255.364 260.614 255.28 260.846 255.112C261.078 254.944 261.194 254.716 261.194 254.428C261.194 254.204 261.118 254.028 260.966 253.9C260.814 253.764 260.574 253.66 260.246 253.588L259.154 253.348C258.162 253.132 257.666 252.62 257.666 251.812C257.666 251.284 257.874 250.86 258.29 250.54C258.714 250.22 259.266 250.06 259.946 250.06C260.346 250.06 260.726 250.124 261.086 250.252C261.454 250.372 261.758 250.552 261.998 250.792L261.674 251.476C261.442 251.26 261.17 251.096 260.858 250.984C260.554 250.864 260.25 250.804 259.946 250.804C259.498 250.804 259.158 250.892 258.926 251.068C258.694 251.244 258.578 251.476 258.578 251.764C258.578 252.212 258.874 252.5 259.466 252.628L260.558 252.856C261.07 252.968 261.458 253.148 261.722 253.396C261.986 253.636 262.118 253.964 262.118 254.38C262.118 254.916 261.906 255.34 261.482 255.652C261.058 255.956 260.494 256.108 259.79 256.108ZM266.065 256.108C265.377 256.108 264.861 255.928 264.517 255.568C264.173 255.2 264.001 254.672 264.001 253.984V250.924H262.861V250.168H264.001V248.38H264.973V250.168H266.821V250.924H264.973V253.888C264.973 254.344 265.069 254.692 265.261 254.932C265.453 255.164 265.765 255.28 266.197 255.28C266.325 255.28 266.453 255.264 266.581 255.232C266.709 255.2 266.825 255.168 266.929 255.136L267.097 255.88C266.993 255.936 266.841 255.988 266.641 256.036C266.441 256.084 266.249 256.108 266.065 256.108Z" fill="#848A9C"/>
<path d="M281.629 256.108C280.965 256.108 280.365 256.024 279.829 255.856C279.293 255.68 278.829 255.428 278.437 255.1L278.785 254.308C279.193 254.62 279.621 254.852 280.069 255.004C280.517 255.156 281.037 255.232 281.629 255.232C282.349 255.232 282.881 255.1 283.225 254.836C283.577 254.564 283.753 254.208 283.753 253.768C283.753 253.416 283.625 253.136 283.369 252.928C283.121 252.72 282.701 252.556 282.109 252.436L280.861 252.184C280.109 252.024 279.545 251.764 279.169 251.404C278.801 251.036 278.617 250.548 278.617 249.94C278.617 249.436 278.745 248.996 279.001 248.62C279.265 248.244 279.629 247.952 280.093 247.744C280.557 247.536 281.093 247.432 281.701 247.432C282.269 247.432 282.797 247.524 283.285 247.708C283.773 247.884 284.185 248.14 284.521 248.476L284.173 249.244C283.813 248.916 283.433 248.68 283.033 248.536C282.633 248.384 282.185 248.308 281.689 248.308C281.057 248.308 280.553 248.456 280.177 248.752C279.801 249.04 279.613 249.424 279.613 249.904C279.613 250.288 279.729 250.592 279.961 250.816C280.201 251.04 280.589 251.204 281.125 251.308L282.373 251.572C283.181 251.74 283.777 251.996 284.161 252.34C284.553 252.676 284.749 253.136 284.749 253.72C284.749 254.192 284.621 254.608 284.365 254.968C284.117 255.328 283.757 255.608 283.285 255.808C282.821 256.008 282.269 256.108 281.629 256.108ZM288.956 256.108C288.036 256.108 287.308 255.84 286.772 255.304C286.236 254.76 285.968 254.024 285.968 253.096C285.968 252.496 286.088 251.968 286.328 251.512C286.568 251.048 286.896 250.692 287.312 250.444C287.736 250.188 288.224 250.06 288.776 250.06C289.568 250.06 290.188 250.316 290.636 250.828C291.084 251.332 291.308 252.028 291.308 252.916V253.288H286.916C286.948 253.952 287.14 254.46 287.492 254.812C287.844 255.156 288.332 255.328 288.956 255.328C289.308 255.328 289.644 255.276 289.964 255.172C290.284 255.06 290.588 254.88 290.876 254.632L291.212 255.316C290.948 255.564 290.612 255.76 290.204 255.904C289.796 256.04 289.38 256.108 288.956 256.108ZM288.8 250.78C288.248 250.78 287.812 250.952 287.492 251.296C287.172 251.64 286.984 252.092 286.928 252.652H290.468C290.444 252.06 290.288 251.6 290 251.272C289.72 250.944 289.32 250.78 288.8 250.78ZM292.899 256V250.168H293.847V251.164C294.039 250.796 294.311 250.52 294.663 250.336C295.015 250.152 295.411 250.06 295.851 250.06C297.235 250.06 297.927 250.828 297.927 252.364V256H296.955V252.424C296.955 251.88 296.847 251.484 296.631 251.236C296.423 250.98 296.087 250.852 295.623 250.852C295.087 250.852 294.659 251.02 294.339 251.356C294.027 251.684 293.871 252.124 293.871 252.676V256H292.899ZM302.244 256.108C301.556 256.108 301.04 255.928 300.696 255.568C300.352 255.2 300.18 254.672 300.18 253.984V250.924H299.04V250.168H300.18V248.38H301.152V250.168H303V250.924H301.152V253.888C301.152 254.344 301.248 254.692 301.44 254.932C301.632 255.164 301.944 255.28 302.376 255.28C302.504 255.28 302.632 255.264 302.76 255.232C302.888 255.2 303.004 255.168 303.108 255.136L303.276 255.88C303.172 255.936 303.02 255.988 302.82 256.036C302.62 256.084 302.428 256.108 302.244 256.108ZM305.026 258.16L306.022 255.904L303.562 250.168H304.618L306.55 254.896L308.494 250.168H309.514L306.046 258.16H305.026ZM312.421 256.108C312.021 256.108 311.661 256.032 311.341 255.88C311.029 255.72 310.781 255.504 310.597 255.232C310.413 254.96 310.321 254.656 310.321 254.32C310.321 253.896 310.429 253.56 310.645 253.312C310.869 253.064 311.233 252.888 311.737 252.784C312.249 252.672 312.945 252.616 313.825 252.616H314.209V252.244C314.209 251.748 314.105 251.392 313.897 251.176C313.697 250.952 313.373 250.84 312.925 250.84C312.573 250.84 312.233 250.892 311.905 250.996C311.577 251.092 311.241 251.252 310.897 251.476L310.561 250.768C310.865 250.552 311.233 250.38 311.665 250.252C312.105 250.124 312.525 250.06 312.925 250.06C313.677 250.06 314.233 250.244 314.593 250.612C314.961 250.98 315.145 251.552 315.145 252.328V256H314.233V254.992C314.081 255.336 313.845 255.608 313.525 255.808C313.213 256.008 312.845 256.108 312.421 256.108ZM312.577 255.376C313.057 255.376 313.449 255.212 313.753 254.884C314.057 254.548 314.209 254.124 314.209 253.612V253.252H313.837C313.189 253.252 312.677 253.284 312.301 253.348C311.933 253.404 311.673 253.508 311.521 253.66C311.377 253.804 311.305 254.004 311.305 254.26C311.305 254.588 311.417 254.856 311.641 255.064C311.873 255.272 312.185 255.376 312.577 255.376ZM320.085 256.108C319.621 256.108 319.213 256.004 318.861 255.796C318.517 255.588 318.257 255.304 318.081 254.944V256H317.133V247.54H318.105V251.176C318.273 250.832 318.533 250.56 318.885 250.36C319.237 250.16 319.637 250.06 320.085 250.06C320.605 250.06 321.057 250.184 321.441 250.432C321.833 250.672 322.133 251.02 322.341 251.476C322.557 251.924 322.665 252.46 322.665 253.084C322.665 253.7 322.557 254.236 322.341 254.692C322.133 255.14 321.833 255.488 321.441 255.736C321.057 255.984 320.605 256.108 320.085 256.108ZM319.881 255.328C320.425 255.328 320.861 255.136 321.189 254.752C321.517 254.36 321.681 253.804 321.681 253.084C321.681 252.356 321.517 251.8 321.189 251.416C320.861 251.032 320.425 250.84 319.881 250.84C319.337 250.84 318.901 251.032 318.573 251.416C318.245 251.8 318.081 252.356 318.081 253.084C318.081 253.804 318.245 254.36 318.573 254.752C318.901 255.136 319.337 255.328 319.881 255.328ZM324.313 256V250.168H325.261V251.212C325.573 250.508 326.213 250.12 327.181 250.048L327.529 250.012L327.601 250.852L326.989 250.924C326.437 250.972 326.017 251.148 325.729 251.452C325.441 251.748 325.297 252.156 325.297 252.676V256H324.313Z" fill="#848A9C"/>
<path d="M339.172 256V247.54H339.94L345.04 254.344V247.54H345.952V256H345.208L340.096 249.172V256H339.172ZM350.531 256.108C349.963 256.108 349.471 255.984 349.055 255.736C348.639 255.488 348.315 255.14 348.083 254.692C347.859 254.236 347.747 253.7 347.747 253.084C347.747 252.468 347.859 251.936 348.083 251.488C348.315 251.032 348.639 250.68 349.055 250.432C349.471 250.184 349.963 250.06 350.531 250.06C351.091 250.06 351.579 250.184 351.995 250.432C352.419 250.68 352.743 251.032 352.967 251.488C353.199 251.936 353.315 252.468 353.315 253.084C353.315 253.7 353.199 254.236 352.967 254.692C352.743 255.14 352.419 255.488 351.995 255.736C351.579 255.984 351.091 256.108 350.531 256.108ZM350.531 255.328C351.075 255.328 351.511 255.136 351.839 254.752C352.167 254.36 352.331 253.804 352.331 253.084C352.331 252.356 352.167 251.8 351.839 251.416C351.511 251.032 351.075 250.84 350.531 250.84C349.979 250.84 349.539 251.032 349.211 251.416C348.891 251.8 348.731 252.356 348.731 253.084C348.731 253.804 348.891 254.36 349.211 254.752C349.539 255.136 349.979 255.328 350.531 255.328ZM355.549 258.16L356.545 255.904L354.085 250.168H355.141L357.073 254.896L359.017 250.168H360.037L356.569 258.16H355.549ZM362.945 256.108C362.545 256.108 362.185 256.032 361.865 255.88C361.553 255.72 361.305 255.504 361.121 255.232C360.937 254.96 360.845 254.656 360.845 254.32C360.845 253.896 360.953 253.56 361.169 253.312C361.393 253.064 361.757 252.888 362.261 252.784C362.773 252.672 363.469 252.616 364.349 252.616H364.733V252.244C364.733 251.748 364.629 251.392 364.421 251.176C364.221 250.952 363.897 250.84 363.449 250.84C363.097 250.84 362.757 250.892 362.429 250.996C362.101 251.092 361.765 251.252 361.421 251.476L361.085 250.768C361.389 250.552 361.757 250.38 362.189 250.252C362.629 250.124 363.049 250.06 363.449 250.06C364.201 250.06 364.757 250.244 365.117 250.612C365.485 250.98 365.669 251.552 365.669 252.328V256H364.757V254.992C364.605 255.336 364.369 255.608 364.049 255.808C363.737 256.008 363.369 256.108 362.945 256.108ZM363.101 255.376C363.581 255.376 363.973 255.212 364.277 254.884C364.581 254.548 364.733 254.124 364.733 253.612V253.252H364.361C363.713 253.252 363.201 253.284 362.825 253.348C362.457 253.404 362.197 253.508 362.045 253.66C361.901 253.804 361.829 254.004 361.829 254.26C361.829 254.588 361.941 254.856 362.165 255.064C362.397 255.272 362.709 255.376 363.101 255.376ZM370.608 256.108C370.144 256.108 369.736 256.004 369.384 255.796C369.04 255.588 368.78 255.304 368.604 254.944V256H367.656V247.54H368.628V251.176C368.796 250.832 369.056 250.56 369.408 250.36C369.76 250.16 370.16 250.06 370.608 250.06C371.128 250.06 371.58 250.184 371.964 250.432C372.356 250.672 372.656 251.02 372.864 251.476C373.08 251.924 373.188 252.46 373.188 253.084C373.188 253.7 373.08 254.236 372.864 254.692C372.656 255.14 372.356 255.488 371.964 255.736C371.58 255.984 371.128 256.108 370.608 256.108ZM370.404 255.328C370.948 255.328 371.384 255.136 371.712 254.752C372.04 254.36 372.204 253.804 372.204 253.084C372.204 252.356 372.04 251.8 371.712 251.416C371.384 251.032 370.948 250.84 370.404 250.84C369.86 250.84 369.424 251.032 369.096 251.416C368.768 251.8 368.604 252.356 368.604 253.084C368.604 253.804 368.768 254.36 369.096 254.752C369.424 255.136 369.86 255.328 370.404 255.328ZM374.837 256V250.168H375.785V251.212C376.097 250.508 376.737 250.12 377.705 250.048L378.053 250.012L378.125 250.852L377.513 250.924C376.961 250.972 376.541 251.148 376.253 251.452C375.965 251.748 375.821 252.156 375.821 252.676V256H374.837Z" fill="#848A9C"/>
</g>
<g clip-path="url(#clip2_436_5747)">
<path opacity="0.05" fill-rule="evenodd" clip-rule="evenodd" d="M55.4463 173.835C55.4463 173.835 98.2174 147.154 117.522 146.5C136.827 145.847 144.487 170 168.75 170C193.013 170 196.315 131 222.388 131C248.462 131 248.873 98.4136 274.503 98.4136C300.134 98.4136 313.995 138.5 323.638 139C333.281 139.5 369.442 139 369.442 139V226H55.4463L55.4463 173.835Z" fill="url(#paint0_linear_436_5747)"/>
<path d="M351.313 82.5C351.313 82.5 310.343 122.5 284.441 150C258.54 177.5 259.257 183 234.994 183C210.731 183 187.131 196 161.058 196C134.984 196 81.6705 221.5 56.0402 221.5" stroke="#04BFDA" stroke-width="2"/>
</g>
</g>
<defs>
<filter id="filter0_d_436_5747" x="-35" y="-25" width="475" height="349" filterUnits="userSpaceOnUse" color-interpolation-filters="sRGB">
<feFlood flood-opacity="0" result="BackgroundImageFix"/>
<feColorMatrix in="SourceAlpha" type="matrix" values="0 0 0 0 0 0 0 0 0 0 0 0 0 0 0 0 0 0 127 0" result="hardAlpha"/>
<feOffset dy="10"/>
<feGaussianBlur stdDeviation="17.5"/>
<feColorMatrix type="matrix" values="0 0 0 0 0 0 0 0 0 0 0 0 0 0 0 0 0 0 0.0305125 0"/>
<feBlend mode="normal" in2="BackgroundImageFix" result="effect1_dropShadow_436_5747"/>
<feBlend mode="normal" in="SourceGraphic" in2="effect1_dropShadow_436_5747" result="shape"/>
</filter>
<linearGradient id="paint0_linear_436_5747" x1="115.581" y1="143.5" x2="114.966" y2="225.267" gradientUnits="userSpaceOnUse">
<stop stop-color="#0AE1EF"/>
<stop offset="1" stop-color="#04BFDA" stop-opacity="0.01"/>
</linearGradient>
<clipPath id="clip0_436_5747">
<rect width="405" height="279" rx="15" fill="white"/>
</clipPath>
<clipPath id="clip1_436_5747">
<rect width="330.268" height="16" fill="white" transform="translate(50.625 244)"/>
</clipPath>
<clipPath id="clip2_436_5747">
<rect width="314.598" height="172" fill="white" transform="translate(55.4463 54)"/>
</clipPath>
</defs>
</svg>
