<svg width="390" height="214" viewBox="0 0 390 214" fill="none" xmlns="http://www.w3.org/2000/svg">
<path d="M75.88 20V6H78.02L84.14 16.22H83.02L89.04 6H91.18L91.2 20H88.74L88.72 9.86H89.24L84.12 18.4H82.96L77.76 9.86H78.36V20H75.88ZM99.5416 20.14C98.4482 20.14 97.4749 19.9067 96.6216 19.44C95.7682 18.96 95.0949 18.3067 94.6016 17.48C94.1082 16.6533 93.8616 15.7133 93.8616 14.66C93.8616 13.5933 94.1082 12.6533 94.6016 11.84C95.0949 11.0133 95.7682 10.3667 96.6216 9.9C97.4749 9.43333 98.4482 9.2 99.5416 9.2C100.648 9.2 101.628 9.43333 102.482 9.9C103.348 10.3667 104.022 11.0067 104.502 11.82C104.995 12.6333 105.242 13.58 105.242 14.66C105.242 15.7133 104.995 16.6533 104.502 17.48C104.022 18.3067 103.348 18.96 102.482 19.44C101.628 19.9067 100.648 20.14 99.5416 20.14ZM99.5416 18C100.155 18 100.702 17.8667 101.182 17.6C101.662 17.3333 102.035 16.9467 102.302 16.44C102.582 15.9333 102.722 15.34 102.722 14.66C102.722 13.9667 102.582 13.3733 102.302 12.88C102.035 12.3733 101.662 11.9867 101.182 11.72C100.702 11.4533 100.162 11.32 99.5616 11.32C98.9482 11.32 98.4016 11.4533 97.9216 11.72C97.4549 11.9867 97.0816 12.3733 96.8016 12.88C96.5216 13.3733 96.3816 13.9667 96.3816 14.66C96.3816 15.34 96.5216 15.9333 96.8016 16.44C97.0816 16.9467 97.4549 17.3333 97.9216 17.6C98.4016 17.8667 98.9416 18 99.5416 18ZM113.692 9.2C114.546 9.2 115.306 9.36667 115.972 9.7C116.652 10.0333 117.186 10.5467 117.572 11.24C117.959 11.92 118.152 12.8 118.152 13.88V20H115.652V14.2C115.652 13.2533 115.426 12.5467 114.972 12.08C114.532 11.6133 113.912 11.38 113.112 11.38C112.526 11.38 112.006 11.5 111.552 11.74C111.099 11.98 110.746 12.34 110.492 12.82C110.252 13.2867 110.132 13.88 110.132 14.6V20H107.632V9.32H110.012V12.2L109.592 11.32C109.966 10.64 110.506 10.12 111.212 9.76C111.932 9.38667 112.759 9.2 113.692 9.2ZM125.344 20.14C124.17 20.14 123.264 19.84 122.624 19.24C121.984 18.6267 121.664 17.7267 121.664 16.54V6.96H124.164V16.48C124.164 16.9867 124.29 17.38 124.544 17.66C124.81 17.94 125.177 18.08 125.644 18.08C126.204 18.08 126.67 17.9333 127.044 17.64L127.744 19.42C127.45 19.66 127.09 19.84 126.664 19.96C126.237 20.08 125.797 20.14 125.344 20.14ZM119.904 11.4V9.4H127.024V11.4H119.904ZM135.86 9.2C136.713 9.2 137.473 9.36667 138.14 9.7C138.82 10.0333 139.353 10.5467 139.74 11.24C140.127 11.92 140.32 12.8 140.32 13.88V20H137.82V14.2C137.82 13.2533 137.593 12.5467 137.14 12.08C136.7 11.6133 136.08 11.38 135.28 11.38C134.693 11.38 134.173 11.5 133.72 11.74C133.267 11.98 132.913 12.34 132.66 12.82C132.42 13.2867 132.3 13.88 132.3 14.6V20H129.8V5.16H132.3V12.2L131.76 11.32C132.133 10.64 132.673 10.12 133.38 9.76C134.1 9.38667 134.927 9.2 135.86 9.2ZM143.492 20V5.16H145.992V20H143.492ZM150.153 24.02C149.633 24.02 149.113 23.9333 148.593 23.76C148.073 23.5867 147.639 23.3467 147.293 23.04L148.293 21.2C148.546 21.4267 148.833 21.6067 149.153 21.74C149.473 21.8733 149.799 21.94 150.133 21.94C150.586 21.94 150.953 21.8267 151.233 21.6C151.513 21.3733 151.773 20.9933 152.013 20.46L152.633 19.06L152.833 18.76L156.873 9.32H159.273L154.273 20.86C153.939 21.66 153.566 22.2933 153.153 22.76C152.753 23.2267 152.299 23.5533 151.793 23.74C151.299 23.9267 150.753 24.02 150.153 24.02ZM152.353 20.38L147.533 9.32H150.133L154.053 18.54L152.353 20.38ZM168.723 20L164.803 9.32H167.163L170.523 18.74H169.403L172.923 9.32H175.023L178.443 18.74H177.343L180.803 9.32H183.023L179.083 20H176.683L173.563 11.66H174.303L171.123 20H168.723ZM190.99 20V17.84L190.85 17.38V13.6C190.85 12.8667 190.63 12.3 190.19 11.9C189.75 11.4867 189.083 11.28 188.19 11.28C187.59 11.28 186.996 11.3733 186.41 11.56C185.836 11.7467 185.35 12.0067 184.95 12.34L183.97 10.52C184.543 10.08 185.223 9.75333 186.01 9.54C186.81 9.31333 187.636 9.2 188.49 9.2C190.036 9.2 191.23 9.57333 192.07 10.32C192.923 11.0533 193.35 12.1933 193.35 13.74V20H190.99ZM187.63 20.14C186.83 20.14 186.13 20.0067 185.53 19.74C184.93 19.46 184.463 19.08 184.13 18.6C183.81 18.1067 183.65 17.5533 183.65 16.94C183.65 16.34 183.79 15.8 184.07 15.32C184.363 14.84 184.836 14.46 185.49 14.18C186.143 13.9 187.01 13.76 188.09 13.76H191.19V15.42H188.27C187.416 15.42 186.843 15.56 186.55 15.84C186.256 16.1067 186.11 16.44 186.11 16.84C186.11 17.2933 186.29 17.6533 186.65 17.92C187.01 18.1867 187.51 18.32 188.15 18.32C188.763 18.32 189.31 18.18 189.79 17.9C190.283 17.62 190.636 17.2067 190.85 16.66L191.27 18.16C191.03 18.7867 190.596 19.2733 189.97 19.62C189.356 19.9667 188.576 20.14 187.63 20.14ZM200.578 20.14C199.405 20.14 198.498 19.84 197.858 19.24C197.218 18.6267 196.898 17.7267 196.898 16.54V6.96H199.398V16.48C199.398 16.9867 199.525 17.38 199.778 17.66C200.045 17.94 200.411 18.08 200.878 18.08C201.438 18.08 201.905 17.9333 202.278 17.64L202.978 19.42C202.685 19.66 202.325 19.84 201.898 19.96C201.471 20.08 201.031 20.14 200.578 20.14ZM195.138 11.4V9.4H202.258V11.4H195.138ZM209.703 20.14C208.516 20.14 207.476 19.9067 206.583 19.44C205.703 18.96 205.016 18.3067 204.523 17.48C204.043 16.6533 203.803 15.7133 203.803 14.66C203.803 13.5933 204.036 12.6533 204.503 11.84C204.983 11.0133 205.636 10.3667 206.463 9.9C207.303 9.43333 208.256 9.2 209.323 9.2C210.363 9.2 211.29 9.42667 212.103 9.88C212.916 10.3333 213.556 10.9733 214.023 11.8C214.49 12.6267 214.723 13.6 214.723 14.72C214.723 14.8267 214.716 14.9467 214.703 15.08C214.703 15.2133 214.696 15.34 214.683 15.46H205.783V13.8H213.363L212.383 14.32C212.396 13.7067 212.27 13.1667 212.003 12.7C211.736 12.2333 211.37 11.8667 210.903 11.6C210.45 11.3333 209.923 11.2 209.323 11.2C208.71 11.2 208.17 11.3333 207.703 11.6C207.25 11.8667 206.89 12.24 206.623 12.72C206.37 13.1867 206.243 13.74 206.243 14.38V14.78C206.243 15.42 206.39 15.9867 206.683 16.48C206.976 16.9733 207.39 17.3533 207.923 17.62C208.456 17.8867 209.07 18.02 209.763 18.02C210.363 18.02 210.903 17.9267 211.383 17.74C211.863 17.5533 212.29 17.26 212.663 16.86L214.003 18.4C213.523 18.96 212.916 19.3933 212.183 19.7C211.463 19.9933 210.636 20.14 209.703 20.14ZM217.124 20V9.32H219.504V12.26L219.224 11.4C219.544 10.68 220.044 10.1333 220.724 9.76C221.418 9.38667 222.278 9.2 223.304 9.2V11.58C223.198 11.5533 223.098 11.54 223.004 11.54C222.911 11.5267 222.818 11.52 222.724 11.52C221.778 11.52 221.024 11.8 220.464 12.36C219.904 12.9067 219.624 13.7267 219.624 14.82V20H217.124ZM235.95 20.14C234.83 20.14 233.83 19.9067 232.95 19.44C232.083 18.96 231.403 18.3067 230.91 17.48C230.417 16.6533 230.17 15.7133 230.17 14.66C230.17 13.5933 230.417 12.6533 230.91 11.84C231.403 11.0133 232.083 10.3667 232.95 9.9C233.83 9.43333 234.83 9.2 235.95 9.2C236.99 9.2 237.903 9.41333 238.69 9.84C239.49 10.2533 240.097 10.8667 240.51 11.68L238.59 12.8C238.27 12.2933 237.877 11.92 237.41 11.68C236.957 11.44 236.463 11.32 235.93 11.32C235.317 11.32 234.763 11.4533 234.27 11.72C233.777 11.9867 233.39 12.3733 233.11 12.88C232.83 13.3733 232.69 13.9667 232.69 14.66C232.69 15.3533 232.83 15.9533 233.11 16.46C233.39 16.9533 233.777 17.3333 234.27 17.6C234.763 17.8667 235.317 18 235.93 18C236.463 18 236.957 17.88 237.41 17.64C237.877 17.4 238.27 17.0267 238.59 16.52L240.51 17.64C240.097 18.44 239.49 19.06 238.69 19.5C237.903 19.9267 236.99 20.14 235.95 20.14ZM247.315 20.14C246.222 20.14 245.248 19.9067 244.395 19.44C243.542 18.96 242.868 18.3067 242.375 17.48C241.882 16.6533 241.635 15.7133 241.635 14.66C241.635 13.5933 241.882 12.6533 242.375 11.84C242.868 11.0133 243.542 10.3667 244.395 9.9C245.248 9.43333 246.222 9.2 247.315 9.2C248.422 9.2 249.402 9.43333 250.255 9.9C251.122 10.3667 251.795 11.0067 252.275 11.82C252.768 12.6333 253.015 13.58 253.015 14.66C253.015 15.7133 252.768 16.6533 252.275 17.48C251.795 18.3067 251.122 18.96 250.255 19.44C249.402 19.9067 248.422 20.14 247.315 20.14ZM247.315 18C247.928 18 248.475 17.8667 248.955 17.6C249.435 17.3333 249.808 16.9467 250.075 16.44C250.355 15.9333 250.495 15.34 250.495 14.66C250.495 13.9667 250.355 13.3733 250.075 12.88C249.808 12.3733 249.435 11.9867 248.955 11.72C248.475 11.4533 247.935 11.32 247.335 11.32C246.722 11.32 246.175 11.4533 245.695 11.72C245.228 11.9867 244.855 12.3733 244.575 12.88C244.295 13.3733 244.155 13.9667 244.155 14.66C244.155 15.34 244.295 15.9333 244.575 16.44C244.855 16.9467 245.228 17.3333 245.695 17.6C246.175 17.8667 246.715 18 247.315 18ZM261.466 9.2C262.319 9.2 263.079 9.36667 263.746 9.7C264.426 10.0333 264.959 10.5467 265.346 11.24C265.732 11.92 265.926 12.8 265.926 13.88V20H263.426V14.2C263.426 13.2533 263.199 12.5467 262.746 12.08C262.306 11.6133 261.686 11.38 260.886 11.38C260.299 11.38 259.779 11.5 259.326 11.74C258.872 11.98 258.519 12.34 258.266 12.82C258.026 13.2867 257.906 13.88 257.906 14.6V20H255.406V9.32H257.786V12.2L257.366 11.32C257.739 10.64 258.279 10.12 258.986 9.76C259.706 9.38667 260.532 9.2 261.466 9.2ZM272.397 20.14C271.504 20.14 270.644 20.0267 269.817 19.8C269.004 19.56 268.357 19.2733 267.877 18.94L268.837 17.04C269.317 17.3467 269.89 17.6 270.557 17.8C271.224 18 271.89 18.1 272.557 18.1C273.344 18.1 273.91 17.9933 274.257 17.78C274.617 17.5667 274.797 17.28 274.797 16.92C274.797 16.6267 274.677 16.4067 274.437 16.26C274.197 16.1 273.884 15.98 273.497 15.9C273.11 15.82 272.677 15.7467 272.197 15.68C271.73 15.6133 271.257 15.5267 270.777 15.42C270.31 15.3 269.884 15.1333 269.497 14.92C269.11 14.6933 268.797 14.3933 268.557 14.02C268.317 13.6467 268.197 13.1533 268.197 12.54C268.197 11.86 268.39 11.2733 268.777 10.78C269.164 10.2733 269.704 9.88667 270.397 9.62C271.104 9.34 271.937 9.2 272.897 9.2C273.617 9.2 274.344 9.28 275.077 9.44C275.81 9.6 276.417 9.82667 276.897 10.12L275.937 12.02C275.43 11.7133 274.917 11.5067 274.397 11.4C273.89 11.28 273.384 11.22 272.877 11.22C272.117 11.22 271.55 11.3333 271.177 11.56C270.817 11.7867 270.637 12.0733 270.637 12.42C270.637 12.74 270.757 12.98 270.997 13.14C271.237 13.3 271.55 13.4267 271.937 13.52C272.324 13.6133 272.75 13.6933 273.217 13.76C273.697 13.8133 274.17 13.9 274.637 14.02C275.104 14.14 275.53 14.3067 275.917 14.52C276.317 14.72 276.637 15.0067 276.877 15.38C277.117 15.7533 277.237 16.24 277.237 16.84C277.237 17.5067 277.037 18.0867 276.637 18.58C276.25 19.0733 275.697 19.46 274.977 19.74C274.257 20.0067 273.397 20.14 272.397 20.14ZM283.91 20.14C283.003 20.14 282.203 19.9733 281.51 19.64C280.817 19.2933 280.277 18.7733 279.89 18.08C279.503 17.3733 279.31 16.4867 279.31 15.42V9.32H281.81V15.08C281.81 16.04 282.023 16.76 282.45 17.24C282.89 17.7067 283.51 17.94 284.31 17.94C284.897 17.94 285.403 17.82 285.83 17.58C286.27 17.34 286.61 16.98 286.85 16.5C287.103 16.02 287.23 15.4267 287.23 14.72V9.32H289.73V20H287.35V17.12L287.77 18C287.41 18.6933 286.883 19.2267 286.19 19.6C285.497 19.96 284.737 20.14 283.91 20.14ZM306.483 9.2C307.337 9.2 308.09 9.36667 308.743 9.7C309.41 10.0333 309.93 10.5467 310.303 11.24C310.677 11.92 310.863 12.8 310.863 13.88V20H308.363V14.2C308.363 13.2533 308.157 12.5467 307.743 12.08C307.33 11.6133 306.737 11.38 305.963 11.38C305.417 11.38 304.93 11.5 304.503 11.74C304.09 11.98 303.763 12.3333 303.523 12.8C303.297 13.2667 303.183 13.86 303.183 14.58V20H300.683V14.2C300.683 13.2533 300.477 12.5467 300.063 12.08C299.65 11.6133 299.057 11.38 298.283 11.38C297.737 11.38 297.25 11.5 296.823 11.74C296.41 11.98 296.083 12.3333 295.843 12.8C295.617 13.2667 295.503 13.86 295.503 14.58V20H293.003V9.32H295.383V12.16L294.963 11.32C295.323 10.6267 295.843 10.1 296.523 9.74C297.217 9.38 298.003 9.2 298.883 9.2C299.883 9.2 300.75 9.44667 301.483 9.94C302.23 10.4333 302.723 11.18 302.963 12.18L301.983 11.84C302.33 11.04 302.903 10.4 303.703 9.92C304.503 9.44 305.43 9.2 306.483 9.2ZM319.978 20.14C319.111 20.14 318.318 19.94 317.598 19.54C316.891 19.14 316.325 18.54 315.898 17.74C315.485 16.9267 315.278 15.9 315.278 14.66C315.278 13.4067 315.478 12.38 315.878 11.58C316.291 10.78 316.851 10.1867 317.558 9.8C318.265 9.4 319.071 9.2 319.978 9.2C321.031 9.2 321.958 9.42667 322.758 9.88C323.571 10.3333 324.211 10.9667 324.678 11.78C325.158 12.5933 325.398 13.5533 325.398 14.66C325.398 15.7667 325.158 16.7333 324.678 17.56C324.211 18.3733 323.571 19.0067 322.758 19.46C321.958 19.9133 321.031 20.14 319.978 20.14ZM314.058 23.88V9.32H316.438V11.84L316.358 14.68L316.558 17.52V23.88H314.058ZM319.698 18C320.298 18 320.831 17.8667 321.298 17.6C321.778 17.3333 322.158 16.9467 322.438 16.44C322.718 15.9333 322.858 15.34 322.858 14.66C322.858 13.9667 322.718 13.3733 322.438 12.88C322.158 12.3733 321.778 11.9867 321.298 11.72C320.831 11.4533 320.298 11.32 319.698 11.32C319.098 11.32 318.558 11.4533 318.078 11.72C317.598 11.9867 317.218 12.3733 316.938 12.88C316.658 13.3733 316.518 13.9667 316.518 14.66C316.518 15.34 316.658 15.9333 316.938 16.44C317.218 16.9467 317.598 17.3333 318.078 17.6C318.558 17.8667 319.098 18 319.698 18ZM331.789 20.14C330.616 20.14 329.709 19.84 329.069 19.24C328.429 18.6267 328.109 17.7267 328.109 16.54V6.96H330.609V16.48C330.609 16.9867 330.736 17.38 330.989 17.66C331.256 17.94 331.622 18.08 332.089 18.08C332.649 18.08 333.116 17.9333 333.489 17.64L334.189 19.42C333.896 19.66 333.536 19.84 333.109 19.96C332.682 20.08 332.242 20.14 331.789 20.14ZM326.349 11.4V9.4H333.469V11.4H326.349ZM336.245 20V9.32H338.745V20H336.245ZM337.505 7.56C337.039 7.56 336.652 7.41333 336.345 7.12C336.052 6.82667 335.905 6.47333 335.905 6.06C335.905 5.63333 336.052 5.28 336.345 5C336.652 4.70667 337.039 4.56 337.505 4.56C337.972 4.56 338.352 4.7 338.645 4.98C338.952 5.24667 339.105 5.58667 339.105 6C339.105 6.44 338.959 6.81333 338.665 7.12C338.372 7.41333 337.985 7.56 337.505 7.56ZM346.827 20.14C345.733 20.14 344.76 19.9067 343.907 19.44C343.053 18.96 342.38 18.3067 341.887 17.48C341.393 16.6533 341.147 15.7133 341.147 14.66C341.147 13.5933 341.393 12.6533 341.887 11.84C342.38 11.0133 343.053 10.3667 343.907 9.9C344.76 9.43333 345.733 9.2 346.827 9.2C347.933 9.2 348.913 9.43333 349.767 9.9C350.633 10.3667 351.307 11.0067 351.787 11.82C352.28 12.6333 352.527 13.58 352.527 14.66C352.527 15.7133 352.28 16.6533 351.787 17.48C351.307 18.3067 350.633 18.96 349.767 19.44C348.913 19.9067 347.933 20.14 346.827 20.14ZM346.827 18C347.44 18 347.987 17.8667 348.467 17.6C348.947 17.3333 349.32 16.9467 349.587 16.44C349.867 15.9333 350.007 15.34 350.007 14.66C350.007 13.9667 349.867 13.3733 349.587 12.88C349.32 12.3733 348.947 11.9867 348.467 11.72C347.987 11.4533 347.447 11.32 346.847 11.32C346.233 11.32 345.687 11.4533 345.207 11.72C344.74 11.9867 344.367 12.3733 344.087 12.88C343.807 13.3733 343.667 13.9667 343.667 14.66C343.667 15.34 343.807 15.9333 344.087 16.44C344.367 16.9467 344.74 17.3333 345.207 17.6C345.687 17.8667 346.227 18 346.827 18ZM360.977 9.2C361.831 9.2 362.591 9.36667 363.257 9.7C363.937 10.0333 364.471 10.5467 364.857 11.24C365.244 11.92 365.437 12.8 365.437 13.88V20H362.937V14.2C362.937 13.2533 362.711 12.5467 362.257 12.08C361.817 11.6133 361.197 11.38 360.397 11.38C359.811 11.38 359.291 11.5 358.837 11.74C358.384 11.98 358.031 12.34 357.777 12.82C357.537 13.2867 357.417 13.88 357.417 14.6V20H354.917V9.32H357.297V12.2L356.877 11.32C357.251 10.64 357.791 10.12 358.497 9.76C359.217 9.38667 360.044 9.2 360.977 9.2Z" fill="black"/>
<rect x="42" y="35" width="2" height="150" fill="#D9D9D9"/>
<rect x="42" y="184" width="348" height="3" fill="#D9D9D9"/>
<line x1="29" y1="159.5" x2="42" y2="159.5" stroke="#DDDDDD"/>
<line x1="29" y1="132.5" x2="42" y2="132.5" stroke="#DDDDDD"/>
<line x1="29" y1="107.5" x2="42" y2="107.5" stroke="#DDDDDD"/>
<line x1="29" y1="80.5" x2="42" y2="80.5" stroke="#DDDDDD"/>
<line x1="29" y1="55.5" x2="42" y2="55.5" stroke="#DDDDDD"/>
<path d="M9.23544 49.7273V57H8.35476V50.6506H8.31214L6.53658 51.8295V50.9347L8.35476 49.7273H9.23544ZM13.6992 57.0994C13.1642 57.0994 12.7085 56.9538 12.332 56.6626C11.9556 56.3691 11.668 55.9441 11.4691 55.3878C11.2702 54.8291 11.1708 54.1544 11.1708 53.3636C11.1708 52.5777 11.2702 51.9065 11.4691 51.3501C11.6703 50.7914 11.9592 50.3653 12.3356 50.0717C12.7144 49.7758 13.1689 49.6278 13.6992 49.6278C14.2295 49.6278 14.6829 49.7758 15.0593 50.0717C15.4381 50.3653 15.7269 50.7914 15.9258 51.3501C16.127 51.9065 16.2276 52.5777 16.2276 53.3636C16.2276 54.1544 16.1282 54.8291 15.9293 55.3878C15.7305 55.9441 15.4428 56.3691 15.0664 56.6626C14.69 56.9538 14.2343 57.0994 13.6992 57.0994ZM13.6992 56.3182C14.2295 56.3182 14.6415 56.0625 14.935 55.5511C15.2286 55.0398 15.3754 54.3106 15.3754 53.3636C15.3754 52.7339 15.3079 52.1977 15.1729 51.755C15.0404 51.3123 14.8486 50.9749 14.5977 50.7429C14.3491 50.5109 14.0496 50.3949 13.6992 50.3949C13.1737 50.3949 12.7629 50.6541 12.467 51.1726C12.171 51.6887 12.0231 52.419 12.0231 53.3636C12.0231 53.9934 12.0894 54.5284 12.2219 54.9688C12.3545 55.4091 12.5451 55.7441 12.7937 55.9737C13.0446 56.2034 13.3465 56.3182 13.6992 56.3182ZM19.9492 57.0994C19.4142 57.0994 18.9585 56.9538 18.582 56.6626C18.2056 56.3691 17.918 55.9441 17.7191 55.3878C17.5202 54.8291 17.4208 54.1544 17.4208 53.3636C17.4208 52.5777 17.5202 51.9065 17.7191 51.3501C17.9203 50.7914 18.2092 50.3653 18.5856 50.0717C18.9644 49.7758 19.4189 49.6278 19.9492 49.6278C20.4795 49.6278 20.9329 49.7758 21.3093 50.0717C21.6881 50.3653 21.9769 50.7914 22.1758 51.3501C22.377 51.9065 22.4776 52.5777 22.4776 53.3636C22.4776 54.1544 22.3782 54.8291 22.1793 55.3878C21.9805 55.9441 21.6928 56.3691 21.3164 56.6626C20.94 56.9538 20.4843 57.0994 19.9492 57.0994ZM19.9492 56.3182C20.4795 56.3182 20.8915 56.0625 21.185 55.5511C21.4786 55.0398 21.6254 54.3106 21.6254 53.3636C21.6254 52.7339 21.5579 52.1977 21.4229 51.755C21.2904 51.3123 21.0986 50.9749 20.8477 50.7429C20.5991 50.5109 20.2996 50.3949 19.9492 50.3949C19.4237 50.3949 19.0129 50.6541 18.717 51.1726C18.421 51.6887 18.2731 52.419 18.2731 53.3636C18.2731 53.9934 18.3394 54.5284 18.4719 54.9688C18.6045 55.4091 18.7951 55.7441 19.0437 55.9737C19.2946 56.2034 19.5965 56.3182 19.9492 56.3182Z" fill="black"/>
<path d="M11.3763 82.0994C10.8886 82.0994 10.4578 82.013 10.0837 81.8402C9.71203 81.665 9.42202 81.4247 9.21369 81.1193C9.00536 80.8116 8.90237 80.4612 8.90474 80.0682C8.90237 79.7604 8.96274 79.4763 9.08585 79.2159C9.20895 78.9531 9.37704 78.7341 9.59011 78.5589C9.80555 78.3814 10.0458 78.2689 10.311 78.2216V78.179C9.96298 78.089 9.68599 77.8937 9.48002 77.593C9.27406 77.29 9.17226 76.9455 9.17463 76.5597C9.17226 76.1903 9.26577 75.8601 9.45517 75.5689C9.64456 75.2777 9.90498 75.0481 10.2364 74.88C10.5702 74.7119 10.9502 74.6278 11.3763 74.6278C11.7977 74.6278 12.1742 74.7119 12.5056 74.88C12.837 75.0481 13.0974 75.2777 13.2868 75.5689C13.4786 75.8601 13.5757 76.1903 13.578 76.5597C13.5757 76.9455 13.4703 77.29 13.262 77.593C13.056 77.8937 12.7826 78.089 12.4417 78.179V78.2216C12.7045 78.2689 12.9412 78.3814 13.1519 78.5589C13.3626 78.7341 13.5307 78.9531 13.6562 79.2159C13.7816 79.4763 13.8456 79.7604 13.8479 80.0682C13.8456 80.4612 13.739 80.8116 13.5283 81.1193C13.32 81.4247 13.03 81.665 12.6583 81.8402C12.289 82.013 11.8617 82.0994 11.3763 82.0994ZM11.3763 81.3182C11.7054 81.3182 11.9895 81.2649 12.2286 81.1584C12.4677 81.0518 12.6524 80.9015 12.7826 80.7074C12.9128 80.5133 12.9791 80.286 12.9814 80.0256C12.9791 79.7509 12.9081 79.5083 12.7684 79.2976C12.6287 79.0869 12.4381 78.9212 12.1966 78.8004C11.9575 78.6797 11.6841 78.6193 11.3763 78.6193C11.0662 78.6193 10.7892 78.6797 10.5454 78.8004C10.3039 78.9212 10.1133 79.0869 9.97363 79.2976C9.83632 79.5083 9.76885 79.7509 9.77122 80.0256C9.76885 80.286 9.83159 80.5133 9.95943 80.7074C10.0896 80.9015 10.2755 81.0518 10.517 81.1584C10.7584 81.2649 11.0449 81.3182 11.3763 81.3182ZM11.3763 77.8665C11.6367 77.8665 11.8676 77.8144 12.0688 77.7102C12.2724 77.6061 12.4322 77.4605 12.5482 77.2734C12.6642 77.0864 12.7234 76.8674 12.7258 76.6165C12.7234 76.3703 12.6654 76.156 12.5518 75.9737C12.4381 75.7891 12.2807 75.647 12.0795 75.5476C11.8782 75.4458 11.6439 75.3949 11.3763 75.3949C11.1041 75.3949 10.8662 75.4458 10.6626 75.5476C10.459 75.647 10.3015 75.7891 10.1903 75.9737C10.079 76.156 10.0245 76.3703 10.0269 76.6165C10.0245 76.8674 10.0802 77.0864 10.1938 77.2734C10.3098 77.4605 10.4696 77.6061 10.6732 77.7102C10.8768 77.8144 11.1112 77.8665 11.3763 77.8665ZM17.5811 82.0994C17.046 82.0994 16.5903 81.9538 16.2139 81.6626C15.8374 81.3691 15.5498 80.9441 15.3509 80.3878C15.1521 79.8291 15.0526 79.1544 15.0526 78.3636C15.0526 77.5777 15.1521 76.9065 15.3509 76.3501C15.5522 75.7914 15.841 75.3653 16.2174 75.0717C16.5962 74.7758 17.0508 74.6278 17.5811 74.6278C18.1114 74.6278 18.5647 74.7758 18.9411 75.0717C19.3199 75.3653 19.6088 75.7914 19.8076 76.3501C20.0088 76.9065 20.1095 77.5777 20.1095 78.3636C20.1095 79.1544 20.01 79.8291 19.8112 80.3878C19.6123 80.9441 19.3247 81.3691 18.9482 81.6626C18.5718 81.9538 18.1161 82.0994 17.5811 82.0994ZM17.5811 81.3182C18.1114 81.3182 18.5233 81.0625 18.8169 80.5511C19.1104 80.0398 19.2572 79.3106 19.2572 78.3636C19.2572 77.7339 19.1897 77.1977 19.0548 76.755C18.9222 76.3123 18.7304 75.9749 18.4795 75.7429C18.2309 75.5109 17.9314 75.3949 17.5811 75.3949C17.0555 75.3949 16.6447 75.6541 16.3488 76.1726C16.0529 76.6887 15.9049 77.419 15.9049 78.3636C15.9049 78.9934 15.9712 79.5284 16.1038 79.9688C16.2364 80.4091 16.4269 80.7441 16.6755 80.9737C16.9265 81.2034 17.2283 81.3182 17.5811 81.3182Z" fill="black"/>
<path d="M11.4225 108.099C11.1242 108.095 10.8259 108.038 10.5276 107.929C10.2293 107.82 9.95706 107.637 9.71085 107.379C9.46464 107.118 9.26696 106.767 9.11781 106.324C8.96866 105.879 8.89409 105.32 8.89409 104.648C8.89409 104.004 8.95446 103.433 9.0752 102.936C9.19593 102.437 9.37112 102.016 9.60076 101.675C9.8304 101.332 10.1074 101.072 10.4317 100.894C10.7584 100.717 11.1266 100.628 11.5361 100.628C11.9433 100.628 12.3055 100.71 12.6228 100.873C12.9424 101.034 13.2028 101.259 13.404 101.548C13.6053 101.836 13.7355 102.169 13.7947 102.545H12.9282C12.8477 102.219 12.6914 101.948 12.4594 101.732C12.2274 101.517 11.9197 101.409 11.5361 101.409C10.9727 101.409 10.5288 101.654 10.2045 102.144C9.88249 102.634 9.72032 103.322 9.71795 104.207H9.77477C9.90734 104.006 10.0648 103.835 10.2471 103.692C10.4317 103.548 10.6353 103.437 10.8579 103.359C11.0804 103.281 11.316 103.241 11.5645 103.241C11.9812 103.241 12.3624 103.346 12.708 103.554C13.0537 103.76 13.3306 104.045 13.539 104.41C13.7473 104.772 13.8515 105.188 13.8515 105.656C13.8515 106.106 13.7509 106.518 13.5496 106.892C13.3484 107.264 13.0655 107.56 12.7009 107.78C12.3387 107.998 11.9126 108.104 11.4225 108.099ZM11.4225 107.318C11.7208 107.318 11.9883 107.244 12.2251 107.094C12.4642 106.945 12.6524 106.745 12.7897 106.494C12.9294 106.243 12.9992 105.964 12.9992 105.656C12.9992 105.356 12.9317 105.082 12.7968 104.836C12.6642 104.587 12.4807 104.39 12.2464 104.243C12.0144 104.096 11.7492 104.023 11.4509 104.023C11.226 104.023 11.0165 104.068 10.8224 104.158C10.6282 104.245 10.4578 104.366 10.311 104.52C10.1666 104.674 10.0529 104.85 9.97008 105.049C9.88722 105.246 9.84579 105.453 9.84579 105.67C9.84579 105.959 9.91326 106.229 10.0482 106.48C10.1855 106.731 10.3725 106.933 10.6093 107.087C10.8484 107.241 11.1195 107.318 11.4225 107.318ZM17.6201 108.099C17.0851 108.099 16.6294 107.954 16.2529 107.663C15.8765 107.369 15.5889 106.944 15.39 106.388C15.1911 105.829 15.0917 105.154 15.0917 104.364C15.0917 103.578 15.1911 102.906 15.39 102.35C15.5912 101.791 15.8801 101.365 16.2565 101.072C16.6353 100.776 17.0898 100.628 17.6201 100.628C18.1504 100.628 18.6038 100.776 18.9802 101.072C19.359 101.365 19.6478 101.791 19.8467 102.35C20.0479 102.906 20.1485 103.578 20.1485 104.364C20.1485 105.154 20.0491 105.829 19.8502 106.388C19.6514 106.944 19.3637 107.369 18.9873 107.663C18.6109 107.954 18.1552 108.099 17.6201 108.099ZM17.6201 107.318C18.1504 107.318 18.5624 107.062 18.8559 106.551C19.1495 106.04 19.2963 105.311 19.2963 104.364C19.2963 103.734 19.2288 103.198 19.0938 102.755C18.9613 102.312 18.7695 101.975 18.5186 101.743C18.27 101.511 17.9705 101.395 17.6201 101.395C17.0945 101.395 16.6838 101.654 16.3879 102.173C16.0919 102.689 15.944 103.419 15.944 104.364C15.944 104.993 16.0103 105.528 16.1428 105.969C16.2754 106.409 16.466 106.744 16.7146 106.974C16.9655 107.203 17.2674 107.318 17.6201 107.318Z" fill="black"/>
<path d="M8.74938 133.509V132.784L11.9454 127.727H12.471V128.849H12.1159L9.70108 132.67V132.727H14.0051V133.509H8.74938ZM12.1727 135V133.288V132.951V127.727H13.0107V135H12.1727ZM17.708 135.099C17.173 135.099 16.7172 134.954 16.3408 134.663C15.9644 134.369 15.6768 133.944 15.4779 133.388C15.279 132.829 15.1796 132.154 15.1796 131.364C15.1796 130.578 15.279 129.906 15.4779 129.35C15.6791 128.791 15.968 128.365 16.3444 128.072C16.7232 127.776 17.1777 127.628 17.708 127.628C18.2383 127.628 18.6917 127.776 19.0681 128.072C19.4469 128.365 19.7357 128.791 19.9346 129.35C20.1358 129.906 20.2364 130.578 20.2364 131.364C20.2364 132.154 20.137 132.829 19.9381 133.388C19.7393 133.944 19.4516 134.369 19.0752 134.663C18.6988 134.954 18.243 135.099 17.708 135.099ZM17.708 134.318C18.2383 134.318 18.6502 134.062 18.9438 133.551C19.2374 133.04 19.3841 132.311 19.3841 131.364C19.3841 130.734 19.3167 130.198 19.1817 129.755C19.0492 129.312 18.8574 128.975 18.6064 128.743C18.3579 128.511 18.0584 128.395 17.708 128.395C17.1824 128.395 16.7717 128.654 16.4758 129.173C16.1798 129.689 16.0319 130.419 16.0319 131.364C16.0319 131.993 16.0982 132.528 16.2307 132.969C16.3633 133.409 16.5539 133.744 16.8025 133.974C17.0534 134.203 17.3553 134.318 17.708 134.318Z" fill="black"/>
<path d="M9.1005 160V159.361L11.5011 156.733C11.7828 156.425 12.0148 156.158 12.1971 155.93C12.3794 155.701 12.5143 155.485 12.6019 155.284C12.6919 155.08 12.7369 154.867 12.7369 154.645C12.7369 154.389 12.6753 154.168 12.5522 153.981C12.4315 153.794 12.2657 153.649 12.055 153.548C11.8443 153.446 11.6076 153.395 11.3448 153.395C11.0655 153.395 10.8216 153.453 10.6133 153.569C10.4073 153.683 10.2475 153.842 10.1339 154.048C10.0226 154.254 9.96697 154.496 9.96697 154.773H9.12891C9.12891 154.347 9.22715 153.973 9.42365 153.651C9.62015 153.329 9.88767 153.078 10.2262 152.898C10.5671 152.718 10.9495 152.628 11.3732 152.628C11.7994 152.628 12.177 152.718 12.506 152.898C12.8351 153.078 13.0932 153.32 13.2802 153.626C13.4672 153.931 13.5607 154.271 13.5607 154.645C13.5607 154.912 13.5122 155.174 13.4151 155.43C13.3204 155.683 13.1547 155.966 12.918 156.278C12.6836 156.589 12.3581 156.967 11.9414 157.415L10.3079 159.162V159.219H13.6886V160H9.1005ZM17.5273 160.099C16.9923 160.099 16.5366 159.954 16.1602 159.663C15.7837 159.369 15.4961 158.944 15.2972 158.388C15.0984 157.829 14.9989 157.154 14.9989 156.364C14.9989 155.578 15.0984 154.906 15.2972 154.35C15.4985 153.791 15.7873 153.365 16.1637 153.072C16.5425 152.776 16.997 152.628 17.5273 152.628C18.0576 152.628 18.511 152.776 18.8874 153.072C19.2662 153.365 19.555 153.791 19.7539 154.35C19.9551 154.906 20.0558 155.578 20.0558 156.364C20.0558 157.154 19.9563 157.829 19.7575 158.388C19.5586 158.944 19.271 159.369 18.8945 159.663C18.5181 159.954 18.0624 160.099 17.5273 160.099ZM17.5273 159.318C18.0576 159.318 18.4696 159.062 18.7631 158.551C19.0567 158.04 19.2035 157.311 19.2035 156.364C19.2035 155.734 19.136 155.198 19.0011 154.755C18.8685 154.312 18.6767 153.975 18.4258 153.743C18.1772 153.511 17.8777 153.395 17.5273 153.395C17.0018 153.395 16.591 153.654 16.2951 154.173C15.9992 154.689 15.8512 155.419 15.8512 156.364C15.8512 156.993 15.9175 157.528 16.0501 157.969C16.1826 158.409 16.3732 158.744 16.6218 158.974C16.8728 159.203 17.1746 159.318 17.5273 159.318Z" fill="black"/>
<path d="M11.25 185.08C10.822 185.08 10.4574 184.963 10.1562 184.73C9.85511 184.495 9.625 184.155 9.46591 183.71C9.30682 183.263 9.22727 182.723 9.22727 182.091C9.22727 181.462 9.30682 180.925 9.46591 180.48C9.62689 180.033 9.85795 179.692 10.1591 179.457C10.4621 179.221 10.8258 179.102 11.25 179.102C11.6742 179.102 12.0369 179.221 12.3381 179.457C12.6411 179.692 12.8722 180.033 13.0312 180.48C13.1922 180.925 13.2727 181.462 13.2727 182.091C13.2727 182.723 13.1932 183.263 13.0341 183.71C12.875 184.155 12.6449 184.495 12.3438 184.73C12.0426 184.963 11.678 185.08 11.25 185.08ZM11.25 184.455C11.6742 184.455 12.0038 184.25 12.2386 183.841C12.4735 183.432 12.5909 182.848 12.5909 182.091C12.5909 181.587 12.5369 181.158 12.429 180.804C12.3229 180.45 12.1695 180.18 11.9688 179.994C11.7699 179.809 11.5303 179.716 11.25 179.716C10.8295 179.716 10.5009 179.923 10.2642 180.338C10.0275 180.751 9.90909 181.335 9.90909 182.091C9.90909 182.595 9.96212 183.023 10.0682 183.375C10.1742 183.727 10.3267 183.995 10.5256 184.179C10.7263 184.363 10.9678 184.455 11.25 184.455ZM17.3182 183.909V183.602C17.3182 183.39 17.3617 183.196 17.4489 183.02C17.5379 182.842 17.6667 182.7 17.8352 182.594C18.0057 182.486 18.2121 182.432 18.4545 182.432C18.7008 182.432 18.9072 182.486 19.0739 182.594C19.2405 182.7 19.3665 182.842 19.4517 183.02C19.5369 183.196 19.5795 183.39 19.5795 183.602V183.909C19.5795 184.121 19.536 184.316 19.4489 184.494C19.3636 184.67 19.2367 184.812 19.0682 184.92C18.9015 185.027 18.697 185.08 18.4545 185.08C18.2083 185.08 18.0009 185.027 17.8324 184.92C17.6638 184.812 17.536 184.67 17.4489 184.494C17.3617 184.316 17.3182 184.121 17.3182 183.909ZM17.8977 183.602V183.909C17.8977 184.085 17.9394 184.243 18.0227 184.384C18.1061 184.522 18.25 184.591 18.4545 184.591C18.6534 184.591 18.7936 184.522 18.875 184.384C18.9583 184.243 19 184.085 19 183.909V183.602C19 183.426 18.9602 183.269 18.8807 183.131C18.8011 182.991 18.6591 182.92 18.4545 182.92C18.2557 182.92 18.1127 182.991 18.0256 183.131C17.9403 183.269 17.8977 183.426 17.8977 183.602ZM14.4205 180.58V180.273C14.4205 180.061 14.464 179.866 14.5511 179.69C14.6402 179.512 14.7689 179.37 14.9375 179.264C15.108 179.156 15.3144 179.102 15.5568 179.102C15.803 179.102 16.0095 179.156 16.1761 179.264C16.3428 179.37 16.4688 179.512 16.554 179.69C16.6392 179.866 16.6818 180.061 16.6818 180.273V180.58C16.6818 180.792 16.6383 180.987 16.5511 181.165C16.4659 181.341 16.339 181.483 16.1705 181.591C16.0038 181.697 15.7992 181.75 15.5568 181.75C15.3106 181.75 15.1032 181.697 14.9347 181.591C14.7661 181.483 14.6383 181.341 14.5511 181.165C14.464 180.987 14.4205 180.792 14.4205 180.58ZM15 180.273V180.58C15 180.756 15.0417 180.914 15.125 181.054C15.2083 181.192 15.3523 181.261 15.5568 181.261C15.7557 181.261 15.8958 181.192 15.9773 181.054C16.0606 180.914 16.1023 180.756 16.1023 180.58V180.273C16.1023 180.097 16.0625 179.939 15.983 179.801C15.9034 179.661 15.7614 179.591 15.5568 179.591C15.358 179.591 15.215 179.661 15.1278 179.801C15.0426 179.939 15 180.097 15 180.273ZM14.6364 185L18.6364 179.182H19.2841L15.2841 185H14.6364Z" fill="black"/>
<path d="M97.1533 184.045H55.5163L55.5163 131.257C55.5163 129.6 56.8595 128.257 58.5163 128.257H94.1533C95.8102 128.257 97.1533 129.6 97.1533 131.257V184.045Z" fill="#2EA7E0"/>
<path d="M71.3971 202.424H69.6017V196.606H71.4767C72.0411 196.606 72.524 196.723 72.9255 196.956C73.327 197.187 73.6348 197.519 73.8488 197.953C74.0628 198.385 74.1698 198.902 74.1698 199.504C74.1698 200.11 74.0619 200.632 73.846 201.069C73.6301 201.505 73.3157 201.84 72.9028 202.075C72.4899 202.308 71.988 202.424 71.3971 202.424ZM70.3062 201.799H71.3517C71.8327 201.799 72.2314 201.707 72.5477 201.521C72.864 201.335 73.0998 201.071 73.2551 200.728C73.4104 200.385 73.488 199.977 73.488 199.504C73.488 199.034 73.4113 198.63 73.2579 198.291C73.1045 197.95 72.8753 197.689 72.5704 197.507C72.2655 197.323 71.8858 197.231 71.4312 197.231H70.3062V201.799ZM77.0903 202.515C76.6698 202.515 76.3072 202.422 76.0022 202.237C75.6992 202.049 75.4653 201.788 75.3005 201.453C75.1376 201.116 75.0562 200.724 75.0562 200.277C75.0562 199.83 75.1376 199.436 75.3005 199.095C75.4653 198.752 75.6945 198.485 75.988 198.294C76.2835 198.1 76.6282 198.004 77.0221 198.004C77.2494 198.004 77.4738 198.042 77.6954 198.117C77.917 198.193 78.1187 198.316 78.3005 198.487C78.4823 198.655 78.6272 198.879 78.7352 199.157C78.8431 199.436 78.8971 199.778 78.8971 200.186V200.47H75.5335V199.89H78.2153C78.2153 199.644 78.1661 199.424 78.0676 199.231C77.971 199.038 77.8327 198.885 77.6528 198.774C77.4748 198.662 77.2645 198.606 77.0221 198.606C76.7551 198.606 76.524 198.672 76.3289 198.805C76.1358 198.936 75.9871 199.106 75.8829 199.316C75.7787 199.527 75.7267 199.752 75.7267 199.992V200.379C75.7267 200.708 75.7835 200.988 75.8971 201.217C76.0126 201.444 76.1727 201.617 76.3772 201.737C76.5818 201.854 76.8195 201.913 77.0903 201.913C77.2664 201.913 77.4255 201.888 77.5676 201.839C77.7115 201.788 77.8356 201.712 77.9397 201.612C78.0439 201.51 78.1244 201.383 78.1812 201.231L78.8289 201.413C78.7608 201.633 78.6462 201.826 78.4852 201.992C78.3242 202.157 78.1253 202.286 77.8886 202.379C77.6519 202.47 77.3858 202.515 77.0903 202.515ZM81.6897 202.515C81.2806 202.515 80.9284 202.419 80.6329 202.225C80.3375 202.032 80.1102 201.766 79.9511 201.427C79.792 201.088 79.7125 200.701 79.7125 200.265C79.7125 199.822 79.7939 199.431 79.9568 199.092C80.1216 198.751 80.3507 198.485 80.6443 198.294C80.9397 198.1 81.2844 198.004 81.6784 198.004C81.9852 198.004 82.2617 198.061 82.5079 198.174C82.7541 198.288 82.9558 198.447 83.113 198.652C83.2702 198.856 83.3678 199.095 83.4056 199.367H82.7352C82.6841 199.169 82.5704 198.992 82.3943 198.839C82.22 198.684 81.9852 198.606 81.6897 198.606C81.4284 198.606 81.1992 198.674 81.0022 198.811C80.8072 198.945 80.6547 199.135 80.5448 199.382C80.4369 199.626 80.3829 199.913 80.3829 200.242C80.3829 200.58 80.4359 200.873 80.542 201.123C80.65 201.373 80.8015 201.567 80.9966 201.706C81.1935 201.844 81.4246 201.913 81.6897 201.913C81.864 201.913 82.0221 201.883 82.1642 201.822C82.3062 201.761 82.4265 201.674 82.525 201.561C82.6234 201.447 82.6935 201.311 82.7352 201.152H83.4056C83.3678 201.409 83.274 201.641 83.1244 201.848C82.9767 202.052 82.7806 202.215 82.5363 202.336C82.2939 202.456 82.0117 202.515 81.6897 202.515Z" fill="black"/>
<path d="M166.548 184.045H124.911V142.934C124.911 141.277 126.254 139.934 127.911 139.934H163.548C165.205 139.934 166.548 141.277 166.548 142.934V184.045Z" fill="#2EA7E0"/>
<path d="M141.896 196.606H142.6V200.765C142.6 201.136 142.532 201.452 142.396 201.711C142.259 201.971 142.067 202.168 141.819 202.302C141.571 202.437 141.278 202.504 140.941 202.504C140.623 202.504 140.34 202.446 140.092 202.331C139.844 202.213 139.649 202.046 139.507 201.831C139.365 201.615 139.294 201.358 139.294 201.061H139.987C139.987 201.225 140.027 201.369 140.109 201.492C140.192 201.614 140.306 201.708 140.45 201.777C140.594 201.845 140.758 201.879 140.941 201.879C141.144 201.879 141.316 201.836 141.458 201.751C141.6 201.666 141.708 201.541 141.782 201.376C141.858 201.209 141.896 201.006 141.896 200.765V196.606ZM145.205 202.527C144.929 202.527 144.678 202.475 144.453 202.37C144.227 202.264 144.048 202.112 143.916 201.913C143.783 201.712 143.717 201.47 143.717 201.186C143.717 200.936 143.766 200.733 143.865 200.578C143.963 200.421 144.095 200.297 144.259 200.208C144.424 200.119 144.606 200.053 144.805 200.01C145.006 199.964 145.207 199.928 145.41 199.902C145.675 199.867 145.89 199.842 146.055 199.825C146.222 199.806 146.343 199.775 146.419 199.731C146.496 199.688 146.535 199.612 146.535 199.504V199.481C146.535 199.201 146.458 198.983 146.305 198.828C146.153 198.672 145.923 198.595 145.615 198.595C145.295 198.595 145.044 198.665 144.862 198.805C144.68 198.945 144.552 199.095 144.478 199.254L143.842 199.027C143.955 198.761 144.107 198.555 144.296 198.407C144.488 198.258 144.696 198.153 144.921 198.095C145.149 198.034 145.372 198.004 145.592 198.004C145.732 198.004 145.893 198.021 146.075 198.055C146.259 198.087 146.436 198.154 146.606 198.257C146.778 198.359 146.921 198.513 147.035 198.72C147.149 198.926 147.205 199.203 147.205 199.549V202.424H146.535V201.833H146.501C146.455 201.928 146.38 202.029 146.274 202.137C146.168 202.245 146.027 202.337 145.85 202.413C145.674 202.489 145.459 202.527 145.205 202.527ZM145.308 201.924C145.573 201.924 145.796 201.872 145.978 201.768C146.162 201.664 146.3 201.529 146.393 201.365C146.488 201.2 146.535 201.027 146.535 200.845V200.231C146.507 200.265 146.444 200.296 146.348 200.325C146.253 200.351 146.143 200.375 146.018 200.396C145.895 200.415 145.775 200.432 145.657 200.447C145.542 200.46 145.448 200.472 145.376 200.481C145.202 200.504 145.039 200.541 144.887 200.592C144.738 200.641 144.616 200.716 144.524 200.816C144.433 200.915 144.387 201.049 144.387 201.22C144.387 201.453 144.473 201.629 144.646 201.748C144.82 201.866 145.041 201.924 145.308 201.924ZM149.1 199.799V202.424H148.429V198.061H149.077V198.742H149.134C149.236 198.521 149.391 198.343 149.6 198.208C149.808 198.072 150.077 198.004 150.406 198.004C150.702 198.004 150.96 198.064 151.182 198.186C151.404 198.305 151.576 198.487 151.699 198.731C151.822 198.974 151.884 199.28 151.884 199.652V202.424H151.213V199.697C151.213 199.354 151.124 199.087 150.946 198.896C150.768 198.703 150.524 198.606 150.213 198.606C149.999 198.606 149.808 198.653 149.639 198.745C149.473 198.838 149.341 198.974 149.245 199.152C149.148 199.33 149.1 199.546 149.1 199.799Z" fill="black"/>
<path d="M235.943 184.045H194.306V123.473C194.306 121.816 195.649 120.473 197.306 120.473H232.943C234.6 120.473 235.943 121.816 235.943 123.473V184.045Z" fill="#2EA7E0"/>
<path d="M208.829 202.424V196.606H212.318V197.231H209.534V199.197H212.056V199.822H209.534V202.424H208.829ZM214.943 202.515C214.522 202.515 214.16 202.422 213.855 202.237C213.552 202.049 213.318 201.788 213.153 201.452C212.99 201.115 212.909 200.723 212.909 200.276C212.909 199.829 212.99 199.435 213.153 199.095C213.318 198.752 213.547 198.485 213.841 198.293C214.136 198.1 214.481 198.004 214.875 198.004C215.102 198.004 215.326 198.041 215.548 198.117C215.77 198.193 215.971 198.316 216.153 198.487C216.335 198.655 216.48 198.879 216.588 199.157C216.696 199.435 216.75 199.778 216.75 200.185V200.47H213.386V199.89H216.068C216.068 199.644 216.019 199.424 215.92 199.231C215.824 199.038 215.685 198.885 215.505 198.774C215.327 198.662 215.117 198.606 214.875 198.606C214.608 198.606 214.377 198.672 214.181 198.805C213.988 198.935 213.84 199.106 213.735 199.316C213.631 199.526 213.579 199.752 213.579 199.992V200.379C213.579 200.708 213.636 200.988 213.75 201.217C213.865 201.444 214.025 201.617 214.23 201.737C214.434 201.854 214.672 201.913 214.943 201.913C215.119 201.913 215.278 201.888 215.42 201.839C215.564 201.788 215.688 201.712 215.792 201.612C215.896 201.509 215.977 201.382 216.034 201.231L216.681 201.413C216.613 201.632 216.499 201.826 216.338 201.992C216.177 202.157 215.978 202.286 215.741 202.379C215.504 202.47 215.238 202.515 214.943 202.515ZM217.86 202.424V196.606H218.531V198.754H218.588C218.637 198.678 218.705 198.581 218.792 198.464C218.881 198.345 219.008 198.238 219.173 198.146C219.34 198.051 219.565 198.004 219.849 198.004C220.217 198.004 220.54 198.095 220.821 198.279C221.101 198.463 221.32 198.723 221.477 199.06C221.634 199.398 221.713 199.795 221.713 200.254C221.713 200.716 221.634 201.116 221.477 201.455C221.32 201.792 221.102 202.054 220.824 202.239C220.545 202.423 220.224 202.515 219.86 202.515C219.58 202.515 219.356 202.469 219.187 202.376C219.019 202.281 218.889 202.174 218.798 202.055C218.707 201.934 218.637 201.833 218.588 201.754H218.508V202.424H217.86ZM218.52 200.242C218.52 200.572 218.568 200.863 218.664 201.114C218.761 201.364 218.902 201.56 219.088 201.702C219.273 201.843 219.501 201.913 219.77 201.913C220.05 201.913 220.284 201.839 220.471 201.691C220.661 201.541 220.803 201.341 220.897 201.089C220.994 200.835 221.042 200.553 221.042 200.242C221.042 199.935 220.995 199.659 220.9 199.413C220.807 199.165 220.666 198.969 220.477 198.825C220.289 198.679 220.054 198.606 219.77 198.606C219.497 198.606 219.268 198.675 219.082 198.813C218.896 198.95 218.756 199.141 218.662 199.387C218.567 199.631 218.52 199.916 218.52 200.242Z" fill="black"/>
<path d="M305.338 184.045H263.701V83.2538C263.701 81.5969 265.045 80.2538 266.701 80.2538H302.338C303.995 80.2538 305.338 81.5969 305.338 83.2538V184.045Z" fill="#333333"/>
<path d="M277.923 196.606H278.764L280.742 201.435H280.81L282.787 196.606H283.628V202.424H282.969V198.004H282.912L281.094 202.424H280.458L278.639 198.004H278.583V202.424H277.923V196.606ZM286.234 202.526C285.957 202.526 285.706 202.474 285.481 202.37C285.256 202.264 285.077 202.112 284.944 201.913C284.811 201.712 284.745 201.47 284.745 201.185C284.745 200.935 284.794 200.733 284.893 200.577C284.991 200.42 285.123 200.297 285.288 200.208C285.453 200.119 285.634 200.053 285.833 200.009C286.034 199.964 286.236 199.928 286.438 199.901C286.704 199.867 286.918 199.842 287.083 199.825C287.25 199.806 287.371 199.774 287.447 199.731C287.525 199.687 287.563 199.612 287.563 199.504V199.481C287.563 199.201 287.487 198.983 287.333 198.827C287.182 198.672 286.952 198.595 286.643 198.595C286.323 198.595 286.072 198.665 285.89 198.805C285.708 198.945 285.58 199.095 285.507 199.254L284.87 199.026C284.984 198.761 285.135 198.555 285.325 198.407C285.516 198.257 285.724 198.153 285.95 198.095C286.177 198.034 286.4 198.004 286.62 198.004C286.76 198.004 286.921 198.021 287.103 198.055C287.287 198.087 287.464 198.154 287.634 198.256C287.807 198.359 287.95 198.513 288.063 198.72C288.177 198.926 288.234 199.202 288.234 199.549V202.424H287.563V201.833H287.529C287.484 201.928 287.408 202.029 287.302 202.137C287.196 202.245 287.055 202.337 286.879 202.413C286.703 202.488 286.488 202.526 286.234 202.526ZM286.336 201.924C286.601 201.924 286.825 201.872 287.007 201.768C287.19 201.664 287.329 201.529 287.421 201.364C287.516 201.2 287.563 201.026 287.563 200.845V200.231C287.535 200.265 287.472 200.296 287.376 200.325C287.281 200.351 287.171 200.375 287.046 200.396C286.923 200.415 286.803 200.432 286.686 200.447C286.57 200.46 286.476 200.471 286.404 200.481C286.23 200.504 286.067 200.541 285.916 200.592C285.766 200.641 285.645 200.716 285.552 200.816C285.461 200.915 285.416 201.049 285.416 201.22C285.416 201.452 285.502 201.629 285.674 201.748C285.848 201.865 286.069 201.924 286.336 201.924ZM289.458 202.424V198.06H290.105V198.72H290.151C290.23 198.504 290.374 198.328 290.583 198.194C290.791 198.059 291.026 197.992 291.287 197.992C291.336 197.992 291.398 197.993 291.472 197.995C291.546 197.997 291.601 198 291.639 198.004V198.685C291.617 198.68 291.565 198.671 291.483 198.66C291.404 198.647 291.319 198.64 291.23 198.64C291.018 198.64 290.829 198.684 290.662 198.774C290.497 198.861 290.367 198.982 290.27 199.137C290.175 199.291 290.128 199.466 290.128 199.663V202.424H289.458Z" fill="black"/>
<path d="M305.338 184.045H263.701V83.2538C263.701 81.5969 265.045 80.2538 266.701 80.2538H302.338C303.995 80.2538 305.338 81.5969 305.338 83.2538V184.045Z" fill="#2EA7E0"/>
<path d="M374.733 185.343H333.096V70.2798C333.096 68.623 334.44 67.2798 336.096 67.2798H371.733C373.39 67.2798 374.733 68.623 374.733 70.2798V185.343Z" fill="#2EA7E0"/>
<path d="M348.229 202.424H347.49L349.627 196.606H350.354L352.49 202.424H351.752L350.013 197.527H349.968L348.229 202.424ZM348.502 200.152H351.479V200.777H348.502V200.152ZM353.306 204.061V198.061H353.953V198.754H354.033C354.082 198.678 354.15 198.582 354.237 198.464C354.327 198.345 354.453 198.239 354.618 198.146C354.785 198.051 355.01 198.004 355.294 198.004C355.662 198.004 355.986 198.096 356.266 198.279C356.546 198.463 356.765 198.724 356.922 199.061C357.079 199.398 357.158 199.796 357.158 200.254C357.158 200.716 357.079 201.117 356.922 201.456C356.765 201.793 356.547 202.054 356.269 202.24C355.99 202.423 355.669 202.515 355.306 202.515C355.025 202.515 354.801 202.469 354.632 202.376C354.464 202.281 354.334 202.174 354.243 202.055C354.152 201.934 354.082 201.833 354.033 201.754H353.976V204.061H353.306ZM353.965 200.242C353.965 200.572 354.013 200.863 354.11 201.115C354.206 201.365 354.347 201.561 354.533 201.703C354.719 201.843 354.946 201.913 355.215 201.913C355.495 201.913 355.729 201.839 355.916 201.691C356.106 201.542 356.248 201.341 356.343 201.089C356.439 200.835 356.487 200.553 356.487 200.242C356.487 199.936 356.44 199.659 356.345 199.413C356.253 199.165 356.112 198.969 355.922 198.825C355.735 198.679 355.499 198.606 355.215 198.606C354.942 198.606 354.713 198.675 354.527 198.814C354.342 198.95 354.202 199.141 354.107 199.387C354.012 199.632 353.965 199.917 353.965 200.242ZM358.181 202.424V198.061H358.828V198.72H358.874C358.953 198.504 359.097 198.329 359.306 198.194C359.514 198.06 359.749 197.992 360.01 197.992C360.059 197.992 360.121 197.993 360.195 197.995C360.269 197.997 360.325 198 360.362 198.004V198.686C360.34 198.68 360.288 198.671 360.206 198.66C360.127 198.647 360.042 198.64 359.953 198.64C359.741 198.64 359.552 198.685 359.385 198.774C359.22 198.861 359.09 198.982 358.993 199.137C358.898 199.291 358.851 199.466 358.851 199.663V202.424H358.181Z" fill="black"/>
</svg>
