<svg width="13" height="14" viewBox="0 0 13 14" fill="none" xmlns="http://www.w3.org/2000/svg">
<path d="M2.83544 1.36215C2.29052 0.817231 1.40704 0.817231 0.86212 1.36215C0.317203 1.90707 0.317203 2.79055 0.86212 3.33547L4.52664 6.99999L0.862159 10.6645C0.317241 11.2094 0.317241 12.0929 0.862159 12.6378C1.40708 13.1827 2.29056 13.1827 2.83548 12.6378L6.49996 8.97331L10.1644 12.6378C10.7093 13.1827 11.5928 13.1827 12.1377 12.6378C12.6826 12.0928 12.6826 11.2094 12.1377 10.6644L8.47328 6.99999L12.1378 3.3355C12.6827 2.79059 12.6827 1.9071 12.1378 1.36219C11.5928 0.817268 10.7094 0.817268 10.1644 1.36219L6.49996 5.02667L2.83544 1.36215Z" fill="#000"/>
</svg>
