<svg width="25" height="24" viewBox="0 0 25 24" fill="none" xmlns="http://www.w3.org/2000/svg">
<path d="M20.3119 7C20.5406 5.69523 19.5366 4.5 18.2119 4.5H7.28809C5.96344 4.5 4.95943 5.69523 5.18806 7" fill="white" stroke="#222" stroke-width="1.5"/>
<path  d="M18.25 4.5C18.2784 4.24092 18.2926 4.11135 18.2928 4.00435C18.295 2.98072 17.524 2.12064 16.5062 2.01142C16.3998 2 16.2695 2 16.0088 2H9.49105C9.23041 2 9.10008 2 8.99368 2.01142C7.9759 2.12064 7.20487 2.98072 7.2071 4.00434C7.20733 4.11135 7.22152 4.2409 7.24989 4.5" stroke="#222" stroke-width="1.5" fill="white"/>

<path d="M3.13351 13.793C2.68748 10.6294 2.46447 9.04765 3.41232 8.02383C4.36017 7 6.04758 7 9.42239 7H16.0776C19.4524 7 21.1398 7 22.0877 8.02383C23.0355 9.04765 22.8125 10.6294 22.3665 13.793L21.9435 16.793C21.5937 19.2739 21.4189 20.5143 20.5217 21.2572C19.6245 22 18.3012 22 15.6546 22H9.84536C7.19881 22 5.87553 22 4.97834 21.2572C4.08115 20.5143 3.90626 19.2739 3.55648 16.793L3.13351 13.793Z" fill="white" stroke="#222" stroke-width="1.5"/>
<path d="M15.3312 13.6157C15.8896 13.9619 15.8896 14.858 15.3312 15.2041L11.9596 17.2943C11.4169 17.6307 10.75 17.1928 10.75 16.5L10.75 12.3198C10.75 11.627 11.4169 11.1891 11.9596 11.5256L15.3312 13.6157Z" stroke="#222" stroke-width="1.5" fill="black"/>
</svg>
