<svg width="25" height="24" viewBox="0 0 25 24" fill="none" xmlns="http://www.w3.org/2000/svg">
<circle cx="12.25" cy="12" r="10" stroke="black" stroke-width="1.5"/>
<path d="M12.25 22L22.25 22" stroke="black" stroke-width="1.5" stroke-linecap="round"/>
<path d="M13.75 7.5C13.75 8.32843 13.0784 9 12.25 9C11.4216 9 10.75 8.32843 10.75 7.5C10.75 6.67157 11.4216 6 12.25 6C13.0784 6 13.75 6.67157 13.75 7.5Z" stroke="black" stroke-width="1.5"/>
<path d="M13.75 16.5C13.75 17.3284 13.0784 18 12.25 18C11.4216 18 10.75 17.3284 10.75 16.5C10.75 15.6716 11.4216 15 12.25 15C13.0784 15 13.75 15.6716 13.75 16.5Z" stroke="black" stroke-width="1.5"/>
<path d="M7.75 10.5C8.57843 10.5 9.25 11.1716 9.25 12C9.25 12.8284 8.57843 13.5 7.75 13.5C6.92157 13.5 6.25 12.8284 6.25 12C6.25 11.1716 6.92157 10.5 7.75 10.5Z" stroke="black" stroke-width="1.5"/>
<path d="M16.75 10.5C17.5784 10.5 18.25 11.1716 18.25 12C18.25 12.8284 17.5784 13.5 16.75 13.5C15.9216 13.5 15.25 12.8284 15.25 12C15.25 11.1716 15.9216 10.5 16.75 10.5Z" stroke="black" stroke-width="1.5"/>
</svg>
