<svg width="25" height="24" viewBox="0 0 25 24" fill="none" xmlns="http://www.w3.org/2000/svg">
<path d="M5.75 8C5.75 5.17157 5.75 3.75736 6.62868 2.87868C7.50736 2 8.92157 2 11.75 2H13.75C16.5784 2 17.9926 2 18.8713 2.87868C19.75 3.75736 19.75 5.17157 19.75 8V16C19.75 18.8284 19.75 20.2426 18.8713 21.1213C17.9926 22 16.5784 22 13.75 22H11.75C8.92157 22 7.50736 22 6.62868 21.1213C5.75 20.2426 5.75 18.8284 5.75 16V8Z" stroke="#039555" stroke-width="1.5"/>
<path d="M15.25 19H10.25" stroke="#039555" stroke-width="1.5" stroke-linecap="round"/>
<path d="M22.7499 6L21.9735 7.55279C21.8327 7.83431 21.8327 8.16569 21.9735 8.44721L22.5263 9.55279C22.667 9.83431 22.667 10.1657 22.5263 10.4472L21.9735 11.5528C21.8327 11.8343 21.8327 12.1657 21.9735 12.4472L22.5263 13.5528C22.667 13.8343 22.667 14.1657 22.5263 14.4472L21.9735 15.5528C21.8327 15.8343 21.8327 16.1657 21.9735 16.4472L22.7499 18" stroke="#039555" stroke-width="1.5" stroke-linecap="round" stroke-linejoin="round"/>
<path d="M2.75 6L3.52639 7.55279C3.66716 7.83431 3.66716 8.16569 3.52639 8.44721L2.97361 9.55279C2.83284 9.83431 2.83284 10.1657 2.97361 10.4472L3.52639 11.5528C3.66716 11.8343 3.66716 12.1657 3.52639 12.4472L2.97361 13.5528C2.83284 13.8343 2.83284 14.1657 2.97361 14.4472L3.52639 15.5528C3.66716 15.8343 3.66716 16.1657 3.52639 16.4472L2.75 18" stroke="#039555" stroke-width="1.5" stroke-linecap="round" stroke-linejoin="round"/>
</svg>
