<svg width="25" height="24" viewBox="0 0 25 24" fill="none" xmlns="http://www.w3.org/2000/svg">
<path d="M15.25 19.5H10.25M15.25 19.5C15.25 18.7865 15.25 18.4297 15.2881 18.193C15.4109 17.4296 15.4324 17.3815 15.9192 16.7807C16.0701 16.5945 16.6305 16.0927 17.7512 15.0892C19.2849 13.7159 20.25 11.7206 20.25 9.5C20.25 5.35786 16.8921 2 12.75 2C8.60786 2 5.25 5.35786 5.25 9.5C5.25 11.7206 6.2151 13.7159 7.74876 15.0892C8.86945 16.0927 9.42987 16.5945 9.58082 16.7807C10.0676 17.3815 10.0891 17.4296 10.2119 18.193C10.25 18.4297 10.25 18.7865 10.25 19.5M15.25 19.5C15.25 20.4346 15.25 20.9019 15.049 21.25C14.9174 21.478 14.728 21.6674 14.5 21.799C14.1519 22 13.6846 22 12.75 22C11.8154 22 11.3481 22 11 21.799C10.772 21.6674 10.5826 21.478 10.451 21.25C10.25 20.9019 10.25 20.4346 10.25 19.5" stroke="#039555" stroke-width="1.5"/>
<path d="M12.75 17V15" stroke="#039555" stroke-width="1.5" stroke-linecap="round"/>
<path d="M14.4824 14C14.1366 14.5978 13.4903 15 12.75 15C12.0097 15 11.3634 14.5978 11.0176 14" stroke="#039555" stroke-width="1.5" stroke-linecap="round"/>
</svg>
